SplineFontDB: 3.2
FontName: neamonternafont
FullName: NeaMonternaFont
FamilyName: NeaMonternaFont
Weight: Regular
Copyright: Copyright (c) 1994-2025 iPadsoft Videoke Fonts\n===============\nCollaboration with\n- Werconian Type\n\ncontact my friend tyson: tysonbyulkim15@gmail.com
UComments: "2025-2-16: Created with FontForge (http://fontforge.org)+AAoA-2025-6-27: I decided to turn on Safe mode, but it earred all the rounded courners."
FontLog: "Font Announcement: Werconian Type+AAoA-The Werconian Type font is currently in development and will be available on the font market soon.+AAoA-Its source font is based on NeaMonternaFont, and full Unicode support is being implemented.+AAoA-Version History+AAoA-v0.1 +IBMA Initial Latin characters added+AAoA-v0.2 +IBMA Expanded Latin support+AAoA-v0.3 +IBMA Greek characters added+AAoA-v0.4 +IBMA Full Latin Extended-B support+AAoA-v0.5 +IBMA Spacing Modifier Letters and Combining Diacritical Marks added+AAoA-v0.6 +IBMA Cyrillic characters added+AAoA-v0.7 +IBMA Additional Greek characters added+AAoA-v0.8 +IBMA Additional Cyrillic characters added+AAoA-Upcoming updates are planned +IBQA stay tuned.+AAoA-The source will be available soon on GitHub, so be ready to contribute or explore.+AAoACgAA-NOTICES: +AAoA-- The revamped FONTLOG is by the Hueweh's Text Polisher, so shoutout to the Hueweh.+AAoA-- Our FONTLOG was screenshotted to r/engrish, which is the is list of all mis information of the English uses."
Version: v6.3 Werconian Type
DefaultBaseFilename: monterna
ItalicAngle: 0
UnderlinePosition: -25
UnderlineWidth: 12
Ascent: 205
Descent: 51
InvalidEm: 0
sfntRevision: 0x000646bc
LayerCount: 2
Layer: 0 0 "Back" 1
Layer: 1 0 "Fore" 0
XUID: [1021 318 329363189 2500]
StyleMap: 0x0000
FSType: 0
OS2Version: 0
OS2_WeightWidthSlopeOnly: 0
OS2_UseTypoMetrics: 1
CreationTime: 1739688999
ModificationTime: 1754699847
PfmFamily: 17
TTFWeight: 400
TTFWidth: 5
LineGap: 23
VLineGap: 23
OS2TypoAscent: 0
OS2TypoAOffset: 1
OS2TypoDescent: 0

StartChar: O
Encoding: 79 79 0
Width: 215
Flags: W
HStem: -5 22.4365<80.7812 135.157> 167.108 21.8916<80.7812 135.157>
VStem: 10 22.4238<64.9945 119.278> 182.866 22.1338<64.9945 120.426>
LayerCount: 2
Fore
SplineSet
32.423828125 92.2724609375 m 0
 32.423828125 50.6103515625 66.3701171875 17.4365234375 108.03125 17.4365234375 c 0
 149.692382812 17.4365234375 182.866210938 50.6103515625 182.866210938 92.2724609375 c 0
 182.866210938 133.932617188 149.692382812 167.108398438 108.03125 167.108398438 c 0
 66.3701171875 167.108398438 32.423828125 133.932617188 32.423828125 92.2724609375 c 0
10 92 m 0
 10 146 54 189 108 189 c 0
 162 189 205 146 205 92 c 0
 205 38 162 -5 108 -5 c 0
 54 -5 10 38 10 92 c 0
EndSplineSet
Substitution2: "'c2sc' Capitals to Small Capitals in Latin lookup 0 subtable" o.sc
Substitution2: "'dnom' Denominators lookup 0 subtable" O.denominator
Substitution2: "'numr' Numerators lookup 0 subtable" O.numerator
Substitution2: "'subs' Subscript in Latin lookup 0 subtable" O.subscript
Substitution2: "'c2sc' Capitals to Small Capitals in Latin lookup 0 subtable" o.sc
Substitution2: "'sups' Superscript in Latin lookup 0 subtable" O.superior
EndChar

StartChar: o
Encoding: 111 111 1
Width: 156
Flags: W
HStem: -5 23.4062<56.5805 99.6017> 106.969 22.8613<56.5805 99.6017>
VStem: 10 23.4238<41.8753 84.0168> 122.443 23.082<41.8753 84.0168>
LayerCount: 2
Fore
SplineSet
33.423828125 62.6875 m 0
 33.423828125 38.03515625 53.5107421875 18.40625 78.162109375 18.40625 c 4
 102.813476562 18.40625 122.443359375 38.03515625 122.443359375 62.6875 c 4
 122.443359375 87.3388671875 102.813476562 106.96875 78.162109375 106.96875 c 0
 53.5107421875 106.96875 33.423828125 87.3388671875 33.423828125 62.6875 c 0
10 62.4150390625 m 0
 10 99.9453125 40.580078125 129.830078125 78.1103515625 129.830078125 c 0
 115.640625 129.830078125 145.525390625 99.9453125 145.525390625 62.4150390625 c 4
 145.525390625 24.884765625 115.640625 -5 78.1103515625 -5 c 4
 40.580078125 -5 10 24.884765625 10 62.4150390625 c 0
EndSplineSet
Substitution2: "'smcp' Lowercase to Small Capitals in Latin lookup 0 subtable" o.sc
Substitution2: "'dnom' Denominators lookup 0 subtable" o.denominator
Substitution2: "'numr' Numerators lookup 0 subtable" o.numerator
Substitution2: "'subs' Subscript in Latin lookup 0 subtable" o.subscript
Substitution2: "'smcp' Lowercase to Small Capitals in Latin lookup 0 subtable" o.sc
Substitution2: "'sups' Superscript in Latin lookup 0 subtable" o.superior
EndChar

StartChar: b
Encoding: 98 98 2
Width: 165
Flags: W
HStem: -5 23.4062<65.5805 108.602> 0 21G<19.1104 42.1104> 106.969 22.8613<65.5805 108.602> 164 20G<19.1104 42.1104>
VStem: 19 23.4238<62.415 184> 131.443 23.082<41.8753 84.0168>
LayerCount: 2
Fore
SplineSet
19.1103515625 0 m 5x7c
 19.1103515625 184 l 5
 42.1103515625 184 l 5
 42.1103515625 0 l 5
 19.1103515625 0 l 5x7c
42.423828125 62.6875 m 0
 42.423828125 38.03515625 62.5107421875 18.40625 87.162109375 18.40625 c 0xbc
 111.813476562 18.40625 131.443359375 38.03515625 131.443359375 62.6875 c 0
 131.443359375 87.3388671875 111.813476562 106.96875 87.162109375 106.96875 c 0
 62.5107421875 106.96875 42.423828125 87.3388671875 42.423828125 62.6875 c 0
19 62.4150390625 m 0
 19 99.9453125 49.580078125 129.830078125 87.1103515625 129.830078125 c 0
 124.640625 129.830078125 154.525390625 99.9453125 154.525390625 62.4150390625 c 0
 154.525390625 24.884765625 124.640625 -5 87.1103515625 -5 c 0
 49.580078125 -5 19 24.884765625 19 62.4150390625 c 0
EndSplineSet
Substitution2: "'smcp' Lowercase to Small Capitals in Latin lookup 0 subtable" b.sc
Substitution2: "'dnom' Denominators lookup 0 subtable" b.denominator
Substitution2: "'numr' Numerators lookup 0 subtable" b.numerator
Substitution2: "'subs' Subscript in Latin lookup 0 subtable" b.subscript
Substitution2: "'smcp' Lowercase to Small Capitals in Latin lookup 0 subtable" b.sc
Substitution2: "'sups' Superscript in Latin lookup 0 subtable" b.superior
EndChar

StartChar: d
Encoding: 100 100 3
Width: 165
Flags: W
HStem: -5 23.4062<56.5805 99.6017> 0 21G<123.11 146.11> 106.969 22.8613<56.5805 99.6017> 164 20G<123.11 146.11>
VStem: 10 23.4238<41.8753 84.0168> 123.11 23<62.415 184>
LayerCount: 2
Fore
SplineSet
33.423828125 62.6875 m 0xbc
 33.423828125 38.03515625 53.5107421875 18.40625 78.162109375 18.40625 c 0
 102.813476562 18.40625 122.443359375 38.03515625 122.443359375 62.6875 c 0
 122.443359375 87.3388671875 102.813476562 106.96875 78.162109375 106.96875 c 0
 53.5107421875 106.96875 33.423828125 87.3388671875 33.423828125 62.6875 c 0xbc
10 62.4150390625 m 0
 10 99.9453125 40.580078125 129.830078125 78.1103515625 129.830078125 c 0
 115.640625 129.830078125 145.525390625 99.9453125 145.525390625 62.4150390625 c 0
 145.525390625 24.884765625 115.640625 -5 78.1103515625 -5 c 0
 40.580078125 -5 10 24.884765625 10 62.4150390625 c 0
123.110351562 0 m 5x7c
 123.110351562 184 l 5
 146.110351562 184 l 5
 146.110351562 0 l 5
 123.110351562 0 l 5x7c
EndSplineSet
Substitution2: "'smcp' Lowercase to Small Capitals in Latin lookup 0 subtable" d.sc
Substitution2: "'dnom' Denominators lookup 0 subtable" d.denominator
Substitution2: "'numr' Numerators lookup 0 subtable" d.numerator
Substitution2: "'subs' Subscript in Latin lookup 0 subtable" d.subscript
Substitution2: "'smcp' Lowercase to Small Capitals in Latin lookup 0 subtable" d.sc
Substitution2: "'sups' Superscript in Latin lookup 0 subtable" d.superior
EndChar

StartChar: p
Encoding: 112 112 4
Width: 164
Flags: W
HStem: -5 23.4062<64.5805 107.602> 105 20G<18.1104 41.1104> 106.969 22.8613<64.5805 107.602>
VStem: 18 23.4238<-59 125> 130.443 23.082<41.8753 84.0168>
LayerCount: 2
Fore
SplineSet
18.1103515625 -59 m 5xd8
 18.1103515625 125 l 5
 41.1103515625 125 l 5
 41.1103515625 -59 l 5
 18.1103515625 -59 l 5xd8
41.423828125 62.6875 m 0
 41.423828125 38.03515625 61.5107421875 18.40625 86.162109375 18.40625 c 0
 110.813476562 18.40625 130.443359375 38.03515625 130.443359375 62.6875 c 0
 130.443359375 87.3388671875 110.813476562 106.96875 86.162109375 106.96875 c 0xb8
 61.5107421875 106.96875 41.423828125 87.3388671875 41.423828125 62.6875 c 0
18 62.4150390625 m 0
 18 99.9453125 48.580078125 129.830078125 86.1103515625 129.830078125 c 0
 123.640625 129.830078125 153.525390625 99.9453125 153.525390625 62.4150390625 c 0
 153.525390625 24.884765625 123.640625 -5 86.1103515625 -5 c 0
 48.580078125 -5 18 24.884765625 18 62.4150390625 c 0
EndSplineSet
Substitution2: "'smcp' Lowercase to Small Capitals in Latin lookup 0 subtable" p.sc
Substitution2: "'dnom' Denominators lookup 0 subtable" p.denominator
Substitution2: "'numr' Numerators lookup 0 subtable" p.numerator
Substitution2: "'subs' Subscript in Latin lookup 0 subtable" p.subscript
Substitution2: "'smcp' Lowercase to Small Capitals in Latin lookup 0 subtable" p.sc
Substitution2: "'sups' Superscript in Latin lookup 0 subtable" p.superior
EndChar

StartChar: c
Encoding: 99 99 5
Width: 139
Flags: W
HStem: -4.83008 22.8613<56.5805 99.4495> 106.969 22.8613<56.5805 99.881>
VStem: 10 23.4238<40.9832 83.2117>
LayerCount: 2
Fore
SplineSet
128.990234375 18.1201171875 m 1
 116.6796875 4.013671875 98.5263671875 -4.830078125 78.1103515625 -4.830078125 c 4
 40.580078125 -4.830078125 10 25.0546875 10 62.5849609375 c 4
 10 99.9453125 40.580078125 129.830078125 78.1103515625 129.830078125 c 0
 98.5263671875 129.830078125 116.6796875 120.986328125 129.110351562 107 c 1
 112.6875 90.5771484375 l 17
 104.603515625 100.606445312 92.1962890625 106.96875 78.162109375 106.96875 c 0
 53.5107421875 106.96875 33.423828125 87.3388671875 33.423828125 62.3125 c 4
 33.423828125 37.6611328125 53.5107421875 18.03125 78.162109375 18.03125 c 4
 92.1962890625 18.03125 104.603515625 24.3935546875 112.6875 34.5771484375 c 1
 128.990234375 18.1201171875 l 1
112.6875 34.5771484375 m 1025
128.990234375 18.1201171875 m 1025
112.6875 90.5771484375 m 1025
128.990234375 106.879882812 m 1025
EndSplineSet
Substitution2: "'smcp' Lowercase to Small Capitals in Latin lookup 0 subtable" c.sc
Substitution2: "'dnom' Denominators lookup 0 subtable" c.denominator
Substitution2: "'numr' Numerators lookup 0 subtable" c.numerator
Substitution2: "'subs' Subscript in Latin lookup 0 subtable" c.subscript
Substitution2: "'smcp' Lowercase to Small Capitals in Latin lookup 0 subtable" c.sc
Substitution2: "'sups' Superscript in Latin lookup 0 subtable" c.superior
EndChar

StartChar: q
Encoding: 113 113 6
Width: 164
Flags: W
HStem: -5 23.4062<56.5805 99.6017> 105 20G<123.11 146.11> 106.969 22.8613<56.5805 99.6017>
VStem: 10 23.4238<41.8753 84.0168> 123.11 23<-59 125>
LayerCount: 2
Fore
SplineSet
123.110351562 -59 m 5xd8
 123.110351562 125 l 5
 146.110351562 125 l 5
 146.110351562 -59 l 5
 123.110351562 -59 l 5xd8
33.423828125 62.6875 m 0
 33.423828125 38.03515625 53.5107421875 18.40625 78.162109375 18.40625 c 0
 102.813476562 18.40625 122.443359375 38.03515625 122.443359375 62.6875 c 0
 122.443359375 87.3388671875 102.813476562 106.96875 78.162109375 106.96875 c 0xb8
 53.5107421875 106.96875 33.423828125 87.3388671875 33.423828125 62.6875 c 0
10 62.4150390625 m 0
 10 99.9453125 40.580078125 129.830078125 78.1103515625 129.830078125 c 0
 115.640625 129.830078125 145.525390625 99.9453125 145.525390625 62.4150390625 c 0
 145.525390625 24.884765625 115.640625 -5 78.1103515625 -5 c 0
 40.580078125 -5 10 24.884765625 10 62.4150390625 c 0
EndSplineSet
Substitution2: "'smcp' Lowercase to Small Capitals in Latin lookup 0 subtable" q.sc
Substitution2: "'dnom' Denominators lookup 0 subtable" q.denominator
Substitution2: "'numr' Numerators lookup 0 subtable" q.numerator
Substitution2: "'subs' Subscript in Latin lookup 0 subtable" q.subscript
Substitution2: "'smcp' Lowercase to Small Capitals in Latin lookup 0 subtable" q.sc
Substitution2: "'sups' Superscript in Latin lookup 0 subtable" q.superior
EndChar

StartChar: n
Encoding: 110 110 7
Width: 166
Flags: W
HStem: 0 21G<17 40 129 152> 105 20G<17 40> 106.969 22.8613<63.4659 106.335>
VStem: 17 23<0 125> 129 23<0 83.9423>
LayerCount: 2
Fore
SplineSet
129 63 m 17xb8
 128.333007812 87.3388671875 109.703125 106.96875 85.0517578125 106.96875 c 0
 60.400390625 106.96875 40.3134765625 87.3388671875 40 63 c 9
 17 62 l 1
 16.8896484375 99.9453125 47.4697265625 129.830078125 85 129.830078125 c 0
 122.530273438 129.830078125 151.415039062 99.9453125 152 62 c 9
 152 0 l 25
 129 0 l 25
 129 63 l 17xb8
17 0 m 1
 17 125 l 1
 40 125 l 1xd8
 40 0 l 1
 17 0 l 1
EndSplineSet
Substitution2: "'smcp' Lowercase to Small Capitals in Latin lookup 0 subtable" n.sc
Substitution2: "'dnom' Denominators lookup 0 subtable" n.denominator
Substitution2: "'numr' Numerators lookup 0 subtable" n.numerator
Substitution2: "'unic' Unicase in Latin lookup 8-1" n.unic
Substitution2: "'subs' Subscript in Latin lookup 0 subtable" n.subscript
Substitution2: "'smcp' Lowercase to Small Capitals in Latin lookup 0 subtable" n.sc
Substitution2: "'sups' Superscript in Latin lookup 0 subtable" n.superior
EndChar

StartChar: m
Encoding: 109 109 8
Width: 258
Flags: W
HStem: 0 21G<17 40 119 142 221 244> 105 20G<17 40> 106.969 22.8613<60.0712 99.7411 162.071 201.741>
VStem: 17 23<0 125> 119 23<0 99.9453> 221 23<0 85.516>
CounterMasks: 1 1c
LayerCount: 2
Fore
SplineSet
221 63 m 17xbc
 220.333007812 87.3388671875 206.703125 106.96875 182.051757812 106.96875 c 4
 157.400390625 106.96875 142.313476562 87.3388671875 142 63 c 9
 119 62 l 1
 118.889648438 99.9453125 144.469726562 129.830078125 182 129.830078125 c 4
 219.530273438 129.830078125 243.415039062 99.9453125 244 62 c 9
 244 0 l 25
 221 0 l 25
 221 63 l 17xbc
119 63 m 17
 118.333007812 87.3388671875 104.703125 106.96875 80.0517578125 106.96875 c 4
 55.400390625 106.96875 40.3134765625 87.3388671875 40 63 c 9
 17 62 l 1
 16.8896484375 99.9453125 42.4697265625 129.830078125 80 129.830078125 c 4
 117.530273438 129.830078125 141.415039062 99.9453125 142 62 c 9
 142 0 l 25
 119 0 l 25
 119 63 l 17
17 0 m 1
 17 125 l 1
 40 125 l 1xdc
 40 0 l 1
 17 0 l 1
EndSplineSet
Substitution2: "'smcp' Lowercase to Small Capitals in Latin lookup 0 subtable" m.sc
Substitution2: "'dnom' Denominators lookup 0 subtable" m.denominator
Substitution2: "'numr' Numerators lookup 0 subtable" m.numerator
Substitution2: "'unic' Unicase in Latin lookup 8-1" m.unic
Substitution2: "'subs' Subscript in Latin lookup 0 subtable" m.subscript
Substitution2: "'smcp' Lowercase to Small Capitals in Latin lookup 0 subtable" m.sc
Substitution2: "'sups' Superscript in Latin lookup 0 subtable" m.superior
EndChar

StartChar: Q
Encoding: 81 81 9
Width: 215
Flags: W
HStem: -5 22.4365<80.7812 132.273> 167.108 21.8916<80.7812 135.157>
VStem: 10 22.4238<64.9945 119.278> 182.866 22.1338<64.9945 120.426>
LayerCount: 2
Fore
SplineSet
154 -47 m 1
 132.431640625 15.01171875 l 1
 154 15 l 1
 175.568359375 -47.01171875 l 1
 154 -47 l 1
32.423828125 92.2724609375 m 0
 32.423828125 50.6103515625 66.3701171875 17.4365234375 108.03125 17.4365234375 c 0
 149.692382812 17.4365234375 182.866210938 50.6103515625 182.866210938 92.2724609375 c 0
 182.866210938 133.932617188 149.692382812 167.108398438 108.03125 167.108398438 c 0
 66.3701171875 167.108398438 32.423828125 133.932617188 32.423828125 92.2724609375 c 0
10 92 m 0
 10 146 54 189 108 189 c 0
 162 189 205 146 205 92 c 0
 205 38 162 -5 108 -5 c 0
 54 -5 10 38 10 92 c 0
EndSplineSet
Substitution2: "'c2sc' Capitals to Small Capitals in Latin lookup 0 subtable" q.sc
Substitution2: "'dnom' Denominators lookup 0 subtable" Q.denominator
Substitution2: "'numr' Numerators lookup 0 subtable" Q.numerator
Substitution2: "'subs' Subscript in Latin lookup 0 subtable" Q.subscript
Substitution2: "'c2sc' Capitals to Small Capitals in Latin lookup 0 subtable" q.sc
Substitution2: "'sups' Superscript in Latin lookup 0 subtable" Q.superior
EndChar

StartChar: e
Encoding: 101 101 10
Width: 156
Flags: W
HStem: -4.83008 22.8613<56.5805 99.4495> 50.585 23<21.5254 122.11> 63 10.585<122.11 134.11> 107.139 22.8613<56.5805 99.5966>
VStem: 21.5254 11.8984<50.585 73.585>
LayerCount: 2
Fore
SplineSet
145.525390625 62.5849609375 m 5xb8
 122.110351562 63 l 5
 122.443359375 87.5087890625 102.813476562 107.138671875 78.162109375 107.138671875 c 4
 53.5107421875 107.138671875 33.423828125 87.5087890625 33.423828125 62.857421875 c 4
 33.423828125 37.6611328125 53.5107421875 18.03125 78.162109375 18.03125 c 4
 92.1962890625 18.03125 104.603515625 24.3935546875 112.6875 34.5771484375 c 5
 128.990234375 18.1201171875 l 5
 116.6796875 4.013671875 98.5263671875 -4.830078125 78.1103515625 -4.830078125 c 4
 40.580078125 -4.830078125 10 25.0546875 10 62.5849609375 c 4
 10 100.115234375 40.580078125 130 78.1103515625 130 c 4
 115.640625 130 145.525390625 100.115234375 145.525390625 62.5849609375 c 5xb8
21.525390625 73.5849609375 m 1xd8
 134.110351562 73.5849609375 l 1xb8
 145.525390625 62.5849609375 l 1
 145.525390625 50.5849609375 l 1
 21.525390625 50.5849609375 l 1
 21.525390625 73.5849609375 l 1xd8
112.6875 34.5771484375 m 1025
128.990234375 18.1201171875 m 1025
EndSplineSet
Substitution2: "'smcp' Lowercase to Small Capitals in Latin lookup 0 subtable" e.sc
Substitution2: "'dnom' Denominators lookup 0 subtable" e.denominator
Substitution2: "'numr' Numerators lookup 0 subtable" e.numerator
Substitution2: "'unic' Unicase in Latin lookup 8-1" e.unic
Substitution2: "'subs' Subscript in Latin lookup 0 subtable" e.subscript
Substitution2: "'smcp' Lowercase to Small Capitals in Latin lookup 0 subtable" e.sc
Substitution2: "'sups' Superscript in Latin lookup 0 subtable" e.superior
EndChar

StartChar: C
Encoding: 67 67 11
Width: 186
Flags: W
HStem: -5 22.8613<80.7854 136.737> 167.139 22.8613<80.7858 136.738>
VStem: 10 22.4238<65.024 119.319>
LayerCount: 2
Fore
SplineSet
162.577148438 44.4072265625 m 1025
178.879882812 27.9501953125 m 1025
162.577148438 140.747070312 m 1029
178.879882812 157.049804688 m 1029
108 -5 m 0
 54 -5 10 38 10 92 c 0
 10 146 54 190 108 190 c 4
 147.416015625 190 166.569335938 171.15625 179 157.169921875 c 5
 162.577148438 140.747070312 l 5
 154.493164062 150.776367188 141.0859375 167.138671875 108.051757812 167.138671875 c 4
 66.3701171875 167.138671875 32.423828125 133.932617188 32.423828125 92.2724609375 c 0
 32.423828125 50.6103515625 66.3681640625 17.861328125 108.051757812 17.861328125 c 0
 141.0859375 17.861328125 154.493164062 34.2236328125 162.577148438 44.4072265625 c 1
 178.879882812 27.9501953125 l 1
 166.569335938 13.84375 147.416015625 -5 108 -5 c 0
EndSplineSet
Substitution2: "'c2sc' Capitals to Small Capitals in Latin lookup 0 subtable" c.sc
Substitution2: "'dnom' Denominators lookup 0 subtable" C.denominator
Substitution2: "'numr' Numerators lookup 0 subtable" C.numerator
Substitution2: "'subs' Subscript in Latin lookup 0 subtable" C.subscript
Substitution2: "'c2sc' Capitals to Small Capitals in Latin lookup 0 subtable" c.sc
Substitution2: "'sups' Superscript in Latin lookup 0 subtable" C.superior
EndChar

StartChar: I
Encoding: 73 73 12
Width: 114
Flags: W
HStem: 0 23<20 44 67 94> 10 13<44 67> 161 23<20 44 67 94> 161 13<44 67>
VStem: 44 23<10 174>
LayerCount: 2
Fore
SplineSet
44 10 m 5x58
 44 174 l 1
 67 174 l 1
 67 10 l 5
 44 10 l 5x58
20 184 m 1x28
 94 184 l 1
 94 161 l 1
 20 161 l 1
 20 184 l 1x28
20 23 m 1x88
 94 23 l 1
 94 0 l 1
 20 0 l 1
 20 23 l 1x88
EndSplineSet
Substitution2: "'c2sc' Capitals to Small Capitals in Latin lookup 0 subtable" i.sc
Substitution2: "'dnom' Denominators lookup 0 subtable" I.denominator
Substitution2: "'numr' Numerators lookup 0 subtable" I.numerator
Substitution2: "'subs' Subscript in Latin lookup 0 subtable" I.subscript
Substitution2: "'c2sc' Capitals to Small Capitals in Latin lookup 0 subtable" i.sc
Substitution2: "'sups' Superscript in Latin lookup 0 subtable" I.superior
EndChar

StartChar: L
Encoding: 76 76 13
Width: 142
Flags: W
HStem: 0 23<42 133> 164 20G<19 42>
VStem: 19 23<23 184>
LayerCount: 2
Fore
SplineSet
19 0 m 5
 19 184 l 5
 42 184 l 5
 42 23 l 5
 133 23 l 5
 133 0 l 5
 19 0 l 5
EndSplineSet
Substitution2: "'c2sc' Capitals to Small Capitals in Latin lookup 0 subtable" l.sc
Substitution2: "'dnom' Denominators lookup 0 subtable" L.denominator
Substitution2: "'numr' Numerators lookup 0 subtable" L.numerator
Substitution2: "'subs' Subscript in Latin lookup 0 subtable" L.subscript
Substitution2: "'c2sc' Capitals to Small Capitals in Latin lookup 0 subtable" l.sc
Substitution2: "'sups' Superscript in Latin lookup 0 subtable" L.superior
EndChar

StartChar: E
Encoding: 69 69 14
Width: 145
Flags: W
HStem: 0 23<42 133> 81 23<29 123> 161 23<42 133>
VStem: 29 13<81 104>
LayerCount: 2
Fore
SplineSet
266 247 m 1049
29 104 m 1
 123 104 l 1
 123 81 l 1
 29 81 l 1
 29 104 l 1
19 184 m 1
 133 184 l 1
 133 161 l 1
 29 161 l 1
 19 184 l 1
29 23 m 1
 133 23 l 1
 133 0 l 1
 19 0 l 1
 29 23 l 1
19 0 m 1
 19 184 l 1
 42 174 l 1
 42 10 l 1
 19 0 l 1
EndSplineSet
Substitution2: "'c2sc' Capitals to Small Capitals in Latin lookup 0 subtable" e.sc
Substitution2: "'dnom' Denominators lookup 0 subtable" E.denominator
Substitution2: "'numr' Numerators lookup 0 subtable" E.numerator
Substitution2: "'unic' Unicase in Latin lookup 8-1" e.unic
Substitution2: "'subs' Subscript in Latin lookup 0 subtable" E.subscript
Substitution2: "'c2sc' Capitals to Small Capitals in Latin lookup 0 subtable" e.sc
Substitution2: "'sups' Superscript in Latin lookup 0 subtable" E.superior
EndChar

StartChar: F
Encoding: 70 70 15
Width: 138
Flags: W
HStem: 0 21G<19 42> 81 23<29 123> 161 23<42 133>
VStem: 19 23<0 81 104 161> 29 13<81 104>
LayerCount: 2
Fore
SplineSet
29 104 m 1xe8
 123 104 l 1
 123 81 l 1
 29 81 l 1
 29 104 l 1xe8
19 184 m 1xf0
 133 184 l 1
 133 161 l 1
 29 161 l 1xe8
 19 184 l 1xf0
19 0 m 1xf0
 19 184 l 1xf0
 42 174 l 1xe8
 42 0 l 1
 19 0 l 1xf0
EndSplineSet
Substitution2: "'c2sc' Capitals to Small Capitals in Latin lookup 0 subtable" f.sc
Substitution2: "'dnom' Denominators lookup 0 subtable" F.denominator
Substitution2: "'numr' Numerators lookup 0 subtable" F.numerator
Substitution2: "'subs' Subscript in Latin lookup 0 subtable" F.subscript
Substitution2: "'c2sc' Capitals to Small Capitals in Latin lookup 0 subtable" f.sc
Substitution2: "'sups' Superscript in Latin lookup 0 subtable" F.superior
EndChar

StartChar: G
Encoding: 71 71 16
Width: 215
Flags: W
HStem: -5 22.4365<80.7812 135.157> 81 23<111 182.866> 81 11.2725<182.866 195> 167.139 22.8613<80.7858 136.738>
VStem: 10 22.4238<64.9945 119.319>
LayerCount: 2
Fore
SplineSet
111 104 m 1xd8
 205 104 l 1xd8
 205 92 l 1
 195 81 l 1xb8
 111 81 l 1
 111 104 l 1xd8
205 92 m 17
 205 38 162 -5 108 -5 c 0
 54 -5 10 38 10 92 c 0
 10 146 54 190 108 190 c 0
 147.416015625 190 166.569335938 171.15625 179 157.169921875 c 1
 162.577148438 140.747070312 l 1
 154.493164062 150.776367188 141.0859375 167.138671875 108.051757812 167.138671875 c 0
 66.3701171875 167.138671875 32.423828125 133.932617188 32.423828125 92.2724609375 c 0
 32.423828125 50.6103515625 66.3701171875 17.4365234375 108.03125 17.4365234375 c 0
 149.692382812 17.4365234375 182.866210938 50.6103515625 182.866210938 92.2724609375 c 9xb8
 205 92 l 17
162.577148438 140.747070312 m 1025
178.879882812 157.049804688 m 1025
EndSplineSet
Substitution2: "'c2sc' Capitals to Small Capitals in Latin lookup 0 subtable" g.sc
Substitution2: "'dnom' Denominators lookup 0 subtable" G.denominator
Substitution2: "'numr' Numerators lookup 0 subtable" G.numerator
Substitution2: "'subs' Subscript in Latin lookup 0 subtable" G.subscript
Substitution2: "'c2sc' Capitals to Small Capitals in Latin lookup 0 subtable" g.sc
Substitution2: "'sups' Superscript in Latin lookup 0 subtable" G.superior
EndChar

StartChar: H
Encoding: 72 72 17
Width: 173
Flags: W
HStem: 0 21G<19 42 131 154> 81 23<42 131> 164 20G<19 42 131 154>
VStem: 19 23<0 81 104 184> 131 23<0 81 104 184>
LayerCount: 2
Fore
SplineSet
266 247 m 1049
19 0 m 1
 19 184 l 1
 42 184 l 1
 42 104 l 1
 131 104 l 1
 131 184 l 1
 154 184 l 1
 154 0 l 1
 131 0 l 1
 131 81 l 1
 42 81 l 1
 42 0 l 1
 19 0 l 1
EndSplineSet
Substitution2: "'c2sc' Capitals to Small Capitals in Latin lookup 0 subtable" h.sc
Substitution2: "'dnom' Denominators lookup 0 subtable" H.denominator
Substitution2: "'numr' Numerators lookup 0 subtable" H.numerator
Substitution2: "'subs' Subscript in Latin lookup 0 subtable" H.subscript
Substitution2: "'c2sc' Capitals to Small Capitals in Latin lookup 0 subtable" h.sc
Substitution2: "'sups' Superscript in Latin lookup 0 subtable" H.superior
EndChar

StartChar: J
Encoding: 74 74 18
Width: 162
Flags: W
HStem: -5 22.8613<47.2427 101.779> 164 20G<124 147>
VStem: 124 23<39.6943 184>
LayerCount: 2
Fore
SplineSet
5.1201171875 27.9501953125 m 1025
21.4228515625 44.2529296875 m 1025
147 60 m 2
 147 17 115.3125 -5 75.896484375 -5 c 0
 36.583984375 -5 17.4306640625 13.84375 5 27.830078125 c 1
 21.4228515625 44.2529296875 l 1
 29.5068359375 34.2236328125 42.9140625 17.861328125 75.9482421875 17.861328125 c 0
 108.982421875 17.861328125 123 37 124 60 c 2
 124 184 l 1
 147 184 l 1
 147 60 l 2
EndSplineSet
Substitution2: "'c2sc' Capitals to Small Capitals in Latin lookup 0 subtable" j.sc
Substitution2: "'dnom' Denominators lookup 0 subtable" J.denominator
Substitution2: "'numr' Numerators lookup 0 subtable" J.numerator
Substitution2: "'subs' Subscript in Latin lookup 0 subtable" J.subscript
Substitution2: "'c2sc' Capitals to Small Capitals in Latin lookup 0 subtable" j.sc
Substitution2: "'sups' Superscript in Latin lookup 0 subtable" J.superior
EndChar

StartChar: f
Encoding: 102 102 19
Width: 135
Flags: W
HStem: 0 21G<32.8896 56> 92 23<7 101> 161.139 22.8613<65.8107 103.771>
VStem: 32.8896 23.1104<0.584961 150.037>
LayerCount: 2
Fore
SplineSet
82.0517578125 161.138671875 m 0
 66.400390625 161.138671875 56.3134765625 151.508789062 56 127 c 1
 56 0 l 1
 32.8896484375 0.5849609375 l 1
 32.8896484375 126.584960938 l 1
 32.8896484375 164.115234375 54.4697265625 184 82 184 c 0
 102.416015625 184 120.569335938 175.15625 133 161.169921875 c 1
 116.577148438 144.747070312 l 17
 108.493164062 154.776367188 96.0859375 161.138671875 82.0517578125 161.138671875 c 0
7 115 m 1
 101 115 l 1
 101 92 l 1
 7 92 l 1
 7 115 l 1
EndSplineSet
Substitution2: "'smcp' Lowercase to Small Capitals in Latin lookup 0 subtable" f.sc
Substitution2: "'dnom' Denominators lookup 0 subtable" f.denominator
Substitution2: "'numr' Numerators lookup 0 subtable" f.numerator
Substitution2: "'subs' Subscript in Latin lookup 0 subtable" f.subscript
Substitution2: "'smcp' Lowercase to Small Capitals in Latin lookup 0 subtable" f.sc
Substitution2: "'sups' Superscript in Latin lookup 0 subtable" f.superior
EndChar

StartChar: g
Encoding: 103 103 20
Width: 166
Flags: W
HStem: -64.4004 22.8613<48.2427 102.779> -5 23.4062<58.4702 101.491> 104.6 20G<125 148> 106.969 22.8613<58.4702 101.491>
VStem: 11.8896 23.4238<41.8753 84.0168> 125 23<-19.7061 0.599609 62.415 124.6>
LayerCount: 2
Fore
SplineSet
6.1201171875 -31.4501953125 m 1025xcc
22.4228515625 -15.1474609375 m 1025
148 0.599609375 m 6
 148 -42.400390625 116.3125 -64.400390625 76.896484375 -64.400390625 c 4
 37.583984375 -64.400390625 18.4306640625 -45.556640625 6 -31.5703125 c 5
 22.4228515625 -15.1474609375 l 5
 30.5068359375 -25.1767578125 43.9140625 -41.5390625 76.9482421875 -41.5390625 c 4
 109.982421875 -41.5390625 124 -22.400390625 125 0.599609375 c 6
 125 124.599609375 l 5
 148 124.599609375 l 5xec
 148 0.599609375 l 6
35.3134765625 62.6875 m 0
 35.3134765625 38.03515625 55.400390625 18.40625 80.0517578125 18.40625 c 0
 104.703125 18.40625 124.333007812 38.03515625 124.333007812 62.6875 c 0
 124.333007812 87.3388671875 104.703125 106.96875 80.0517578125 106.96875 c 0xdc
 55.400390625 106.96875 35.3134765625 87.3388671875 35.3134765625 62.6875 c 0
11.8896484375 62.4150390625 m 0
 11.8896484375 99.9453125 42.4697265625 129.830078125 80 129.830078125 c 0
 117.530273438 129.830078125 147.415039062 99.9453125 147.415039062 62.4150390625 c 0
 147.415039062 24.884765625 117.530273438 -5 80 -5 c 0
 42.4697265625 -5 11.8896484375 24.884765625 11.8896484375 62.4150390625 c 0
EndSplineSet
Substitution2: "'smcp' Lowercase to Small Capitals in Latin lookup 0 subtable" g.sc
Substitution2: "'dnom' Denominators lookup 0 subtable" g.denominator
Substitution2: "'numr' Numerators lookup 0 subtable" g.numerator
Substitution2: "'subs' Subscript in Latin lookup 0 subtable" g.subscript
Substitution2: "'smcp' Lowercase to Small Capitals in Latin lookup 0 subtable" g.sc
Substitution2: "'sups' Superscript in Latin lookup 0 subtable" g.superior
EndChar

StartChar: h
Encoding: 104 104 21
Width: 168
Flags: W
HStem: 0 21G<19 42 131 154> 106.969 22.8613<65.4659 108.335> 164 20G<19 42>
VStem: 19 23<0 184> 131 23<0 83.9423>
LayerCount: 2
Fore
SplineSet
131 63 m 17
 130.333007812 87.3388671875 111.703125 106.96875 87.0517578125 106.96875 c 4
 62.400390625 106.96875 42.3134765625 87.3388671875 42 63 c 13
 19 62 l 5
 18.8896484375 99.9453125 49.4697265625 129.830078125 87 129.830078125 c 4
 124.530273438 129.830078125 153.415039062 99.9453125 154 62 c 9
 154 0 l 25
 131 0 l 25
 131 63 l 17
19 0 m 1
 19 184 l 1
 42 184 l 1
 42 0 l 1
 19 0 l 1
EndSplineSet
Substitution2: "'smcp' Lowercase to Small Capitals in Latin lookup 0 subtable" h.sc
Substitution2: "'dnom' Denominators lookup 0 subtable" h.denominator
Substitution2: "'numr' Numerators lookup 0 subtable" h.numerator
Substitution2: "'subs' Subscript in Latin lookup 0 subtable" h.subscript
Substitution2: "'smcp' Lowercase to Small Capitals in Latin lookup 0 subtable" h.sc
Substitution2: "'sups' Superscript in Latin lookup 0 subtable" h.superior
EndChar

StartChar: u
Encoding: 117 117 22
Width: 165
Flags: W
HStem: -5 22.8613<58.6655 101.534> -0.169922 21G<125 148> 104.83 20G<13 36 125 148>
VStem: 13 23<40.8878 124.83> 125 23<61.8301 124.83>
LayerCount: 2
Fore
SplineSet
36 61.830078125 m 21xb8
 36.6669921875 37.4912109375 55.296875 17.861328125 79.9482421875 17.861328125 c 4
 104.599609375 17.861328125 124.686523438 37.4912109375 125 61.830078125 c 13
 148 62.830078125 l 5
 148.110351562 24.884765625 117.530273438 -5 80 -5 c 4
 42.4697265625 -5 13.5849609375 24.884765625 13 62.830078125 c 13
 13 124.830078125 l 29
 36 124.830078125 l 29
 36 61.830078125 l 21xb8
148 124.830078125 m 1
 148 -0.169921875 l 1
 125 -0.169921875 l 1x78
 125 124.830078125 l 1
 148 124.830078125 l 1
EndSplineSet
Substitution2: "'smcp' Lowercase to Small Capitals in Latin lookup 0 subtable" u.sc
Substitution2: "'dnom' Denominators lookup 0 subtable" u.denominator
Substitution2: "'numr' Numerators lookup 0 subtable" u.numerator
Substitution2: "'unic' Unicase in Latin lookup 8-1" u.unic
Substitution2: "'subs' Subscript in Latin lookup 0 subtable" u.subscript
Substitution2: "'smcp' Lowercase to Small Capitals in Latin lookup 0 subtable" u.sc
Substitution2: "'sups' Superscript in Latin lookup 0 subtable" u.superior
EndChar

StartChar: r
Encoding: 114 114 23
Width: 143
Flags: W
HStem: 0 21G<17 40> 105 20G<17 40> 106.969 22.8613<63.4659 106.771>
VStem: 17 23<0 125>
LayerCount: 2
Fore
SplineSet
85.0517578125 106.96875 m 4xb0
 60.400390625 106.96875 40.3134765625 87.3388671875 40 63 c 13
 17 62 l 5
 16.8896484375 99.9453125 47.4697265625 129.830078125 85 129.830078125 c 4
 105.416015625 129.830078125 123.569335938 120.986328125 136 107 c 5
 119.577148438 90.5771484375 l 21
 111.493164062 100.606445312 99.0859375 106.96875 85.0517578125 106.96875 c 4xb0
119.577148438 90.5771484375 m 1025
135.879882812 106.879882812 m 1025
17 0 m 1
 17 125 l 1
 40 125 l 1xd0
 40 0 l 1
 17 0 l 1
EndSplineSet
Substitution2: "'smcp' Lowercase to Small Capitals in Latin lookup 0 subtable" r.sc
Substitution2: "'dnom' Denominators lookup 0 subtable" r.denominator
Substitution2: "'numr' Numerators lookup 0 subtable" r.numerator
Substitution2: "'subs' Subscript in Latin lookup 0 subtable" r.subscript
Substitution2: "'smcp' Lowercase to Small Capitals in Latin lookup 0 subtable" r.sc
Substitution2: "'sups' Superscript in Latin lookup 0 subtable" r.superior
EndChar

StartChar: t
Encoding: 116 116 24
Width: 137
Flags: W
HStem: 1 21.8613<77.0912 93>
VStem: 43.8896 23.1104<34.1023 57.415>
LayerCount: 2
Fore
SplineSet
82.0517578125 22.861328125 m 4
 96.0859375 22.861328125 108.493164062 29.2236328125 116.577148438 39.2529296875 c 13
 133 22.830078125 l 5
 120.569335938 8.84375 102.416015625 0 82 0 c 4
 54.4697265625 0 32.8896484375 19.884765625 32.8896484375 57.4150390625 c 5
 32.8896484375 183.415039062 l 5
 56 184 l 5
 56 57 l 5
 56.3134765625 32.4912109375 66.400390625 22.861328125 82.0517578125 22.861328125 c 4
7 101 m 5
 7 124 l 5
 101 124 l 5
 101 101 l 5
 7 101 l 5
EndSplineSet
Substitution2: "'smcp' Lowercase to Small Capitals in Latin lookup 0 subtable" t.sc
Substitution2: "'dnom' Denominators lookup 0 subtable" t.denominator
Substitution2: "'numr' Numerators lookup 0 subtable" t.numerator
Substitution2: "'subs' Subscript in Latin lookup 0 subtable" t.subscript
Substitution2: "'smcp' Lowercase to Small Capitals in Latin lookup 0 subtable" t.sc
Substitution2: "'sups' Superscript in Latin lookup 0 subtable" t.superior
EndChar

StartChar: D
Encoding: 68 68 25
Width: 167
Flags: W
HStem: 0 22<40 96.7243> 162.108 21.8916<40.0312 96.7375>
VStem: 19 21<22 162.108> 133.866 22.1338<60.9482 123.319>
LayerCount: 2
Fore
SplineSet
69.03125 162.108398438 m 1
 40.03125 162.108398438 l 1
 40 22 l 1
 69 22 l 1
 110.692382812 22.4365234375 133.866210938 50.6103515625 133.866210938 92.2724609375 c 4
 133.866210938 133.932617188 110.692382812 162.108398438 69.03125 162.108398438 c 1
69 184 m 1
 123 184 156 146 156 92 c 4
 156 38 123 0 69 0 c 1
 19 0 l 1
 19 184 l 1
 69 184 l 1
EndSplineSet
Substitution2: "'c2sc' Capitals to Small Capitals in Latin lookup 0 subtable" d.sc
Substitution2: "'dnom' Denominators lookup 0 subtable" D.denominator
Substitution2: "'numr' Numerators lookup 0 subtable" D.numerator
Substitution2: "'subs' Subscript in Latin lookup 0 subtable" D.subscript
Substitution2: "'c2sc' Capitals to Small Capitals in Latin lookup 0 subtable" d.sc
Substitution2: "'sups' Superscript in Latin lookup 0 subtable" D.superior
EndChar

StartChar: P
Encoding: 80 80 26
Width: 136
Flags: W
HStem: 0 21G<19 42> 90 22<42 95.5405> 162.108 21.8916<42.0312 94.1955>
VStem: 19 23<0 90 112 162.108> 105.866 22.1338<121.546 151.32>
LayerCount: 2
Fore
SplineSet
71.03125 162.108398438 m 2
 42.03125 162.108398438 l 1
 42 112 l 1
 71 112 l 2
 92.6923828125 112.436523438 105.866210938 117.610351562 105.866210938 139.272460938 c 0
 105.866210938 150.932617188 92.6923828125 162.108398438 71.03125 162.108398438 c 2
19 0 m 1
 19 184 l 1
 71 184 l 2
 104.913085938 184 128 163 128 139 c 0
 128 105 105 90 71 90 c 2
 42 90 l 1
 42 0 l 1
 19 0 l 1
EndSplineSet
Substitution2: "'c2sc' Capitals to Small Capitals in Latin lookup 0 subtable" p.sc
Substitution2: "'dnom' Denominators lookup 0 subtable" P.denominator
Substitution2: "'numr' Numerators lookup 0 subtable" P.numerator
Substitution2: "'subs' Subscript in Latin lookup 0 subtable" P.subscript
Substitution2: "'c2sc' Capitals to Small Capitals in Latin lookup 0 subtable" p.sc
Substitution2: "'sups' Superscript in Latin lookup 0 subtable" P.superior
EndChar

StartChar: R
Encoding: 82 82 27
Width: 144
Flags: W
HStem: 0 21G<19 42 102.531 139> 90 22<42 50 71 95.5405> 90 8<50 73> 162.108 21.8916<42.0312 94.1955>
VStem: 19 23<0 90 112 162.108> 105.866 22.1338<121.546 151.32>
LayerCount: 2
Fore
SplineSet
116 0 m 1xbc
 50 98 l 5
 73 98 l 5
 139 0 l 1
 116 0 l 1xbc
71.03125 162.108398438 m 2
 42.03125 162.108398438 l 1
 42 112 l 1
 71 112 l 2xdc
 92.6923828125 112.436523438 105.866210938 117.610351562 105.866210938 139.272460938 c 0
 105.866210938 150.932617188 92.6923828125 162.108398438 71.03125 162.108398438 c 2
19 0 m 1
 19 184 l 1
 71 184 l 2
 104.913085938 184 128 163 128 139 c 0
 128 105 105 90 71 90 c 2
 42 90 l 1
 42 0 l 1
 19 0 l 1
EndSplineSet
Substitution2: "'c2sc' Capitals to Small Capitals in Latin lookup 0 subtable" r.sc
Substitution2: "'dnom' Denominators lookup 0 subtable" R.denominator
Substitution2: "'numr' Numerators lookup 0 subtable" R.numerator
Substitution2: "'subs' Subscript in Latin lookup 0 subtable" R.subscript
Substitution2: "'c2sc' Capitals to Small Capitals in Latin lookup 0 subtable" r.sc
Substitution2: "'sups' Superscript in Latin lookup 0 subtable" R.superior
EndChar

StartChar: S
Encoding: 83 83 28
Width: 140
Flags: W
HStem: -6.83008 22.8613<45.1971 94.9727> 166.969 22.8613<50.4783 97.5693>
VStem: 11.001 23.4238<117.422 152.131> 107.798 23.4238<29.017 65.9237>
LayerCount: 2
Fore
SplineSet
28.5341796875 32.4228515625 m 1025
12.2314453125 16.1201171875 m 1025
113.688476562 150.577148438 m 1025
129.991210938 166.879882812 m 1025
73.0595703125 79.96875 m 0
 43.423828125 86.7177734375 10.8203125 96.7666015625 11.0009765625 134.584960938 c 0
 11.1787109375 171.9453125 44.5810546875 189.830078125 72.111328125 189.830078125 c 0
 92.52734375 189.830078125 117.680664062 180.986328125 130.111328125 167 c 1
 113.688476562 150.577148438 l 1
 105.604492188 160.606445312 86.197265625 166.96875 72.1630859375 166.96875 c 0
 57.51171875 166.96875 34.4248046875 159.338867188 34.4248046875 134.3125 c 0
 34.4248046875 109.661132812 54.111328125 107 73.111328125 102.830078125 c 0
 109.768554688 94.78515625 131.221679688 78.9453125 131.221679688 51.4150390625 c 0
 131.221679688 14.0546875 109.641601562 -6.830078125 72.111328125 -6.830078125 c 0
 51.6953125 -6.830078125 24.5419921875 2.013671875 12.111328125 16 c 1
 28.5341796875 32.4228515625 l 1
 36.6181640625 22.3935546875 58.025390625 16.03125 72.0595703125 16.03125 c 0
 96.7109375 16.03125 107.797851562 26.6611328125 107.797851562 51.6875 c 0
 107.797851562 65.3388671875 97.095703125 74.4951171875 73.0595703125 79.96875 c 0
EndSplineSet
Substitution2: "'c2sc' Capitals to Small Capitals in Latin lookup 0 subtable" s.sc
Substitution2: "'dnom' Denominators lookup 0 subtable" S.denominator
Substitution2: "'numr' Numerators lookup 0 subtable" S.numerator
Substitution2: "'subs' Subscript in Latin lookup 0 subtable" S.subscript
Substitution2: "'c2sc' Capitals to Small Capitals in Latin lookup 0 subtable" s.sc
Substitution2: "'sups' Superscript in Latin lookup 0 subtable" S.superior
EndChar

StartChar: A
Encoding: 65 65 29
Width: 157
Flags: W
HStem: 0 21G<7 36.5217 120.478 150> 63 23<39 112> 164 20G<60.4783 96.5217>
LayerCount: 2
Fore
SplineSet
39 86 m 1
 112 86 l 5
 112 63 l 5
 39 63 l 1
 39 86 l 1
150 0 m 1
 127 0 l 1
 67 184 l 1
 90 184 l 1
 150 0 l 1
7 0 m 1
 67 184 l 1
 90 184 l 1
 30 0 l 1
 7 0 l 1
EndSplineSet
Substitution2: "'c2sc' Capitals to Small Capitals in Latin lookup 0 subtable" a.sc
Substitution2: "'dnom' Denominators lookup 0 subtable" A.denominator
Substitution2: "'numr' Numerators lookup 0 subtable" A.numerator
Substitution2: "'unic' Unicase in Latin lookup 8-1" a.unic
Substitution2: "'subs' Subscript in Latin lookup 0 subtable" A.subscript
Substitution2: "'c2sc' Capitals to Small Capitals in Latin lookup 0 subtable" a.sc
Substitution2: "'sups' Superscript in Latin lookup 0 subtable" A.superior
EndChar

StartChar: B
Encoding: 66 66 30
Width: 147
Flags: W
HStem: 0 22<42 93.8168> 90 22<42.0312 95.9969> 162.108 21.8916<42.0312 94.1955>
VStem: 19 23<22 90 112 162.108> 105.866 22.1338<121.351 151.32> 115.866 22.1338<40.4198 73.9054>
LayerCount: 2
Fore
SplineSet
71.03125 162.108398438 m 2xf8
 42.03125 162.108398438 l 1
 42 112 l 1
 71 112 l 2
 92.6923828125 112.436523438 105.866210938 117.610351562 105.866210938 139.272460938 c 0
 105.866210938 150.932617188 92.6923828125 162.108398438 71.03125 162.108398438 c 2xf8
42 0 m 1
 19 0 l 1
 19 184 l 1
 71 184 l 2
 104.913085938 184 128 163 128 139 c 0xf8
 128 121.5625 121.950195312 109.123046875 111.470703125 101.141601562 c 1
 127.1328125 91.701171875 138 76.4853515625 138 57 c 0xf4
 138 23 105 0 71 0 c 2
 42 0 l 1
42 22 m 1
 71 22 l 2
 92.6923828125 22.4365234375 115.866210938 35.6103515625 115.866210938 57.2724609375 c 0xf4
 115.866210938 77.9501953125 94.7470703125 89.072265625 73.986328125 90.0390625 c 0
 73.0009765625 90.0126953125 72.0048828125 90 71 90 c 2
 42.03125 90 l 1
 42 22 l 1
EndSplineSet
Substitution2: "'c2sc' Capitals to Small Capitals in Latin lookup 0 subtable" b.sc
Substitution2: "'dnom' Denominators lookup 0 subtable" B.denominator
Substitution2: "'numr' Numerators lookup 0 subtable" B.numerator
Substitution2: "'subs' Subscript in Latin lookup 0 subtable" B.subscript
Substitution2: "'c2sc' Capitals to Small Capitals in Latin lookup 0 subtable" b.sc
Substitution2: "'sups' Superscript in Latin lookup 0 subtable" B.superior
EndChar

StartChar: K
Encoding: 75 75 31
Width: 170
Flags: W
HStem: 0 21G<19 42 122.528 162> 103.816 20G<63.9277 97.1979> 164 20G<19 42 111 163>
VStem: 19 23<0 61.7363 78 184>
LayerCount: 2
Fore
SplineSet
135 0 m 5
 63.927734375 113.970703125 l 1
 84.7138671875 123.81640625 l 1
 162 0 l 1
 135 0 l 5
25 78 m 1
 131 184 l 1
 163 183.807617188 l 1
 41.263671875 61.736328125 l 1
 25 78 l 1
19 0 m 1
 19 184 l 1
 42 184 l 1
 42 0 l 1
 19 0 l 1
EndSplineSet
Substitution2: "'c2sc' Capitals to Small Capitals in Latin lookup 0 subtable" k.sc
Substitution2: "'dnom' Denominators lookup 0 subtable" K.denominator
Substitution2: "'numr' Numerators lookup 0 subtable" K.numerator
Substitution2: "'subs' Subscript in Latin lookup 0 subtable" K.subscript
Substitution2: "'c2sc' Capitals to Small Capitals in Latin lookup 0 subtable" k.sc
Substitution2: "'sups' Superscript in Latin lookup 0 subtable" K.superior
EndChar

StartChar: s
Encoding: 115 115 32
Width: 123
Flags: W
HStem: -6.83008 22.8613<42.2133 85.8558> 104.969 22.8613<39.0079 82.7223>
VStem: 12.001 23.4238<81.5019 100.477> 88.7979 23.4238<19.3064 43.0166>
LayerCount: 2
Fore
SplineSet
29.5341796875 32.4228515625 m 1025
13.2314453125 16.1201171875 m 1025
94.6884765625 88.5771484375 m 1025
110.991210938 104.879882812 m 1025
64.0595703125 51.96875 m 0
 45.25390625 56.6181640625 11.7646484375 62.7666015625 12.0009765625 89.5849609375 c 0
 12.251953125 117.9453125 35.5810546875 127.830078125 63.111328125 127.830078125 c 0
 83.52734375 127.830078125 98.6806640625 118.986328125 111.111328125 105 c 1
 94.6884765625 88.5771484375 l 1
 86.6044921875 98.6064453125 77.197265625 104.96875 63.1630859375 104.96875 c 0
 48.51171875 104.96875 35.4248046875 104.338867188 35.4248046875 89.3125 c 0
 35.4248046875 81.6611328125 45.04296875 78.673828125 64.111328125 74.830078125 c 0
 83.111328125 71 112.221679688 61.9453125 112.221679688 29.4150390625 c 4
 112.221679688 3.0546875 90.6416015625 -6.830078125 63.111328125 -6.830078125 c 0
 42.6953125 -6.830078125 25.5419921875 2.013671875 13.111328125 16 c 1
 29.5341796875 32.4228515625 l 1
 37.6181640625 22.3935546875 49.025390625 16.03125 63.0595703125 16.03125 c 0
 77.7109375 16.03125 88.7978515625 17.6611328125 88.7978515625 29.6875 c 0
 88.7978515625 41.3388671875 80.111328125 48 64.0595703125 51.96875 c 0
EndSplineSet
Substitution2: "'smcp' Lowercase to Small Capitals in Latin lookup 0 subtable" s.sc
Substitution2: "'dnom' Denominators lookup 0 subtable" s.denominator
Substitution2: "'numr' Numerators lookup 0 subtable" s.numerator
Substitution2: "'subs' Subscript in Latin lookup 0 subtable" s.subscript
Substitution2: "'smcp' Lowercase to Small Capitals in Latin lookup 0 subtable" s.sc
Substitution2: "'sups' Superscript in Latin lookup 0 subtable" s.superior
EndChar

StartChar: a
Encoding: 97 97 33
Width: 143
Flags: HW
HStem: -4.86133 22.8613<40.59 93.5334> 0 21G<104.11 127.11> 56.9375 22.8613<41.6385 110.11> 106.938 22.8613<47.1908 95.9062>
VStem: 10 23.4238<24.7461 49.5355> 104.11 23<28.1201 57 80 99.0007>
LayerCount: 2
Fore
SplineSet
126.990234375 28.1201171875 m 5xbc
 116.110351562 4 90.4744183797 -4.77301792951 70.05859375 -4.861328125 c 4
 38 -5 10 13 10 38.5849609375 c 4
 10 61 40 80 70.05859375 79.798828125 c 4
 110.110351562 80 l 5
 110.110351562 57 l 5
 70.1103515625 56.9375 l 4
 53 57 33.423828125 50.3388671875 33.423828125 38.3125 c 4
 33.423828125 22.6611328125 53 18 70.1103515625 18 c 4
 84.14453125 18 104.110351562 23 110.6875 44.5771484375 c 5
 126.990234375 28.1201171875 l 5xbc
18.23046875 106.879882812 m 1025
34.533203125 90.5771484375 m 1025
127.110351562 83 m 2
 127.110351562 0 l 1
 104.110351562 0 l 1x7c
 104.110351562 83 l 2
 104.110351562 98.3388671875 97.658203125 106.9375 73.0068359375 106.9375 c 0
 51.97265625 106.9375 42.6171875 100.606445312 34.533203125 90.5771484375 c 1
 18.1103515625 107 l 1
 30.541015625 120.986328125 42.1103515625 130 73.05859375 129.798828125 c 0
 110.257681323 129.557024078 127.110351562 111.46875 127.110351562 83 c 2
EndSplineSet
Substitution2: "'smcp' Lowercase to Small Capitals in Latin lookup 0 subtable" a.sc
Substitution2: "'dnom' Denominators lookup 0 subtable" a.denominator
Substitution2: "'numr' Numerators lookup 0 subtable" a.numerator
Substitution2: "'unic' Unicase in Latin lookup 8-1" a.unic
Substitution2: "'subs' Subscript in Latin lookup 0 subtable" a.subscript
Substitution2: "'smcp' Lowercase to Small Capitals in Latin lookup 0 subtable" a.sc
Substitution2: "'sups' Superscript in Latin lookup 0 subtable" a.superior
EndChar

StartChar: U
Encoding: 85 85 34
Width: 173
Flags: W
HStem: -5 22.8613<61.2208 112.842> 164 20G<16 39 135 158>
VStem: 16 23<39.6943 184> 135 23<39.6943 184>
LayerCount: 2
Fore
SplineSet
87.103515625 -5 m 4
 47.6875 -5 16 17 16 60 c 6
 16 184 l 5
 39 184 l 5
 39 60 l 6
 40 37 54.017578125 17.861328125 87.0517578125 17.861328125 c 4
 119.982421875 17.861328125 134 37 135 60 c 6
 135 184 l 5
 158 184 l 5
 158 60 l 6
 158 17 126.3125 -5 87.103515625 -5 c 4
EndSplineSet
Substitution2: "'c2sc' Capitals to Small Capitals in Latin lookup 0 subtable" u.sc
Substitution2: "'dnom' Denominators lookup 0 subtable" U.denominator
Substitution2: "'numr' Numerators lookup 0 subtable" U.numerator
Substitution2: "'unic' Unicase in Latin lookup 8-1" u.unic
Substitution2: "'subs' Subscript in Latin lookup 0 subtable" U.subscript
Substitution2: "'c2sc' Capitals to Small Capitals in Latin lookup 0 subtable" u.sc
Substitution2: "'sups' Superscript in Latin lookup 0 subtable" U.superior
EndChar

StartChar: breve
Encoding: 728 728 35
Width: 146
Flags: W
HStem: 140 22.8613<49.984 99.7666>
LayerCount: 2
Fore
SplineSet
30.302734375 184.407226562 m 1025
14 167.950195312 m 1025
74.8798828125 140 m 4
 104.295898438 140 123.44921875 153.84375 135.759765625 167.950195312 c 1
 119.45703125 184.407226562 l 1
 111.373046875 174.223632812 97.9658203125 162.861328125 74.828125 162.861328125 c 4
 51.7939453125 162.861328125 38.38671875 174.223632812 30.302734375 184.407226562 c 1
 14 167.950195312 l 1
 26.310546875 153.84375 45.4638671875 140 74.8798828125 140 c 4
119.45703125 184.407226562 m 1025
135.759765625 167.950195312 m 1025
EndSplineSet
Substitution2: "'case' Case-Sensitive Forms in Latin lookup 12-1" NameMe.492
EndChar

StartChar: dotaccent
Encoding: 729 729 36
Width: 55
Flags: W
HStem: 161 23<18 41>
VStem: 18 23<161 184>
LayerCount: 2
Fore
SplineSet
18 161 m 5
 18 184 l 1
 41 184 l 1
 41 161 l 5
 18 161 l 5
EndSplineSet
EndChar

StartChar: ring
Encoding: 730 730 37
Width: 88
Flags: W
HStem: 126 12<32.4546 59.5454> 178 12<32.4546 59.5454>
VStem: 14 12<144.455 171.545> 66 12<144.455 171.545>
LayerCount: 2
Fore
SplineSet
26 158 m 4
 26 147 35 138 46 138 c 4
 57 138 66 147 66 158 c 4
 66 169 57 178 46 178 c 4
 35 178 26 169 26 158 c 4
14 158 m 4
 14 176 28 190 46 190 c 4
 64 190 78 176 78 158 c 4
 78 140 64 126 46 126 c 4
 28 126 14 140 14 158 c 4
EndSplineSet
Substitution2: "'case' Case-Sensitive Forms in Latin lookup 12-1" NameMe.494
EndChar

StartChar: dotlessi
Encoding: 305 305 38
Width: 58
Flags: W
HStem: 0 21G<17 40> 104 20G<17 40>
VStem: 17 23<0 124>
LayerCount: 2
Fore
SplineSet
17 0 m 1
 17 124 l 1
 40 124 l 1
 40 0 l 1
 17 0 l 1
EndSplineSet
Substitution2: "'sups' Superscript in Latin lookup 0 subtable" dotlessi.superior
EndChar

StartChar: i
Encoding: 105 105 39
Width: 60
Flags: W
HStem: 0 21G<19 42> 104 20G<19 42> 161 23<19 42>
VStem: 19 23<0 124 161 184>
LayerCount: 2
Fore
SplineSet
19 161 m 5
 19 184 l 5
 42 184 l 5
 42 161 l 5
 19 161 l 5
19 0 m 1
 19 124 l 1
 42 124 l 1
 42 0 l 1
 19 0 l 1
EndSplineSet
Substitution2: "'smcp' Lowercase to Small Capitals in Latin lookup 0 subtable" i.sc
Substitution2: "'dnom' Denominators lookup 0 subtable" i.denominator
Substitution2: "'numr' Numerators lookup 0 subtable" i.numerator
Substitution2: "'subs' Subscript in Latin lookup 0 subtable" i.subscript
Substitution2: "'smcp' Lowercase to Small Capitals in Latin lookup 0 subtable" i.sc
Substitution2: "'sups' Superscript in Latin lookup 0 subtable" i.superior
EndChar

StartChar: j
Encoding: 106 106 40
Width: 59
Flags: W
HStem: -59.415 22.8613<-30.7706 7.18934> 104.585 20G<17 40.1104> 161 23<17.1104 40.1104>
VStem: 17 23.1104<-25.4518 124 161 184>
LayerCount: 2
Fore
SplineSet
-9.0517578125 -36.5537109375 m 4
 6.599609375 -36.5537109375 16.6865234375 -26.923828125 17 -2.4150390625 c 6
 17 124.584960938 l 5
 40.1103515625 124 l 5
 40.1103515625 0 l 5
 40.1103515625 -2 l 6
 40.1103515625 -39.5302734375 18.5302734375 -59.4150390625 -9 -59.4150390625 c 4
 -29.416015625 -59.4150390625 -47.5693359375 -50.5712890625 -60 -36.5849609375 c 5
 -43.5771484375 -20.162109375 l 5
 -35.4931640625 -30.19140625 -23.0859375 -36.5537109375 -9.0517578125 -36.5537109375 c 4
17.1103515625 161 m 1
 17.1103515625 184 l 1
 40.1103515625 184 l 1
 40.1103515625 161 l 1
 17.1103515625 161 l 1
EndSplineSet
Substitution2: "'smcp' Lowercase to Small Capitals in Latin lookup 0 subtable" j.sc
Substitution2: "'dnom' Denominators lookup 0 subtable" j.denominator
Substitution2: "'numr' Numerators lookup 0 subtable" j.numerator
Substitution2: "'subs' Subscript in Latin lookup 0 subtable" j.subscript
Substitution2: "'smcp' Lowercase to Small Capitals in Latin lookup 0 subtable" j.sc
Substitution2: "'sups' Superscript in Latin lookup 0 subtable" j.superior
EndChar

StartChar: k
Encoding: 107 107 41
Width: 132
Flags: W
HStem: 0 21G<19 42 79.72 123> 104.6 20G<71.1801 123> 164 20G<19 42>
VStem: 19 23<0 41.7363 58 184>
LayerCount: 2
Fore
SplineSet
96 0 m 1
 43.927734375 63.970703125 l 5
 64.7138671875 73.81640625 l 5
 123 0 l 1
 96 0 l 1
25 58 m 5
 91 124.599609375 l 1
 123 124.407226562 l 1
 41.263671875 41.736328125 l 5
 25 58 l 5
19 0 m 1
 19 184 l 1
 42 184 l 1
 42 0 l 1
 19 0 l 1
EndSplineSet
Substitution2: "'smcp' Lowercase to Small Capitals in Latin lookup 0 subtable" k.sc
Substitution2: "'dnom' Denominators lookup 0 subtable" k.denominator
Substitution2: "'numr' Numerators lookup 0 subtable" k.numerator
Substitution2: "'subs' Subscript in Latin lookup 0 subtable" k.subscript
Substitution2: "'smcp' Lowercase to Small Capitals in Latin lookup 0 subtable" k.sc
Substitution2: "'sups' Superscript in Latin lookup 0 subtable" k.superior
EndChar

StartChar: l
Encoding: 108 108 42
Width: 61
Flags: W
HStem: 0 21G<19 42> 164 20G<19 42>
VStem: 19 23<0 184>
LayerCount: 2
Fore
SplineSet
19 0 m 1
 19 184 l 5
 42 184 l 5
 42 0 l 1
 19 0 l 1
EndSplineSet
Substitution2: "'smcp' Lowercase to Small Capitals in Latin lookup 0 subtable" l.sc
Substitution2: "'dnom' Denominators lookup 0 subtable" l.denominator
Substitution2: "'numr' Numerators lookup 0 subtable" l.numerator
Substitution2: "'subs' Subscript in Latin lookup 0 subtable" l.subscript
Substitution2: "'smcp' Lowercase to Small Capitals in Latin lookup 0 subtable" l.sc
Substitution2: "'sups' Superscript in Latin lookup 0 subtable" l.superior
EndChar

StartChar: V
Encoding: 86 86 43
Width: 150
Flags: W
HStem: 0 21G<57.4783 93.5217> 164 20G<4 33.5217 117.478 147>
LayerCount: 2
Fore
SplineSet
147 184 m 1
 87 0 l 1
 64 0 l 1
 124 184 l 1
 147 184 l 1
4 184 m 1
 27 184 l 1
 87 0 l 1
 64 0 l 1
 4 184 l 1
EndSplineSet
Substitution2: "'c2sc' Capitals to Small Capitals in Latin lookup 0 subtable" v.sc
Substitution2: "'dnom' Denominators lookup 0 subtable" V.denominator
Substitution2: "'numr' Numerators lookup 0 subtable" V.numerator
Substitution2: "'subs' Subscript in Latin lookup 0 subtable" V.subscript
Substitution2: "'c2sc' Capitals to Small Capitals in Latin lookup 0 subtable" v.sc
Substitution2: "'sups' Superscript in Latin lookup 0 subtable" V.superior
EndChar

StartChar: W
Encoding: 87 87 44
Width: 232
Flags: W
HStem: 0 20.8076G<45.1087 78.9459 154.054 187.891> 163.808 20.1924G<5 32.8913 99.0541 133.946 200.109 228>
LayerCount: 2
Fore
SplineSet
228 183.807617188 m 1
 183 -0.1923828125 l 1
 160 -0.1923828125 l 1
 205 183.807617188 l 1
 228 183.807617188 l 1
105 184.807617188 m 5
 128 184.807617188 l 5
 183 -0.1923828125 l 1
 160 -0.1923828125 l 1
 105 184.807617188 l 5
128 185 m 5
 73 0 l 1
 50 0 l 1
 105 185 l 5
 128 185 l 5
5 184 m 1
 28 184 l 1
 73 0 l 1
 50 0 l 1
 5 184 l 1
EndSplineSet
Substitution2: "'c2sc' Capitals to Small Capitals in Latin lookup 0 subtable" w.sc
Substitution2: "'dnom' Denominators lookup 0 subtable" W.denominator
Substitution2: "'numr' Numerators lookup 0 subtable" W.numerator
Substitution2: "'subs' Subscript in Latin lookup 0 subtable" W.subscript
Substitution2: "'c2sc' Capitals to Small Capitals in Latin lookup 0 subtable" w.sc
Substitution2: "'sups' Superscript in Latin lookup 0 subtable" W.superior
EndChar

StartChar: M
Encoding: 77 77 45
Width: 241
Flags: W
HStem: -0.192383 21.1924G<19 42 99.1639 141.846 199 222> 163.808 20G<19 51.8361 189.154 222>
VStem: 19 23<-0.192383 183.808> 199 23<0 183.808>
LayerCount: 2
Fore
SplineSet
222 0 m 1
 199 0 l 1
 199 183.807617188 l 5
 222 183.807617188 l 5
 222 0 l 1
109 1 m 1
 199 183.807617188 l 5
 222 183.807617188 l 5
 132 1 l 1
 109 1 l 1
132 0.8076171875 m 1
 109 0.8076171875 l 1
 19 183.807617188 l 1
 42 183.807617188 l 1
 132 0.8076171875 l 1
19 -0.1923828125 m 1
 19 183.807617188 l 1
 42 183.807617188 l 1
 42 -0.1923828125 l 1
 19 -0.1923828125 l 1
EndSplineSet
Substitution2: "'c2sc' Capitals to Small Capitals in Latin lookup 0 subtable" m.sc
Substitution2: "'dnom' Denominators lookup 0 subtable" M.denominator
Substitution2: "'numr' Numerators lookup 0 subtable" M.numerator
Substitution2: "'unic' Unicase in Latin lookup 8-1" m.unic
Substitution2: "'subs' Subscript in Latin lookup 0 subtable" M.subscript
Substitution2: "'c2sc' Capitals to Small Capitals in Latin lookup 0 subtable" m.sc
Substitution2: "'sups' Superscript in Latin lookup 0 subtable" M.superior
EndChar

StartChar: N
Encoding: 78 78 46
Width: 191
Flags: W
HStem: 0 21G<19 42 134.855 172> 163.808 20G<19 56.1452 149 172>
VStem: 19 23<0 183.808> 149 23<0 183.808>
LayerCount: 2
Fore
SplineSet
172 0 m 5
 149 0 l 5
 149 183.807617188 l 1
 172 183.807617188 l 1
 172 0 l 5
172 0 m 5
 149 0 l 5
 19 183.807617188 l 1
 42 183.807617188 l 1
 172 0 l 5
19 0 m 1
 19 183.807617188 l 1
 42 183.807617188 l 1
 42 0 l 1
 19 0 l 1
EndSplineSet
Substitution2: "'c2sc' Capitals to Small Capitals in Latin lookup 0 subtable" n.sc
Substitution2: "'dnom' Denominators lookup 0 subtable" N.denominator
Substitution2: "'numr' Numerators lookup 0 subtable" N.numerator
Substitution2: "'unic' Unicase in Latin lookup 8-1" n.unic
Substitution2: "'subs' Subscript in Latin lookup 0 subtable" N.subscript
Substitution2: "'c2sc' Capitals to Small Capitals in Latin lookup 0 subtable" n.sc
Substitution2: "'sups' Superscript in Latin lookup 0 subtable" N.superior
EndChar

StartChar: grave
Encoding: 96 96 47
Width: 75
Flags: W
HStem: 141 43
VStem: 13 53
LayerCount: 2
Fore
SplineSet
53 141 m 5
 13 184 l 1
 36 184 l 1
 66 141 l 1
 53 141 l 5
EndSplineSet
Substitution2: "'case' Case-Sensitive Forms in Latin lookup 12-1" NameMe.486
EndChar

StartChar: acute
Encoding: 180 180 48
Width: 73
Flags: W
HStem: 141 43
VStem: 11 53
LayerCount: 2
Fore
SplineSet
11 141 m 1
 41 184 l 1
 64 184 l 1
 24 141 l 5
 11 141 l 1
EndSplineSet
Substitution2: "'case' Case-Sensitive Forms in Latin lookup 12-1" NameMe.487
EndChar

StartChar: dieresis
Encoding: 168 168 66
Width: 95
Flags: W
HStem: 161 23<18 41 58 81>
VStem: 18 23<161 184> 58 23<161 184>
LayerCount: 2
Fore
SplineSet
58 161 m 5
 58 184 l 5
 81 184 l 5
 81 161 l 5
 58 161 l 5
18 161 m 1
 18 184 l 1
 41 184 l 1
 41 161 l 1
 18 161 l 1
EndSplineSet
EndChar

StartChar: circumflex
Encoding: 710 710 80
Width: 103
Flags: W
HStem: 141 43
VStem: 11 83
LayerCount: 2
Fore
SplineSet
81 141 m 5
 41 184 l 5
 64 184 l 5
 94 141 l 5
 81 141 l 5
11 141 m 1
 41 184 l 1
 64 184 l 1
 24 141 l 1
 11 141 l 1
EndSplineSet
Substitution2: "'case' Case-Sensitive Forms in Latin lookup 12-1" NameMe.489
EndChar

StartChar: tilde
Encoding: 732 732 81
Width: 161
Flags: W
HStem: 140 22.8613<93.626 124.56> 167.139 22.8613<41.8291 67.9221>
LayerCount: 2
Fore
SplineSet
30.302734375 145.592773438 m 1025
14 162.049804688 m 1025
89.759765625 172.049804688 m 1029
73.45703125 155.592773438 m 1029
133.45703125 184.407226562 m 1025
149.759765625 167.950195312 m 1025
109.879882812 140 m 4
 130.295898438 140 143 151 149.759765625 167.950195312 c 5
 133.45703125 184.407226562 l 5
 128 171 123.965820312 162.861328125 109.828125 162.861328125 c 4
 102.793945312 162.861328125 94.9443359375 165.952148438 89.759765625 172.049804688 c 4
 83 180 70.2958984375 190 54.8798828125 190 c 4
 42.4638671875 190 25 183.807617188 14 162.049804688 c 5
 30.302734375 145.592773438 l 5
 37 162 48.7939453125 167.138671875 54.931640625 167.138671875 c 4
 63.9658203125 167.138671875 69.0390625 161.032226562 73.45703125 155.592773438 c 4
 78 150 90.4638671875 140 109.879882812 140 c 4
EndSplineSet
Substitution2: "'case' Case-Sensitive Forms in Latin lookup 12-1" NameMe.490
EndChar

StartChar: OE
Encoding: 338 338 100
Width: 263
Flags: W
HStem: -5 22.4365<80.7812 136.268> 0 23<160 251> 81 23<147 241> 161 23<160 251> 167.108 21.8916<80.7812 136.268>
VStem: 10 22.4238<64.9945 119.278> 137 3<0.706813 24.7002 160 160> 147 13<81 104>
LayerCount: 2
Fore
SplineSet
384 247 m 1049x27
147 104 m 1
 241 104 l 1
 241 81 l 1
 147 81 l 1
 147 104 l 1
137 184 m 1x37
 251 184 l 1
 251 161 l 1
 147 161 l 1
 137 184 l 1x37
147 23 m 1x67
 251 23 l 1
 251 0 l 1
 137 0 l 1
 147 23 l 1x67
137 0 m 1
 137 184 l 1x77
 160 174 l 1
 160 10 l 1
 137 0 l 1
140 24.7001953125 m 13
 140 1 l 5
 130.001953125 -2.13671875 119.239257812 -5 108 -5 c 4
 54 -5 10 38 10 92 c 4
 10 146 54 189 108 189 c 4
 119.239257812 189 130.001953125 187.13671875 140 183.700195312 c 13
 140 160 l 5
 130.331054688 164.592773438 119.502929688 167.108398438 108.03125 167.108398438 c 4
 66.3701171875 167.108398438 32.423828125 133.932617188 32.423828125 92.2724609375 c 4
 32.423828125 50.6103515625 66.3701171875 17.4365234375 108.03125 17.4365234375 c 4xaf
 119.502929688 17.4365234375 130.331054688 19.9521484375 140 24.7001953125 c 13
140 24.466796875 m 1025
EndSplineSet
Substitution2: "'sups' Superscript in Latin lookup 0 subtable" OE.superior
EndChar

StartChar: T
Encoding: 84 84 101
Width: 123
Flags: W
HStem: 0 21G<53 76> 161 23<5 53 76 119>
VStem: 53 23<0 161>
LayerCount: 2
Fore
SplineSet
300 247 m 1049
5 184 m 5
 119 184 l 5
 119 161 l 1
 76 161 l 1
 76 0 l 1
 53 0 l 1
 53 161 l 5
 5 161 l 5
 5 184 l 5
EndSplineSet
Substitution2: "'c2sc' Capitals to Small Capitals in Latin lookup 0 subtable" t.sc
Substitution2: "'dnom' Denominators lookup 0 subtable" T.denominator
Substitution2: "'numr' Numerators lookup 0 subtable" T.numerator
Substitution2: "'subs' Subscript in Latin lookup 0 subtable" T.subscript
Substitution2: "'c2sc' Capitals to Small Capitals in Latin lookup 0 subtable" t.sc
Substitution2: "'sups' Superscript in Latin lookup 0 subtable" T.superior
EndChar

StartChar: v
Encoding: 118 118 102
Width: 135
Flags: W
HStem: 0 21G<48 87> 105 20G<6 37 98 129>
LayerCount: 2
Fore
SplineSet
129 125 m 1
 79 0 l 5
 56 0 l 5
 106 125 l 1
 129 125 l 1
6 125 m 1
 29 125 l 1
 79 0 l 5
 56 0 l 5
 6 125 l 1
EndSplineSet
Substitution2: "'smcp' Lowercase to Small Capitals in Latin lookup 0 subtable" v.sc
Substitution2: "'dnom' Denominators lookup 0 subtable" v.denominator
Substitution2: "'numr' Numerators lookup 0 subtable" v.numerator
Substitution2: "'subs' Subscript in Latin lookup 0 subtable" v.subscript
Substitution2: "'smcp' Lowercase to Small Capitals in Latin lookup 0 subtable" v.sc
Substitution2: "'sups' Superscript in Latin lookup 0 subtable" v.superior
EndChar

StartChar: w
Encoding: 119 119 103
Width: 217
Flags: W
HStem: 0 21G<40.6 78 139 176.4> 105 20G<7 36.4 89 128 180.6 210>
LayerCount: 2
Fore
SplineSet
210 125 m 1
 170 0 l 5
 147 0 l 5
 187 125 l 1
 210 125 l 1
97 125 m 1
 120 125 l 1
 170 0 l 5
 147 0 l 5
 97 125 l 1
120 125 m 1
 70 0 l 5
 47 0 l 5
 97 125 l 1
 120 125 l 1
7 125 m 1
 30 125 l 1
 70 0 l 5
 47 0 l 5
 7 125 l 1
EndSplineSet
Substitution2: "'smcp' Lowercase to Small Capitals in Latin lookup 0 subtable" w.sc
Substitution2: "'dnom' Denominators lookup 0 subtable" w.denominator
Substitution2: "'numr' Numerators lookup 0 subtable" w.numerator
Substitution2: "'subs' Subscript in Latin lookup 0 subtable" w.subscript
Substitution2: "'smcp' Lowercase to Small Capitals in Latin lookup 0 subtable" w.sc
Substitution2: "'sups' Superscript in Latin lookup 0 subtable" w.superior
EndChar

StartChar: Y
Encoding: 89 89 104
Width: 150
Flags: W
HStem: 0 21G<64 87> 164 20G<4 39 112 147>
VStem: 64 23<0 84>
LayerCount: 2
Fore
SplineSet
64 0 m 5
 64 84 l 1
 87 84 l 1
 87 0 l 5
 64 0 l 5
147 184 m 1
 87 84 l 1
 64 84 l 1
 124 184 l 1
 147 184 l 1
4 184 m 1
 27 184 l 1
 87 84 l 1
 64 84 l 1
 4 184 l 1
EndSplineSet
Substitution2: "'c2sc' Capitals to Small Capitals in Latin lookup 0 subtable" y.sc
Substitution2: "'dnom' Denominators lookup 0 subtable" Y.denominator
Substitution2: "'numr' Numerators lookup 0 subtable" Y.numerator
Substitution2: "'subs' Subscript in Latin lookup 0 subtable" Y.subscript
Substitution2: "'c2sc' Capitals to Small Capitals in Latin lookup 0 subtable" y.sc
Substitution2: "'sups' Superscript in Latin lookup 0 subtable" Y.superior
EndChar

StartChar: y
Encoding: 121 121 105
Width: 137
Flags: W
HStem: -59.415 22.8613<7.2555 40.0338> 105 20G<7.11035 38.1104 99.1104 130.11>
LayerCount: 2
Fore
SplineSet
7.1103515625 125 m 1
 30.1103515625 125 l 1
 68.6103515625 28.75 l 1
 107.110351562 125 l 1
 130.110351562 125 l 1
 129.71484375 124.009765625 l 1
 130.110351562 124 l 1
 80.1103515625 0 l 1
 68.1103515625 -37.5302734375 53.5302734375 -59.4150390625 26 -59.4150390625 c 0
 5.583984375 -59.4150390625 -7.5693359375 -50.5712890625 -20 -36.5849609375 c 1
 -3.5771484375 -20.162109375 l 1
 4.5068359375 -30.19140625 11.9140625 -36.5537109375 25.9482421875 -36.5537109375 c 0
 41.599609375 -36.5537109375 48.3671875 -21.99609375 57 -0.4150390625 c 2
 57.166015625 0 l 1
 57.1103515625 0 l 1
 7.1103515625 125 l 1
EndSplineSet
Substitution2: "'smcp' Lowercase to Small Capitals in Latin lookup 0 subtable" y.sc
Substitution2: "'dnom' Denominators lookup 0 subtable" y.denominator
Substitution2: "'numr' Numerators lookup 0 subtable" y.numerator
Substitution2: "'subs' Subscript in Latin lookup 0 subtable" y.subscript
Substitution2: "'smcp' Lowercase to Small Capitals in Latin lookup 0 subtable" y.sc
Substitution2: "'sups' Superscript in Latin lookup 0 subtable" y.superior
EndChar

StartChar: fi
Encoding: 64257 64257 108
Width: 150
Flags: W
HStem: 0 21G<32.8896 56 110 133> 92 23<7 110> 161.139 22.8613<65.8107 103.771>
VStem: 32.8896 23.1104<0.584961 150.037> 110 23<0 92>
LayerCount: 2
Fore
SplineSet
7 115 m 1
 133 115 l 1
 123 92 l 1
 7 92 l 1
 7 115 l 1
82.0517578125 161.138671875 m 0
 66.400390625 161.138671875 56.3134765625 151.508789062 56 127 c 1
 56 0 l 1
 32.8896484375 0.5849609375 l 1
 32.8896484375 126.584960938 l 1
 32.8896484375 164.115234375 54.4697265625 184 82 184 c 0
 102.416015625 184 120.569335938 175.15625 133 161.169921875 c 1
 116.577148438 144.747070312 l 17
 108.493164062 154.776367188 96.0859375 161.138671875 82.0517578125 161.138671875 c 0
110 0 m 1
 110 104 l 1
 133 114 l 1
 133 0 l 1
 110 0 l 1
EndSplineSet
Ligature2: " these ligatures have no aura-1" f i
Ligature2: " these ligatures have no aura-1" f i
EndChar

StartChar: fl
Encoding: 64258 64258 109
Width: 164
Flags: W
HStem: 0 21G<44.8896 68 123 146> 92 23<19 113> 161.139 22.8613<80.2278 118.241>
VStem: 44.8896 23.1104<0.584961 148.572> 123 23<0 145.577 162 163>
LayerCount: 2
Fore
SplineSet
123 0 m 5
 123 163 l 5
 146 163 l 5
 146 0 l 5
 123 0 l 5
98.0517578125 161.138671875 m 0
 82.400390625 161.138671875 68.3134765625 151.508789062 68 127 c 1
 68 0 l 1
 44.8896484375 0.5849609375 l 1
 44.8896484375 126.584960938 l 1
 44.8896484375 164.115234375 70.4697265625 184 98 184 c 0
 118.416015625 184 133.569335938 175.986328125 146 162 c 1
 129.577148438 145.577148438 l 17
 121.493164062 155.606445312 112.0859375 161.138671875 98.0517578125 161.138671875 c 0
19 115 m 1
 113 115 l 1
 113 92 l 1
 19 92 l 1
 19 115 l 1
EndSplineSet
Ligature2: " these ligatures have no aura-1" f l
LCarets2: 1 0
Ligature2: " these ligatures have no aura-1" f l
EndChar

StartChar: macron
Encoding: 175 175 110
Width: 125
Flags: W
HStem: 161 23<18 111>
LayerCount: 2
Fore
SplineSet
18 161 m 1
 18 184 l 1
 111 184 l 5
 111 161 l 5
 18 161 l 1
EndSplineSet
EndChar

StartChar: hungarumlaut
Encoding: 733 733 111
Width: 114
Flags: W
HStem: 141.6 43
LayerCount: 2
Fore
SplineSet
52 141.599609375 m 5
 82 184.599609375 l 5
 105 184.599609375 l 5
 65 141.599609375 l 5
 52 141.599609375 l 5
11 141 m 1
 41 184 l 1
 64 184 l 1
 24 141 l 1
 11 141 l 1
EndSplineSet
Substitution2: "'case' Case-Sensitive Forms in Latin lookup 12-1" NameMe.496
EndChar

StartChar: caron
Encoding: 711 711 112
Width: 105
Flags: W
HStem: 141 43
VStem: 13 83
LayerCount: 2
Fore
SplineSet
26 184 m 5
 66 141 l 5
 43 141 l 5
 13 184 l 5
 26 184 l 5
96 184 m 1
 66 141 l 1
 43 141 l 1
 83 184 l 1
 96 184 l 1
EndSplineSet
Substitution2: "'case' Case-Sensitive Forms in Latin lookup 12-1" NameMe.498
EndChar

StartChar: oe
Encoding: 339 339 113
Width: 268
Flags: W
HStem: -4.72754 22.8613<57.3754 98.812 169.024 211.893> 50.6875 23<133.969 234.554> 63.1025 10.585<234.554 246.554> 107.241 22.8613<57.3754 98.812 169.024 212.04>
VStem: 10 23.4238<41.8753 84.0168> 122.443 23.4238<31.4604 93.9146> 133.969 11.5566<52.0796 72.7505>
LayerCount: 2
Fore
SplineSet
257.96875 62.6875 m 5xbc
 234.553710938 63.1025390625 l 5
 234.88671875 87.611328125 215.256835938 107.241210938 190.60546875 107.241210938 c 4
 165.954101562 107.241210938 145.8671875 87.611328125 145.8671875 62.9599609375 c 4
 145.8671875 37.763671875 165.954101562 18.1337890625 190.60546875 18.1337890625 c 4
 204.639648438 18.1337890625 217.046875 24.49609375 225.130859375 34.6796875 c 5
 241.43359375 18.22265625 l 5
 229.123046875 4.1162109375 210.969726562 -4.7275390625 190.553710938 -4.7275390625 c 4
 153.0234375 -4.7275390625 122.443359375 25.1572265625 122.443359375 62.6875 c 4
 122.443359375 100.217773438 153.0234375 130.102539062 190.553710938 130.102539062 c 4
 228.083984375 130.102539062 257.96875 100.217773438 257.96875 62.6875 c 5xbc
133.96875 73.6875 m 5xda
 246.553710938 73.6875 l 5xba
 257.96875 62.6875 l 5
 257.96875 50.6875 l 5
 133.96875 50.6875 l 5
 133.96875 73.6875 l 5xda
225.130859375 34.6796875 m 1029
241.43359375 18.22265625 m 1029
33.423828125 62.6875 m 0
 33.423828125 38.03515625 53.5107421875 18.40625 78.162109375 18.40625 c 0
 102.813476562 18.40625 122.443359375 38.03515625 122.443359375 62.6875 c 0x9c
 122.443359375 87.3388671875 102.813476562 106.96875 78.162109375 106.96875 c 0
 53.5107421875 106.96875 33.423828125 87.3388671875 33.423828125 62.6875 c 0
10 62.4150390625 m 0
 10 99.9453125 40.580078125 129.830078125 78.1103515625 129.830078125 c 0
 115.640625 129.830078125 145.525390625 99.9453125 145.525390625 62.4150390625 c 0x9a
 145.525390625 24.884765625 115.640625 -5 78.1103515625 -5 c 0
 40.580078125 -5 10 24.884765625 10 62.4150390625 c 0
EndSplineSet
Substitution2: "'sups' Superscript in Latin lookup 0 subtable" oe.superior
EndChar

StartChar: endash
Encoding: 8211 8211 114
Width: 128
Flags: W
HStem: 87 23<15 115>
LayerCount: 2
Fore
SplineSet
15 87 m 1
 15 110 l 1
 115 110 l 1
 115 87 l 1
 15 87 l 1
EndSplineSet
EndChar

StartChar: emdash
Encoding: 8212 8212 115
Width: 256
Flags: W
HStem: 87 23<15 243>
LayerCount: 2
Fore
SplineSet
15 87 m 1
 15 110 l 1
 243 110 l 1
 243 87 l 1
 15 87 l 1
EndSplineSet
EndChar

StartChar: period
Encoding: 46 46 116
Width: 51
Flags: W
HStem: 0 23<12 35>
VStem: 12 23<0 23>
LayerCount: 2
Fore
SplineSet
12 0 m 1
 12 23 l 5
 35 23 l 5
 35 0 l 1
 12 0 l 1
EndSplineSet
EndChar

StartChar: comma
Encoding: 44 44 117
Width: 55
Flags: W
HStem: -28 7<11 22.4762> 0 23<16 39>
VStem: 16 23<0 23>
LayerCount: 2
Fore
SplineSet
11 -28 m 1
 11 -21 l 1
 24 -21 31 -12 32 2 c 1
 25 8 l 25
 39 0 l 1
 38 -14 24 -28 11 -28 c 1
16 0 m 1
 16 23 l 1
 39 23 l 1
 39 0 l 1
 16 0 l 1
EndSplineSet
EndChar

StartChar: colon
Encoding: 58 58 118
Width: 54
Flags: W
HStem: 50 23<16 39> 110 23<16 39>
VStem: 16 23<50 73 110 133>
LayerCount: 2
Fore
SplineSet
16 50 m 5
 16 73 l 5
 39 73 l 5
 39 50 l 5
 16 50 l 5
16 110 m 1
 16 133 l 1
 39 133 l 1
 39 110 l 1
 16 110 l 1
EndSplineSet
EndChar

StartChar: semicolon
Encoding: 59 59 119
Width: 53
Flags: W
HStem: 22 7<11 22.4762> 50 23<16 39> 110 23<16 39>
VStem: 16 23<50 73 110 133>
LayerCount: 2
Fore
SplineSet
11 22 m 1
 11 29 l 1
 24 29 31 38 32 52 c 1
 25 58 l 25
 39 50 l 1
 38 36 24 22 11 22 c 1
16 50 m 1
 16 73 l 1
 39 73 l 1
 39 50 l 1
 16 50 l 1
16 110 m 1
 16 133 l 1
 39 133 l 1
 39 110 l 1
 16 110 l 1
EndSplineSet
EndChar

StartChar: slash
Encoding: 47 47 120
Width: 131
Flags: W
HStem: 0 21G<2 36.3162> 163.808 20G<94.6838 129>
LayerCount: 2
Fore
SplineSet
2 0 m 1
 106 183.807617188 l 5
 129 183.807617188 l 5
 25 0 l 1
 2 0 l 1
EndSplineSet
EndChar

StartChar: backslash
Encoding: 92 92 121
Width: 137
Flags: W
LayerCount: 2
Fore
SplineSet
133 0 m 1
 29 183.807617188 l 5
 6 183.807617188 l 5
 110 0 l 1
 133 0 l 1
EndSplineSet
EndChar

StartChar: hyphen
Encoding: 45 45 122
Width: 142
Flags: W
HStem: 87 23<15 129>
LayerCount: 2
Fore
SplineSet
15 110 m 5
 129 110 l 1
 129 87 l 1
 15 87 l 5
 15 110 l 5
EndSplineSet
Substitution2: "'numr' Numerators lookup 0 subtable" hyphen.numerator
Substitution2: "'dnom' Denominators lookup 0 subtable" hyphen.denominator
EndChar

StartChar: zero
Encoding: 48 48 123
Width: 137
Flags: W
HStem: -5 22.4365<56.2204 88.1737> 167.108 21.8916<56.2204 88.1737>
VStem: 12 22.4238<51.0911 134.249> 104.866 22.1338<41.0119 142.605>
LayerCount: 2
Fore
SplineSet
34.423828125 92.2724609375 m 0
 34.423828125 50.6103515625 48.3701171875 17.4365234375 70.03125 17.4365234375 c 4
 101.692382812 17.4365234375 104.866210938 50.6103515625 104.866210938 92.2724609375 c 0
 104.866210938 133.932617188 101.692382812 167.108398438 70.03125 167.108398438 c 4
 48.3701171875 167.108398438 34.423828125 133.932617188 34.423828125 92.2724609375 c 0
12 92 m 0
 12 146 36 189 70 189 c 4
 114 189 127 146 127 92 c 0
 127 38 114 -5 70 -5 c 4
 36 -5 12 38 12 92 c 0
EndSplineSet
Substitution2: "'dnom' Denominators lookup 0 subtable" zero.denominator
Substitution2: "'numr' Numerators lookup 0 subtable" zero.numerator
Substitution2: "'dnom' Denominators lookup 0 subtable" zero.denominator
Substitution2: "'numr' Numerators lookup 0 subtable" zero.numerator
Substitution2: "Tabular Forms-1" zero.tnum
EndChar

StartChar: one
Encoding: 49 49 124
Width: 104
Flags: W
HStem: 0 21G<62 85> 164 20G<42 85>
VStem: 62 23<0 184>
LayerCount: 2
Fore
SplineSet
6 128 m 5
 62 184 l 1
 78.263671875 167.737304688 l 1
 22.2626953125 111.736328125 l 5
 6 128 l 5
62 184 m 1
 85 184 l 1025
62 0 m 1
 62 184 l 1
 85 184 l 1
 85 0 l 1
 62 0 l 1
EndSplineSet
Substitution2: "'dnom' Denominators lookup 0 subtable" one.denominator
Substitution2: "'numr' Numerators lookup 0 subtable" one.numerator
Substitution2: "'dnom' Denominators lookup 0 subtable" one.denominator
Substitution2: "'numr' Numerators lookup 0 subtable" one.numerator
Substitution2: "Tabular Forms-1" one.tnum
EndChar

StartChar: two
Encoding: 50 50 125
Width: 142
Flags: W
HStem: 0 23<34 130> 166.969 22.8613<44.5411 91.632>
VStem: 11.3125 22.6875<23 59.0433> 107.686 23.4238<115.711 152.131>
LayerCount: 2
Fore
SplineSet
11.3125 31.6875 m 1
 10.888671875 78.9453125 33.341796875 90.78515625 69.9990234375 98.830078125 c 4
 88.9990234375 103 107.685546875 109.661132812 107.685546875 134.3125 c 0
 107.685546875 159.338867188 84.5986328125 166.96875 69.947265625 166.96875 c 0
 55.9130859375 166.96875 36.505859375 160.606445312 28.421875 150.577148438 c 1
 11.9990234375 167 l 1
 24.4296875 180.986328125 49.5830078125 189.830078125 69.9990234375 189.830078125 c 0
 97.529296875 189.830078125 130.931640625 171.9453125 131.109375 134.584960938 c 0
 131.290039062 96.7666015625 99.6865234375 82.7177734375 70.05078125 75.96875 c 4
 46.0146484375 70.4951171875 34.3125 65.3388671875 34.3125 31.6875 c 1
 34 23 l 1
 130 23 l 1
 130 0 l 1
 11 0 l 1
 11.3125 31.6875 l 1
28.421875 150.577148438 m 1025
12.119140625 166.879882812 m 1025
EndSplineSet
Substitution2: "'dnom' Denominators lookup 0 subtable" two.denominator
Substitution2: "'numr' Numerators lookup 0 subtable" two.numerator
Substitution2: "'dnom' Denominators lookup 0 subtable" two.denominator
Substitution2: "'numr' Numerators lookup 0 subtable" two.numerator
Substitution2: "Tabular Forms-1" two.tnum
EndChar

StartChar: three
Encoding: 51 51 126
Width: 137
Flags: W
HStem: -6 22.8613<39.542 86.633> 80 23<45 89.0729> 166.969 22.8613<40.5411 87.632>
VStem: 102.687 23.4238<31.6991 67.289 115.045 153.557>
LayerCount: 2
Fore
SplineSet
23.4228515625 33.2529296875 m 1025
7.1201171875 16.9501953125 m 1025
24.421875 150.577148438 m 1025
8.119140625 166.879882812 m 1025
74.025390625 82.8544921875 m 1
 74 82.833984375 l 1
 74.01171875 82.833984375 74.025390625 82.8408203125 74.025390625 82.8544921875 c 1
64 80 m 2
 45 80 l 1
 45 103 l 1
 70.41796875 103 l 2
 87.0185546875 104.178710938 103.685546875 111.71484375 103.685546875 134.3125 c 0
 103.685546875 159.338867188 80.5986328125 166.96875 65.947265625 166.96875 c 0
 51.9130859375 166.96875 32.505859375 160.606445312 24.421875 150.577148438 c 1
 7.9990234375 167 l 1
 20.4296875 180.986328125 45.5830078125 189.830078125 65.9990234375 189.830078125 c 0
 93.529296875 189.830078125 126.931640625 171.9453125 127.109375 134.584960938 c 0
 127.217773438 111.854492188 105.844726562 94.15625 90.306640625 91.18359375 c 1
 105.287109375 88.4404296875 126.21484375 71.18359375 126.110351562 49.2451171875 c 0
 125.932617188 11.884765625 92.5302734375 -6 65 -6 c 0
 44.583984375 -6 19.4306640625 2.84375 7 16.830078125 c 1
 23.4228515625 33.2529296875 l 1
 31.5068359375 23.2236328125 50.9140625 16.861328125 64.9482421875 16.861328125 c 0
 79.599609375 16.861328125 102.686523438 24.4912109375 102.686523438 49.517578125 c 0
 102.686523438 74.1689453125 83 79.830078125 64 80 c 2
EndSplineSet
Substitution2: "'dnom' Denominators lookup 0 subtable" three.denominator
Substitution2: "'numr' Numerators lookup 0 subtable" three.numerator
Substitution2: "'dnom' Denominators lookup 0 subtable" three.denominator
Substitution2: "'numr' Numerators lookup 0 subtable" three.numerator
Substitution2: "Tabular Forms-1" three.tnum
EndChar

StartChar: eight
Encoding: 56 56 127
Width: 144
Flags: W
HStem: -6 22.8613<50.4773 93.7518> 166.969 22.8613<51.4764 94.7509>
VStem: 11 23.4238<31.6991 63.0462 121.511 150.677> 109.797 23.4238<31.6991 63.7725 119.114 153.557>
LayerCount: 2
Fore
SplineSet
81.1103515625 82.833984375 m 1025
74.109375 103.830078125 m 2
 75.560546875 102.686523438 110.795898438 111.71484375 110.795898438 134.3125 c 0
 110.795898438 159.338867188 87.708984375 166.96875 73.1611328125 166.96875 c 0
 58.509765625 166.96875 35.4228515625 159.338867188 35.4228515625 134.3125 c 0
 35.4228515625 109.661132812 74.109375 103.830078125 74.109375 103.830078125 c 2
73.109375 189.830078125 m 0
 100.639648438 189.830078125 134.041992188 171.9453125 134.219726562 134.584960938 c 0
 134.329101562 111.854492188 112.955078125 94.15625 97.4169921875 91.18359375 c 1
 112.397460938 88.4404296875 133.325195312 71.18359375 133.220703125 49.2451171875 c 0
 133.04296875 11.884765625 99.640625 -6 72.1103515625 -6 c 0
 44.580078125 -6 11.177734375 11.884765625 11 49.2451171875 c 0
 10.8916015625 71.9755859375 32.2646484375 89.673828125 47.802734375 92.646484375 c 1
 32.822265625 95.3896484375 11.89453125 112.646484375 11.9990234375 134.584960938 c 0
 12.1767578125 171.9453125 45.5791015625 189.830078125 73.109375 189.830078125 c 0
64.109375 100.99609375 m 1025
72.69140625 79.830078125 m 6
 72.69140625 79.830078125 34.423828125 72.115234375 34.423828125 49.517578125 c 0
 34.423828125 24.4912109375 57.5107421875 16.861328125 72.162109375 16.861328125 c 0
 86.7099609375 16.861328125 109.796875 24.4912109375 109.796875 49.517578125 c 0
 109.796875 74.1689453125 73.21484375 80.267578125 72.69140625 79.830078125 c 6
EndSplineSet
Substitution2: "'dnom' Denominators lookup 0 subtable" eight.denominator
Substitution2: "'numr' Numerators lookup 0 subtable" eight.numerator
Substitution2: "'dnom' Denominators lookup 0 subtable" eight.denominator
Substitution2: "'numr' Numerators lookup 0 subtable" eight.numerator
Substitution2: "Tabular Forms-1" eight.tnum
EndChar

StartChar: six
Encoding: 54 54 128
Width: 148
Flags: W
HStem: -6 22.8613<54.6008 97.6336> 90.1738 20.7949<56.0645 96.4443> 166.969 22.8613<55.4566 107.257>
VStem: 15 23.4238<33.6482 76.2451 81 150.677> 113.797 23.4238<33.6482 72.8963>
LayerCount: 2
Fore
SplineSet
29.1103515625 81 m 17
 32.1103515625 96.0263671875 51.509765625 110.96875 76.1611328125 110.96875 c 0
 118.15625 110.96875 137.325195312 78.18359375 137.220703125 56.2451171875 c 0
 137.04296875 18.884765625 113.640625 -6 76.1103515625 -6 c 0
 38.580078125 -6 15.177734375 18.884765625 15 56.2451171875 c 1
 15.9990234375 134.584960938 l 1
 16.1767578125 171.9453125 49.5791015625 189.830078125 77.109375 189.830078125 c 0
 116.525390625 189.830078125 128.678710938 175.986328125 141.109375 162 c 1
 124.686523438 145.577148438 l 1
 116.602539062 155.606445312 110.1953125 166.96875 77.1611328125 166.96875 c 0
 62.509765625 166.96875 39.4228515625 159.338867188 38.9990234375 134.584960938 c 1
 38 76.2451171875 l 1
 38.177734375 38.884765625 29.1103515625 81 29.1103515625 81 c 17
113.796875 56.517578125 m 1
 113.110351562 70 102.196289062 90.173828125 76.162109375 90.173828125 c 0
 61.5107421875 90.173828125 38.423828125 79.5439453125 38.423828125 56.517578125 c 0
 38.423828125 31.4912109375 51.5107421875 16.861328125 76.162109375 16.861328125 c 0
 100.709960938 16.861328125 113.796875 31.4912109375 113.796875 56.517578125 c 1
170.6875 140.747070312 m 1025
186.990234375 157.049804688 m 1025
EndSplineSet
Substitution2: "'dnom' Denominators lookup 0 subtable" six.denominator
Substitution2: "'numr' Numerators lookup 0 subtable" six.numerator
Substitution2: "'dnom' Denominators lookup 0 subtable" six.denominator
Substitution2: "'numr' Numerators lookup 0 subtable" six.numerator
Substitution2: "Tabular Forms-1" six.tnum
EndChar

StartChar: nine
Encoding: 57 57 129
Width: 146
Flags: W
HStem: -6 22.8613<41.8523 93.6527> 72.8613 20.7949<52.6651 93.0449> 166.969 22.8613<51.4758 94.5086>
VStem: 11.8887 23.4238<110.934 150.182> 110.686 23.4238<33.1528 102.83 107.585 150.182> 111.109 8.88965<87.8037 102.83>
LayerCount: 2
Fore
SplineSet
119.999023438 102.830078125 m 17xf4
 116.999023438 87.8037109375 97.599609375 72.861328125 72.9482421875 72.861328125 c 0
 30.953125 72.861328125 11.7841796875 105.646484375 11.888671875 127.584960938 c 0
 12.06640625 164.9453125 35.46875 189.830078125 72.9990234375 189.830078125 c 0
 110.529296875 189.830078125 133.931640625 164.9453125 134.109375 127.584960938 c 1xf8
 133.110351562 49.2451171875 l 1
 132.932617188 11.884765625 99.5302734375 -6 72 -6 c 0
 32.583984375 -6 20.4306640625 7.84375 8 21.830078125 c 1
 24.4228515625 38.2529296875 l 1
 32.5068359375 28.2236328125 38.9140625 16.861328125 71.9482421875 16.861328125 c 0
 86.599609375 16.861328125 109.686523438 24.4912109375 110.110351562 49.2451171875 c 1
 111.109375 107.584960938 l 1
 110.931640625 144.9453125 119.999023438 102.830078125 119.999023438 102.830078125 c 17xf4
35.3125 127.3125 m 1
 35.9990234375 113.830078125 46.9130859375 93.65625 72.947265625 93.65625 c 0
 87.5986328125 93.65625 110.685546875 104.286132812 110.685546875 127.3125 c 0
 110.685546875 152.338867188 97.5986328125 166.96875 72.947265625 166.96875 c 0
 48.3994140625 166.96875 35.3125 152.338867188 35.3125 127.3125 c 1
-21.578125 43.0830078125 m 1025
-37.880859375 26.7802734375 m 1025
EndSplineSet
Substitution2: "'dnom' Denominators lookup 0 subtable" nine.denominator
Substitution2: "'numr' Numerators lookup 0 subtable" nine.numerator
Substitution2: "'dnom' Denominators lookup 0 subtable" nine.denominator
Substitution2: "'numr' Numerators lookup 0 subtable" nine.numerator
Substitution2: "Tabular Forms-1" nine.tnum
EndChar

StartChar: X
Encoding: 88 88 130
Width: 159
Flags: W
HStem: 0 21G<8 44.0435 114.957 151> 164 20G<8 44.0435 114.957 151>
LayerCount: 2
Fore
SplineSet
151 184 m 1
 31 0 l 5
 8 0 l 5
 128 184 l 1
 151 184 l 1
8 184 m 1
 31 184 l 1
 151 0 l 1
 128 0 l 1
 8 184 l 1
EndSplineSet
Substitution2: "'c2sc' Capitals to Small Capitals in Latin lookup 0 subtable" x.sc
Substitution2: "'dnom' Denominators lookup 0 subtable" X.denominator
Substitution2: "'numr' Numerators lookup 0 subtable" X.numerator
Substitution2: "'subs' Subscript in Latin lookup 0 subtable" X.subscript
Substitution2: "'c2sc' Capitals to Small Capitals in Latin lookup 0 subtable" x.sc
Substitution2: "'sups' Superscript in Latin lookup 0 subtable" X.superior
EndChar

StartChar: x
Encoding: 120 120 131
Width: 141
Flags: W
HStem: 0 21G<9 48 93 132> 105 20G<9 48 93 132>
LayerCount: 2
Fore
SplineSet
132 125 m 1
 32 0 l 1
 9 0 l 1
 109 125 l 1
 132 125 l 1
9 125 m 1
 32 125 l 1
 132 0 l 5
 109 0 l 5
 9 125 l 1
EndSplineSet
Substitution2: "'smcp' Lowercase to Small Capitals in Latin lookup 0 subtable" x.sc
Substitution2: "'dnom' Denominators lookup 0 subtable" x.denominator
Substitution2: "'numr' Numerators lookup 0 subtable" x.numerator
Substitution2: "'subs' Subscript in Latin lookup 0 subtable" x.subscript
Substitution2: "'smcp' Lowercase to Small Capitals in Latin lookup 0 subtable" x.sc
Substitution2: "'sups' Superscript in Latin lookup 0 subtable" x.superior
EndChar

StartChar: Z
Encoding: 90 90 132
Width: 164
Flags: W
HStem: 0 23<30 153> 161 23<10 124>
LayerCount: 2
Fore
SplineSet
30 23 m 5
 153 23 l 1
 153 0 l 1
 10 0 l 1
 30 23 l 5
10 184 m 1
 153 184 l 1
 133 161 l 1
 10 161 l 1
 10 184 l 1
153 184 m 1
 33 0 l 1
 10 0 l 1
 124 174 l 1
 153 184 l 1
EndSplineSet
Substitution2: "'c2sc' Capitals to Small Capitals in Latin lookup 0 subtable" z.sc
Substitution2: "'dnom' Denominators lookup 0 subtable" Z.denominator
Substitution2: "'numr' Numerators lookup 0 subtable" Z.numerator
Substitution2: "'subs' Subscript in Latin lookup 0 subtable" Z.subscript
Substitution2: "'c2sc' Capitals to Small Capitals in Latin lookup 0 subtable" z.sc
Substitution2: "'sups' Superscript in Latin lookup 0 subtable" Z.superior
EndChar

StartChar: z
Encoding: 122 122 133
Width: 129
Flags: W
HStem: 0 23<41 117> 101.6 23<12 88>
LayerCount: 2
Fore
SplineSet
32 23 m 1
 117 23 l 5
 117 0 l 5
 12 0 l 1
 32 23 l 1
12 124.599609375 m 1
 117 124.599609375 l 1
 97 101.599609375 l 1
 12 101.599609375 l 1
 12 124.599609375 l 1
117 124.599609375 m 1
 41 10 l 1
 12 0 l 1
 88 114.599609375 l 1
 117 124.599609375 l 1
EndSplineSet
Substitution2: "'smcp' Lowercase to Small Capitals in Latin lookup 0 subtable" z.sc
Substitution2: "'dnom' Denominators lookup 0 subtable" z.denominator
Substitution2: "'numr' Numerators lookup 0 subtable" z.numerator
Substitution2: "'subs' Subscript in Latin lookup 0 subtable" z.subscript
Substitution2: "'smcp' Lowercase to Small Capitals in Latin lookup 0 subtable" z.sc
Substitution2: "'sups' Superscript in Latin lookup 0 subtable" z.superior
EndChar

StartChar: seven
Encoding: 55 55 134
Width: 125
Flags: W
HStem: 0 21G<27 57.9348> 161 23<9 94>
LayerCount: 2
Fore
SplineSet
27 0 m 5
 94 172 l 1
 123 184 l 1
 50 0 l 5
 27 0 l 5
9 184 m 1
 123 184 l 1
 103 161 l 1
 9 161 l 1
 9 184 l 1
EndSplineSet
Substitution2: "'dnom' Denominators lookup 0 subtable" seven.denominator
Substitution2: "'numr' Numerators lookup 0 subtable" seven.numerator
Substitution2: "'dnom' Denominators lookup 0 subtable" seven.denominator
Substitution2: "'numr' Numerators lookup 0 subtable" seven.numerator
Substitution2: "Tabular Forms-1" seven.tnum
EndChar

StartChar: five
Encoding: 53 53 135
Width: 144
Flags: W
HStem: -5.83008 22.8613<50.0318 90.5608> 100.174 20.7949<48.4049 89.3083> 161 23<42 133>
VStem: 33.2393 8.76074<98 106.642> 108.687 23.4238<36.4988 79.6735>
LayerCount: 2
Fore
SplineSet
314 247 m 1049
19 184 m 1
 133 184 l 1
 133 161 l 1
 29 161 l 1
 19 184 l 1
19 79 m 1
 19 184 l 1
 42 174 l 1
 42 98 l 1
 34 79 l 1
 19 79 l 1
33.2392578125 106.641601562 m 17
 41.7998046875 114.916015625 55.361328125 120.96875 71.05078125 120.96875 c 0
 113.045898438 120.96875 132.21484375 83.18359375 132.110351562 61.2451171875 c 4
 131.932617188 23.884765625 108.530273438 -6 71 -5.830078125 c 0
 50.583984375 -5.830078125 32.4306640625 3.013671875 20.1201171875 17.1201171875 c 1
 36.4228515625 33.5771484375 l 1
 44.5068359375 23.3935546875 56.9140625 17.03125 70.9482421875 17.03125 c 0
 95.599609375 16.861328125 108.686523438 36.4912109375 108.686523438 61.517578125 c 5
 108 75 97.0859375 100.173828125 71.0517578125 100.173828125 c 0
 56.400390625 100.173828125 38 93 34 79 c 1
 33.2392578125 106.641601562 l 17
36.4228515625 33.5771484375 m 1025
20.1201171875 17.1201171875 m 1025
EndSplineSet
Substitution2: "'dnom' Denominators lookup 0 subtable" five.denominator
Substitution2: "'numr' Numerators lookup 0 subtable" five.numerator
Substitution2: "'dnom' Denominators lookup 0 subtable" five.denominator
Substitution2: "'numr' Numerators lookup 0 subtable" five.numerator
Substitution2: "Tabular Forms-1" five.tnum
EndChar

StartChar: four
Encoding: 52 52 136
Width: 136
Flags: W
HStem: 0 21G<76 99> 70 23<36 130> 164 20G<63.7193 99>
VStem: 76 23<0 184>
LayerCount: 2
Fore
SplineSet
36 93 m 5
 130 93 l 1
 130 70 l 1
 6 70 l 1
 36 93 l 5
6 70 m 1
 76 184 l 1
 99 184 l 1
 33 74 l 1
 6 70 l 1
76 0 m 1
 76 184 l 1
 99 184 l 1
 99 0 l 1
 76 0 l 1
EndSplineSet
Substitution2: "'dnom' Denominators lookup 0 subtable" four.denominator
Substitution2: "'numr' Numerators lookup 0 subtable" four.numerator
Substitution2: "'dnom' Denominators lookup 0 subtable" four.denominator
Substitution2: "'numr' Numerators lookup 0 subtable" four.numerator
Substitution2: "Tabular Forms-1" four.tnum
EndChar

StartChar: AE
Encoding: 198 198 137
Width: 232
Flags: W
HStem: 0 23<129 220> 63 23<58 116> 81 23<122 210> 81 5<116 122> 161 23<116 220>
VStem: 106 16<63 81> 116 13<86 104> 116 6<81 86>
LayerCount: 2
Fore
SplineSet
373 247 m 1049x88
116 104 m 1xaa
 210 104 l 1
 210 81 l 1xaa
 116 81 l 1x99
 116 104 l 1xaa
106 184 m 1x8c
 220 184 l 1
 220 161 l 1
 116 161 l 1x89
 106 184 l 1x8c
116 23 m 1
 220 23 l 1
 220 0 l 1
 106 0 l 1x8c
 116 23 l 1
106 0 m 1
 106 184 l 1x8c
 129 174 l 1
 129 10 l 1x8a
 106 0 l 1
58 86 m 5xcc
 122 86 l 1x99
 122 63 l 1
 58 63 l 5
 58 86 l 5xcc
6 0 m 1
 106 184 l 1x8c
 129 184 l 1x8a
 29 0 l 1
 6 0 l 1
EndSplineSet
Substitution2: "'sups' Superscript in Latin lookup 0 subtable" AE.superior
EndChar

StartChar: ae
Encoding: 230 230 138
Width: 250
Flags: HW
HStem: -4.86133 22.8613<40.59 93.5334 151.375 193.45> 56.9375 22.8613<39.9071 110.091> 63 10.585<216.11 228.11> 70 3.58496<115.525 127.11> 107.139 22.8613<46.8051 95.9063 150.581 193.597>
VStem: 10 23.4238<24.5904 50.7036> 104 6.11035<57 70> 115.525 11.8984<50.585 73.585>
LayerCount: 2
Fore
SplineSet
126.990234375 28.1201171875 m 5xbc
 116.110351562 4 90.4744183797 -4.77301792951 70.05859375 -4.861328125 c 4
 38 -5 10 13 10 38.5849609375 c 4
 10 61 40 80 70.05859375 79.798828125 c 4
 110.110351562 80 l 5
 110.110351562 57 l 5
 70.1103515625 56.9375 l 4
 53 57 33.423828125 50.3388671875 33.423828125 38.3125 c 4
 33.423828125 22.6611328125 53 18 70.1103515625 18 c 4
 84.14453125 18 104.110351562 23 110.6875 44.5771484375 c 5
 126.990234375 28.1201171875 l 5xbc
239.525390625 62.5849609375 m 1xaf
 216.110351562 63 l 1
 216.443359375 87.5087890625 196.813476562 107.138671875 172.162109375 107.138671875 c 0
 147.510742188 107.138671875 127.423828125 87.5087890625 127.423828125 62.857421875 c 0
 127.423828125 37.6611328125 147.510742188 18.03125 172.162109375 18.03125 c 0
 186.196289062 18.03125 198.603515625 24.3935546875 206.6875 34.5771484375 c 1
 222.990234375 18.1201171875 l 1
 210.6796875 4.013671875 192.526367188 -4.830078125 172.110351562 -4.830078125 c 0
 134.580078125 -4.830078125 104 25.0546875 104 62.5849609375 c 0
 104 100.115234375 134.580078125 130 172.110351562 130 c 0
 209.640625 130 239.525390625 100.115234375 239.525390625 62.5849609375 c 1xaf
115.525390625 73.5849609375 m 1x9f
 228.110351562 73.5849609375 l 1xaf
 239.525390625 62.5849609375 l 1
 239.525390625 50.5849609375 l 1
 115.525390625 50.5849609375 l 1
 115.525390625 73.5849609375 l 1x9f
206.6875 34.5771484375 m 1025
222.990234375 18.1201171875 m 1025
18.23046875 106.879882812 m 1025
34.533203125 90.5771484375 m 1025
127.110351562 83 m 2
 127.110351562 70 l 1
 104.110351562 70 l 1x9f
 104.110351562 83 l 2
 104.110351562 98.3388671875 97.658203125 106.9375 73.0068359375 106.9375 c 0
 48.97265625 106.9375 42.6171875 100.606445312 34.533203125 90.5771484375 c 1
 18.1103515625 107 l 1
 30.541015625 120.986328125 39.1103515625 130 73.05859375 129.798828125 c 0
 110.2578125 129.578125 127.110351562 111.46875 127.110351562 83 c 2
EndSplineSet
Substitution2: "'sups' Superscript in Latin lookup 0 subtable" ae.superior
EndChar

StartChar: fraction
Encoding: 8260 8260 139
Width: 256
Flags: W
HStem: 0 21G<8 54.6116> 163.808 20G<201.388 248>
LayerCount: 2
Fore
SplineSet
8 0 m 1
 225 183.807617188 l 5
 248 183.807617188 l 5
 31 0 l 1
 8 0 l 1
EndSplineSet
EndChar

StartChar: zero.tnum
Encoding: 65536 -1 142
Width: 149
Flags: W
HStem: -5 22.4365<61.2204 88.7303> 167.108 21.8916<61.2204 88.7303>
VStem: 17 22.4238<51.0911 134.249> 109.866 22.1338<50.0226 134.249>
LayerCount: 2
Fore
SplineSet
39.423828125 92.2724609375 m 0
 39.423828125 50.6103515625 53.3701171875 17.4365234375 75.03125 17.4365234375 c 4
 96.6923828125 17.4365234375 109.866210938 50.6103515625 109.866210938 92.2724609375 c 0
 109.866210938 133.932617188 96.6923828125 167.108398438 75.03125 167.108398438 c 4
 53.3701171875 167.108398438 39.423828125 133.932617188 39.423828125 92.2724609375 c 0
17 92 m 0
 17 146 41 189 75 189 c 4
 109 189 132 146 132 92 c 0
 132 38 109 -5 75 -5 c 4
 41 -5 17 38 17 92 c 0
EndSplineSet
EndChar

StartChar: one.tnum
Encoding: 65537 -1 143
Width: 149
Flags: W
HStem: 0 23<7.5 141.5> 107 23<10 32.7025> 164 20G<63.959 87>
VStem: 64 23<0 184>
LayerCount: 2
Fore
SplineSet
7.5 23 m 1
 141.5 23 l 1
 141.5 0 l 1
 7.5 0 l 1
 7.5 23 l 1
10 107 m 1
 10 130 l 1
 44.2880859375 129.991210938 63.91796875 159.620117188 64 184 c 1
 87 184 l 1
 87 146.469726562 57.115234375 106.584960938 10 107 c 1
64 0 m 1
 64 184 l 1
 87 184 l 1
 87 0 l 1
 64 0 l 1
EndSplineSet
EndChar

StartChar: two.tnum
Encoding: 65538 -1 144
Width: 149
Flags: W
HStem: 0 23<37.4453 133.445> 166.969 22.8613<47.9864 95.0774>
VStem: 14.7578 22.6875<23 59.0433> 111.131 23.4238<115.711 152.131>
LayerCount: 2
Fore
SplineSet
14.7578125 31.6875 m 1
 14.333984375 78.9453125 36.787109375 90.78515625 73.4443359375 98.830078125 c 4
 92.4443359375 103 111.130859375 109.661132812 111.130859375 134.3125 c 0
 111.130859375 159.338867188 88.0439453125 166.96875 73.392578125 166.96875 c 0
 59.3583984375 166.96875 39.951171875 160.606445312 31.8671875 150.577148438 c 1
 15.4443359375 167 l 1
 27.875 180.986328125 53.0283203125 189.830078125 73.4443359375 189.830078125 c 0
 100.974609375 189.830078125 134.376953125 171.9453125 134.5546875 134.584960938 c 0
 134.735351562 96.7666015625 103.131835938 82.7177734375 73.49609375 75.96875 c 4
 49.4599609375 70.4951171875 37.7578125 65.3388671875 37.7578125 31.6875 c 1
 37.4453125 23 l 1
 133.4453125 23 l 1
 133.4453125 0 l 1
 14.4453125 0 l 1
 14.7578125 31.6875 l 1
31.8671875 150.577148438 m 1025
15.564453125 166.879882812 m 1025
EndSplineSet
EndChar

StartChar: three.tnum
Encoding: 65539 -1 145
Width: 149
Flags: W
HStem: -6 22.8613<46.9873 94.0783> 80 23<52.4453 96.5182> 166.969 22.8613<47.9864 95.0774>
VStem: 110.132 23.4238<31.6991 67.289 115.045 153.557>
LayerCount: 2
Fore
SplineSet
30.8681640625 33.2529296875 m 1025
14.5654296875 16.9501953125 m 1025
31.8671875 150.577148438 m 1025
15.564453125 166.879882812 m 1025
81.4697265625 82.8544921875 m 1
 81.4453125 82.833984375 l 1
 81.4560546875 82.833984375 81.4697265625 82.8408203125 81.4697265625 82.8544921875 c 1
71.4453125 80 m 2
 52.4453125 80 l 1
 52.4453125 103 l 1
 77.86328125 103 l 2
 94.4638671875 104.178710938 111.130859375 111.71484375 111.130859375 134.3125 c 0
 111.130859375 159.338867188 88.0439453125 166.96875 73.392578125 166.96875 c 0
 59.3583984375 166.96875 39.951171875 160.606445312 31.8671875 150.577148438 c 1
 15.4443359375 167 l 1
 27.875 180.986328125 53.0283203125 189.830078125 73.4443359375 189.830078125 c 0
 100.974609375 189.830078125 134.376953125 171.9453125 134.5546875 134.584960938 c 0
 134.663085938 111.854492188 113.290039062 94.15625 97.751953125 91.18359375 c 1
 112.732421875 88.4404296875 133.66015625 71.18359375 133.555664062 49.2451171875 c 0
 133.377929688 11.884765625 99.9755859375 -6 72.4453125 -6 c 0
 52.029296875 -6 26.8759765625 2.84375 14.4453125 16.830078125 c 1
 30.8681640625 33.2529296875 l 1
 38.9521484375 23.2236328125 58.359375 16.861328125 72.3935546875 16.861328125 c 0
 87.044921875 16.861328125 110.131835938 24.4912109375 110.131835938 49.517578125 c 0
 110.131835938 74.1689453125 90.4453125 79.830078125 71.4453125 80 c 2
EndSplineSet
EndChar

StartChar: four.tnum
Encoding: 65540 -1 146
Width: 149
Flags: W
HStem: 0 21G<82.5 105.5> 70 23<42.5 136.5> 164 20G<70.2193 105.5>
VStem: 82.5 23<0 184>
LayerCount: 2
Fore
SplineSet
42.5 93 m 5
 136.5 93 l 1
 136.5 70 l 1
 12.5 70 l 1
 42.5 93 l 5
12.5 70 m 1
 82.5 184 l 1
 105.5 184 l 1
 39.5 74 l 1
 12.5 70 l 1
82.5 0 m 1
 82.5 184 l 1
 105.5 184 l 1
 105.5 0 l 1
 82.5 0 l 1
EndSplineSet
EndChar

StartChar: five.tnum
Encoding: 65541 -1 147
Width: 149
Flags: W
HStem: -5.83008 22.8613<48.5318 89.0608> 100.174 20.7949<46.9049 87.8083> 161 23<40.5 131.5>
VStem: 31.7393 8.76074<98 106.642> 107.187 23.4238<36.4988 79.6735>
LayerCount: 2
Fore
SplineSet
312.5 247 m 1049
17.5 184 m 1
 131.5 184 l 1
 131.5 161 l 1
 27.5 161 l 1
 17.5 184 l 1
17.5 79 m 1
 17.5 184 l 1
 40.5 174 l 1
 40.5 98 l 1
 32.5 79 l 1
 17.5 79 l 1
31.7392578125 106.641601562 m 17
 40.2998046875 114.916015625 53.861328125 120.96875 69.55078125 120.96875 c 0
 111.545898438 120.96875 130.71484375 83.18359375 130.610351562 61.2451171875 c 4
 130.432617188 23.884765625 107.030273438 -6 69.5 -5.830078125 c 0
 49.083984375 -5.830078125 30.9306640625 3.013671875 18.6201171875 17.1201171875 c 1
 34.9228515625 33.5771484375 l 1
 43.0068359375 23.3935546875 55.4140625 17.03125 69.4482421875 17.03125 c 0
 94.099609375 16.861328125 107.186523438 36.4912109375 107.186523438 61.517578125 c 5
 106.5 75 95.5859375 100.173828125 69.5517578125 100.173828125 c 0
 54.900390625 100.173828125 36.5 93 32.5 79 c 1
 31.7392578125 106.641601562 l 17
34.9228515625 33.5771484375 m 1025
18.6201171875 17.1201171875 m 1025
EndSplineSet
EndChar

StartChar: six.tnum
Encoding: 65542 -1 148
Width: 149
Flags: W
HStem: -6 22.8613<51.0461 94.0789> 90.1738 20.7949<52.5098 92.8896> 166.969 22.8613<51.9019 103.702>
VStem: 11.4453 23.4238<33.6482 76.2451 81 150.677> 110.242 23.4238<33.6482 72.8963>
LayerCount: 2
Fore
SplineSet
25.5556640625 81 m 17
 28.5556640625 96.0263671875 47.955078125 110.96875 72.6064453125 110.96875 c 0
 114.6015625 110.96875 133.770507812 78.18359375 133.666015625 56.2451171875 c 0
 133.48828125 18.884765625 110.0859375 -6 72.5556640625 -6 c 0
 35.025390625 -6 11.623046875 18.884765625 11.4453125 56.2451171875 c 1
 12.4443359375 134.584960938 l 1
 12.6220703125 171.9453125 46.0244140625 189.830078125 73.5546875 189.830078125 c 0
 112.970703125 189.830078125 125.124023438 175.986328125 137.5546875 162 c 1
 121.131835938 145.577148438 l 1
 113.047851562 155.606445312 106.640625 166.96875 73.6064453125 166.96875 c 0
 58.955078125 166.96875 35.8681640625 159.338867188 35.4443359375 134.584960938 c 1
 34.4453125 76.2451171875 l 1
 34.623046875 38.884765625 25.5556640625 81 25.5556640625 81 c 17
110.2421875 56.517578125 m 1
 109.555664062 70 98.6416015625 90.173828125 72.607421875 90.173828125 c 0
 57.9560546875 90.173828125 34.869140625 79.5439453125 34.869140625 56.517578125 c 0
 34.869140625 31.4912109375 47.9560546875 16.861328125 72.607421875 16.861328125 c 0
 97.1552734375 16.861328125 110.2421875 31.4912109375 110.2421875 56.517578125 c 1
167.1328125 140.747070312 m 1025
183.435546875 157.049804688 m 1025
EndSplineSet
EndChar

StartChar: seven.tnum
Encoding: 65543 -1 149
Width: 149
Flags: W
HStem: 0 21G<35.5 66.4348> 161 23<17.5 102.5>
LayerCount: 2
Fore
SplineSet
35.5 0 m 1
 102.5 172 l 1
 131.5 184 l 1
 58.5 0 l 1
 35.5 0 l 1
17.5 184 m 1
 131.5 184 l 1
 111.5 161 l 1
 17.5 161 l 1
 17.5 184 l 1
EndSplineSet
EndChar

StartChar: eight.tnum
Encoding: 65544 -1 150
Width: 149
Flags: W
HStem: -6 22.8613<52.367 95.6415> 166.969 22.8613<53.366 96.6405>
VStem: 12.8896 23.4238<31.6991 63.0462 121.511 150.677> 111.687 23.4238<31.6991 63.7725 119.114 153.557>
LayerCount: 2
Fore
SplineSet
83 82.833984375 m 1025
75.9990234375 103.830078125 m 2
 77.4501953125 102.686523438 112.685546875 111.71484375 112.685546875 134.3125 c 0
 112.685546875 159.338867188 89.5986328125 166.96875 75.05078125 166.96875 c 0
 60.3994140625 166.96875 37.3125 159.338867188 37.3125 134.3125 c 0
 37.3125 109.661132812 75.9990234375 103.830078125 75.9990234375 103.830078125 c 2
74.9990234375 189.830078125 m 0
 102.529296875 189.830078125 135.931640625 171.9453125 136.109375 134.584960938 c 0
 136.21875 111.854492188 114.844726562 94.15625 99.306640625 91.18359375 c 1
 114.287109375 88.4404296875 135.21484375 71.18359375 135.110351562 49.2451171875 c 0
 134.932617188 11.884765625 101.530273438 -6 74 -6 c 0
 46.4697265625 -6 13.0673828125 11.884765625 12.8896484375 49.2451171875 c 0
 12.78125 71.9755859375 34.154296875 89.673828125 49.6923828125 92.646484375 c 1
 34.7119140625 95.3896484375 13.7841796875 112.646484375 13.888671875 134.584960938 c 0
 14.06640625 171.9453125 47.46875 189.830078125 74.9990234375 189.830078125 c 0
65.9990234375 100.99609375 m 1025
74.5810546875 79.830078125 m 6
 74.5810546875 79.830078125 36.3134765625 72.115234375 36.3134765625 49.517578125 c 0
 36.3134765625 24.4912109375 59.400390625 16.861328125 74.0517578125 16.861328125 c 0
 88.599609375 16.861328125 111.686523438 24.4912109375 111.686523438 49.517578125 c 0
 111.686523438 74.1689453125 75.1044921875 80.267578125 74.5810546875 79.830078125 c 6
EndSplineSet
EndChar

StartChar: nine.tnum
Encoding: 65545 -1 151
Width: 149
Flags: W
HStem: -6 22.8613<45.2976 97.0981> 72.8613 20.7949<56.1104 96.4902> 166.969 22.8613<54.9211 97.9539>
VStem: 15.334 23.4238<110.934 150.182> 114.131 23.4238<33.1528 102.83 107.585 150.182> 114.555 8.88965<87.8037 102.83>
LayerCount: 2
Fore
SplineSet
123.444335938 102.830078125 m 17xf4
 120.444335938 87.8037109375 101.044921875 72.861328125 76.3935546875 72.861328125 c 0
 34.3984375 72.861328125 15.2294921875 105.646484375 15.333984375 127.584960938 c 0
 15.51171875 164.9453125 38.9140625 189.830078125 76.4443359375 189.830078125 c 0
 113.974609375 189.830078125 137.376953125 164.9453125 137.5546875 127.584960938 c 1xf8
 136.555664062 49.2451171875 l 1
 136.377929688 11.884765625 102.975585938 -6 75.4453125 -6 c 0
 36.029296875 -6 23.8759765625 7.84375 11.4453125 21.830078125 c 1
 27.8681640625 38.2529296875 l 1
 35.9521484375 28.2236328125 42.359375 16.861328125 75.3935546875 16.861328125 c 0
 90.044921875 16.861328125 113.131835938 24.4912109375 113.555664062 49.2451171875 c 1
 114.5546875 107.584960938 l 1
 114.376953125 144.9453125 123.444335938 102.830078125 123.444335938 102.830078125 c 17xf4
38.7578125 127.3125 m 1
 39.4443359375 113.830078125 50.3583984375 93.65625 76.392578125 93.65625 c 0
 91.0439453125 93.65625 114.130859375 104.286132812 114.130859375 127.3125 c 0
 114.130859375 152.338867188 101.043945312 166.96875 76.392578125 166.96875 c 0
 51.8447265625 166.96875 38.7578125 152.338867188 38.7578125 127.3125 c 1
-18.1328125 43.0830078125 m 1025
-34.435546875 26.7802734375 m 1025
EndSplineSet
EndChar

StartChar: Oslash
Encoding: 216 216 152
Width: 221
Flags: W
HStem: -5 22.4365<85.7812 140.157> 0 21G<9 51.5857> 163.808 20G<169.414 212> 167.108 21.8916<85.7812 140.157>
VStem: 15 22.4238<64.9945 119.278> 187.866 22.1338<64.9945 120.426>
LayerCount: 2
Fore
SplineSet
9 0 m 5x6c
 189 183.807617188 l 5
 212 183.807617188 l 5
 32 0 l 5
 9 0 l 5x6c
37.423828125 92.2724609375 m 0
 37.423828125 50.6103515625 71.3701171875 17.4365234375 113.03125 17.4365234375 c 0
 154.692382812 17.4365234375 187.866210938 50.6103515625 187.866210938 92.2724609375 c 0
 187.866210938 133.932617188 154.692382812 167.108398438 113.03125 167.108398438 c 0x9c
 71.3701171875 167.108398438 37.423828125 133.932617188 37.423828125 92.2724609375 c 0
15 92 m 0
 15 146 59 189 113 189 c 0
 167 189 210 146 210 92 c 0
 210 38 167 -5 113 -5 c 0
 59 -5 15 38 15 92 c 0
EndSplineSet
Substitution2: "'sups' Superscript in Latin lookup 0 subtable" Oslash.superior
EndChar

StartChar: oslash
Encoding: 248 248 153
Width: 163
Flags: W
HStem: -5 23.4062<61.4702 104.491> 0 21G<9 51.5827> 104.6 20G<111.417 154> 106.969 22.8613<61.4702 106.806>
VStem: 14.8896 23.4238<41.8753 84.0168> 127.333 23.082<41.8753 84.0168>
LayerCount: 2
Fore
SplineSet
9 0 m 1x6c
 131 124.599609375 l 5
 154 124.599609375 l 5
 32 0 l 1
 9 0 l 1x6c
38.3134765625 62.6875 m 0
 38.3134765625 38.03515625 58.400390625 18.40625 83.0517578125 18.40625 c 0
 107.703125 18.40625 127.333007812 38.03515625 127.333007812 62.6875 c 0
 127.333007812 87.3388671875 107.703125 106.96875 83.0517578125 106.96875 c 0x9c
 58.400390625 106.96875 38.3134765625 87.3388671875 38.3134765625 62.6875 c 0
14.8896484375 62.4150390625 m 0
 14.8896484375 99.9453125 45.4697265625 129.830078125 83 129.830078125 c 0
 120.530273438 129.830078125 150.415039062 99.9453125 150.415039062 62.4150390625 c 0
 150.415039062 24.884765625 120.530273438 -5 83 -5 c 0
 45.4697265625 -5 14.8896484375 24.884765625 14.8896484375 62.4150390625 c 0
EndSplineSet
Substitution2: "'sups' Superscript in Latin lookup 0 subtable" oslash.superior
EndChar

StartChar: less
Encoding: 60 60 154
Width: 147
Flags: W
LayerCount: 2
Fore
SplineSet
134 25 m 5
 9 75 l 5
 9 98 l 5
 134 48 l 5
 134 25 l 5
134 148 m 5
 134 125 l 5
 9 75 l 5
 9 98 l 5
 134 148 l 5
EndSplineSet
EndChar

StartChar: greater
Encoding: 62 62 155
Width: 145
Flags: W
LayerCount: 2
Fore
SplineSet
13 148 m 5
 138 98 l 5
 138 75 l 5
 13 125 l 5
 13 148 l 5
13 25 m 5
 13 48 l 5
 138 98 l 5
 138 75 l 5
 13 25 l 5
EndSplineSet
EndChar

StartChar: plus
Encoding: 43 43 156
Width: 130
Flags: W
HStem: 87 23<9 123>
VStem: 55 23<39 153>
LayerCount: 2
Fore
SplineSet
78 153 m 5
 78 39 l 5
 55 39 l 5
 55 153 l 5
 78 153 l 5
9 110 m 1
 123 110 l 1
 123 87 l 1
 9 87 l 1
 9 110 l 1
EndSplineSet
Substitution2: "'numr' Numerators lookup 0 subtable" plus.numerator
Substitution2: "'dnom' Denominators lookup 0 subtable" plus.denominator
EndChar

StartChar: bracketleft
Encoding: 91 91 157
Width: 80
Flags: W
HStem: -50 23<43 74> 161 23<43 74>
VStem: 20 54<-50 -27 161 184>
LayerCount: 2
Fore
SplineSet
267 247 m 1049
20 184 m 1
 74 184 l 1
 74 161 l 1
 30 161 l 1
 20 184 l 1
30 -27 m 5
 74 -27 l 5
 74 -50 l 5
 20 -50 l 5
 30 -27 l 5
20 -50 m 5
 20 184 l 1
 43 174 l 1
 43 -40 l 5
 20 -50 l 5
EndSplineSet
Substitution2: "'numr' Numerators lookup 0 subtable" bracketleft.numerator
Substitution2: "'dnom' Denominators lookup 0 subtable" bracketleft.denominator
EndChar

StartChar: bracketright
Encoding: 93 93 158
Width: 83
Flags: W
HStem: -50 23<9 40> 161 23<9 40>
VStem: 9 54<-50 -27 161 184>
LayerCount: 2
Fore
SplineSet
-184 -113 m 1049
63 -50 m 1
 9 -50 l 1
 9 -27 l 1
 53 -27 l 1
 63 -50 l 1
53 161 m 1
 9 161 l 1
 9 184 l 5
 63 184 l 1
 53 161 l 1
63 184 m 1
 63 -50 l 1
 40 -40 l 1
 40 174 l 1
 63 184 l 1
EndSplineSet
Substitution2: "'numr' Numerators lookup 0 subtable" bracketright.numerator
Substitution2: "'dnom' Denominators lookup 0 subtable" bracketright.denominator
EndChar

StartChar: parenleft
Encoding: 40 40 159
Width: 69
Flags: W
VStem: 12 23<18.0018 115.998>
LayerCount: 2
Fore
SplineSet
35 67 m 5
 35.611328125 111.252929688 46 153 65 174 c 1
 46 183.807617188 l 1
 29 164.807617188 12 114 12 67 c 5
 12 20 29 -30.8076171875 46 -49.8076171875 c 5
 65 -40 l 5
 46 -19 35.611328125 22.7470703125 35 67 c 5
259 247 m 1049
EndSplineSet
Substitution2: "'numr' Numerators lookup 0 subtable" parenleft.numerator
Substitution2: "'dnom' Denominators lookup 0 subtable" parenleft.denominator
EndChar

StartChar: parenright
Encoding: 41 41 160
Width: 70
Flags: W
VStem: 36 23<18.0018 115.998>
LayerCount: 2
Fore
SplineSet
36 67 m 5
 35.388671875 22.7470703125 25 -19 6 -40 c 1
 25 -49.8076171875 l 1
 42 -30.8076171875 59 20 59 67 c 5
 59 114 42 164.807617188 25 183.807617188 c 5
 6 174 l 5
 25 153 35.388671875 111.252929688 36 67 c 5
-188 -113 m 1049
EndSplineSet
Substitution2: "'numr' Numerators lookup 0 subtable" parenright.numerator
Substitution2: "'dnom' Denominators lookup 0 subtable" parenright.denominator
EndChar

StartChar: guilsinglleft
Encoding: 8249 8249 161
Width: 68
Flags: W
VStem: 10 45
LayerCount: 2
Fore
SplineSet
55 25 m 5
 10 75 l 1
 10 98 l 1
 55 48 l 5
 55 25 l 5
55 148 m 5
 55 125 l 5
 10 75 l 1
 10 98 l 1
 55 148 l 5
EndSplineSet
EndChar

StartChar: guilsinglright
Encoding: 8250 8250 162
Width: 66
Flags: W
VStem: 13 45
LayerCount: 2
Fore
SplineSet
13 148 m 5
 58 98 l 1
 58 75 l 1
 13 125 l 5
 13 148 l 5
13 25 m 5
 13 48 l 5
 58 98 l 1
 58 75 l 1
 13 25 l 5
EndSplineSet
EndChar

StartChar: quotesinglbase
Encoding: 8218 8218 163
Width: 54
Flags: W
HStem: -38 7<10 21.4762> -22 20G<31 38> -10 23<15 38>
VStem: 15 23<-10 13>
LayerCount: 2
Fore
SplineSet
10 -38 m 5xb0
 10 -31 l 5
 23 -31 30 -22 31 -8 c 5
 24 -2 l 29xd0
 38 -10 l 5
 37 -24 23 -38 10 -38 c 5xb0
15 -10 m 5xb0
 15 13 l 5
 38 13 l 5
 38 -10 l 5
 15 -10 l 5xb0
EndSplineSet
EndChar

StartChar: quotedblbase
Encoding: 8222 8222 164
Width: 104
Flags: W
HStem: -38 7<10 21.4762 60 71.4762> -22 20G<31 38 81 88> -10 23<15 38 65 88>
VStem: 15 23<-10 13> 65 23<-10 13>
LayerCount: 2
Fore
SplineSet
60 -38 m 5xb8
 60 -31 l 5
 73 -31 80 -22 81 -8 c 5
 74 -2 l 29xd8
 88 -10 l 5
 87 -24 73 -38 60 -38 c 5xb8
65 -10 m 5xb8
 65 13 l 5
 88 13 l 5
 88 -10 l 5
 65 -10 l 5xb8
10 -38 m 1
 10 -31 l 1
 23 -31 30 -22 31 -8 c 1
 24 -2 l 25xd8
 38 -10 l 1
 37 -24 23 -38 10 -38 c 1
15 -10 m 1xb8
 15 13 l 1
 38 13 l 1
 38 -10 l 1
 15 -10 l 1xb8
EndSplineSet
EndChar

StartChar: quoteright
Encoding: 8217 8217 165
Width: 56
Flags: W
HStem: 132.808 7<15 26.4762> 160.808 23<20 43>
VStem: 20 23<160.808 183.808>
LayerCount: 2
Fore
SplineSet
15 132.807617188 m 5
 15 139.807617188 l 5
 28 139.807617188 35 148.807617188 36 162.807617188 c 5
 29 168.807617188 l 29
 43 160.807617188 l 5
 42 146.807617188 28 132.807617188 15 132.807617188 c 5
20 160.807617188 m 5
 20 183.807617188 l 5
 43 183.807617188 l 5
 43 160.807617188 l 5
 20 160.807617188 l 5
EndSplineSet
EndChar

StartChar: quoteleft
Encoding: 8216 8216 166
Width: 56
Flags: W
HStem: 132.808 23<23 39> 176.808 7<32.5238 44>
VStem: 16 23<132.808 155.808>
LayerCount: 2
Fore
SplineSet
44 183.807617188 m 5
 44 176.807617188 l 5
 31 176.807617188 24 167.807617188 23 153.807617188 c 5
 30 147.807617188 l 29
 16 155.807617188 l 5
 17 169.807617188 31 183.807617188 44 183.807617188 c 5
39 155.807617188 m 5
 39 132.807617188 l 5
 16 132.807617188 l 5
 16 155.807617188 l 5
 39 155.807617188 l 5
EndSplineSet
EndChar

StartChar: quotedblleft
Encoding: 8220 8220 167
Width: 106
Flags: W
HStem: 132.808 23<23 39 73 89> 176.808 7<32.5238 44 82.5238 94>
VStem: 16 23<132.808 155.808> 66 23<132.808 155.808>
LayerCount: 2
Fore
SplineSet
44 183.807617188 m 5
 44 176.807617188 l 5
 31 176.807617188 24 167.807617188 23 153.807617188 c 5
 30 147.807617188 l 29
 16 155.807617188 l 5
 17 169.807617188 31 183.807617188 44 183.807617188 c 5
39 155.807617188 m 5
 39 132.807617188 l 5
 16 132.807617188 l 5
 16 155.807617188 l 5
 39 155.807617188 l 5
94 183.807617188 m 1
 94 176.807617188 l 1
 81 176.807617188 74 167.807617188 73 153.807617188 c 1
 80 147.807617188 l 25
 66 155.807617188 l 1
 67 169.807617188 81 183.807617188 94 183.807617188 c 1
89 155.807617188 m 1
 89 132.807617188 l 1
 66 132.807617188 l 1
 66 155.807617188 l 1
 89 155.807617188 l 1
EndSplineSet
EndChar

StartChar: quotedblright
Encoding: 8221 8221 168
Width: 106
Flags: W
HStem: 132.808 7<15 26.4762 65 76.4762> 160.808 23<20 43 70 93>
VStem: 20 23<160.808 183.808> 70 23<160.808 183.808>
LayerCount: 2
Fore
SplineSet
65 132.807617188 m 5
 65 139.807617188 l 5
 78 139.807617188 85 148.807617188 86 162.807617188 c 5
 79 168.807617188 l 29
 93 160.807617188 l 5
 92 146.807617188 78 132.807617188 65 132.807617188 c 5
70 160.807617188 m 5
 70 183.807617188 l 5
 93 183.807617188 l 5
 93 160.807617188 l 5
 70 160.807617188 l 5
15 132.807617188 m 1
 15 139.807617188 l 1
 28 139.807617188 35 148.807617188 36 162.807617188 c 1
 29 168.807617188 l 25
 43 160.807617188 l 1
 42 146.807617188 28 132.807617188 15 132.807617188 c 1
20 160.807617188 m 1
 20 183.807617188 l 1
 43 183.807617188 l 1
 43 160.807617188 l 1
 20 160.807617188 l 1
EndSplineSet
EndChar

StartChar: quotedbl
Encoding: 34 34 169
Width: 100
Flags: W
HStem: 131 52.8076<24 31 74 81>
VStem: 16 23<142.843 183.808> 24 7<131 144.383> 66 23<142.843 183.808> 74 7<131 144.383>
LayerCount: 2
Fore
SplineSet
66 160.807617188 m 5x90
 66 183.807617188 l 5
 89 183.807617188 l 5
 89 160.807617188 l 5
 66 160.807617188 l 5x90
81 131 m 5x88
 74 131 l 5x88
 74 144 66 146.807617188 66 160.807617188 c 5
 75 168.807617188 l 5
 89 160.807617188 l 5x90
 88 146.807617188 81 144 81 131 c 5x88
16 160.807617188 m 1xc0
 16 183.807617188 l 1
 39 183.807617188 l 1
 39 160.807617188 l 1
 16 160.807617188 l 1xc0
31 131 m 1xa0
 24 131 l 1xa0
 24 144 16 146.807617188 16 160.807617188 c 1
 25 168.807617188 l 1
 39 160.807617188 l 1xc0
 38 146.807617188 31 144 31 131 c 1xa0
EndSplineSet
EndChar

StartChar: quotesingle
Encoding: 39 39 170
Width: 50
Flags: W
HStem: 131 52.8076<24 31>
VStem: 16 23<142.843 183.808> 24 7<131 144.383>
LayerCount: 2
Fore
SplineSet
16 160.807617188 m 1xc0
 16 183.807617188 l 1
 39 183.807617188 l 1
 39 160.807617188 l 1
 16 160.807617188 l 1xc0
31 131 m 1xa0
 24 131 l 1xa0
 24 144 16 146.807617188 16 160.807617188 c 5
 25 168.807617188 l 1
 39 160.807617188 l 1xc0
 38 146.807617188 31 144 31 131 c 1xa0
EndSplineSet
EndChar

StartChar: exclam
Encoding: 33 33 171
Width: 62
Flags: W
HStem: 0 23<20 43> 164 20G<20 43>
VStem: 20 23<0 23 40 184>
LayerCount: 2
Fore
SplineSet
43 23 m 1
 43 0 l 1
 20 0 l 1
 20 23 l 1
 43 23 l 1
43 184 m 1
 43 40 l 5
 20 40 l 5
 20 184 l 1
 43 184 l 1
EndSplineSet
EndChar

StartChar: question
Encoding: 63 63 172
Width: 126
Flags: W
HStem: 0 23<45.9902 68.9902> 167.969 22.8613<35.5407 82.54>
VStem: 45.9902 23<0 23 40 75.0348> 96.5664 23.4238<120.261 154.389>
LayerCount: 2
Fore
SplineSet
22.302734375 151.422851562 m 1025
6 167.879882812 m 1025
68.990234375 59 m 2
 68.990234375 40 l 5
 45.990234375 40 l 5
 45.990234375 59 l 2
 46 97 96.56640625 108.661132812 96.56640625 133.6875 c 0
 96.56640625 158.338867188 81.4794921875 167.96875 56.828125 167.96875 c 0
 42.7939453125 167.96875 30.38671875 161.606445312 22.302734375 151.422851562 c 1
 6 167.879882812 l 1
 18.310546875 181.986328125 36.4638671875 190.830078125 56.8798828125 190.830078125 c 0
 94.41015625 190.830078125 119.990234375 170.9453125 119.990234375 133.415039062 c 0
 119.990234375 96.0546875 69 90 68.990234375 59 c 2
68.990234375 23 m 1
 68.990234375 0 l 1
 45.990234375 0 l 1
 45.990234375 23 l 1
 68.990234375 23 l 1
EndSplineSet
EndChar

StartChar: cedilla
Encoding: 184 184 173
Width: 116
Flags: W
HStem: -54.8301 22.8613<44.499 73.2206> -19.0312 11.8613<67.8799 72.8595>
VStem: 73.5664 23.4238<-31.5213 -19.2216>
LayerCount: 2
Fore
SplineSet
40.8798828125 -59 m 1025
24.5771484375 -15.45703125 m 1025
67.8798828125 -16 m 1029
51.5771484375 -9.697265625 m 1029
18 -31.8798828125 m 1
 34.302734375 -15.4228515625 l 1
 42.38671875 -25.6064453125 48.7939453125 -31.96875 58.828125 -31.96875 c 0
 63.4794921875 -31.96875 73.56640625 -33.3388671875 73.56640625 -24.6875 c 0
 73.56640625 -19.6611328125 69.4794921875 -19.03125 65.828125 -19.03125 c 4
 62.7939453125 -19.03125 44.8798828125 -19 44.8798828125 -19 c 5
 44.8798828125 -16 l 5
 57.8798828125 0 l 1
 74.8798828125 0 l 1
 67.8798828125 -7.1728515625 l 5
 68.322265625 -7.1689453125 68.662109375 -7.169921875 68.8798828125 -7.169921875 c 4
 86.41015625 -7.169921875 96.990234375 -16.0546875 96.990234375 -29.4150390625 c 0
 96.990234375 -51.9453125 76.41015625 -54.830078125 58.8798828125 -54.830078125 c 0
 42.4638671875 -54.830078125 30.310546875 -45.986328125 18 -31.8798828125 c 1
EndSplineSet
EndChar

StartChar: ogonek
Encoding: 731 731 174
Width: 96
Flags: W
HStem: -51.8301 22.8613<32.8076 61.4912>
VStem: 9 23.4238<-27.5967 -13.2486>
LayerCount: 2
Fore
SplineSet
65.1103515625 -56 m 1025
81.4130859375 -12.45703125 m 1025
35.1103515625 0 m 1025
51.4130859375 16.302734375 m 1025
87.990234375 -28.8798828125 m 1
 75.6796875 -42.986328125 63.5263671875 -51.830078125 47.1103515625 -51.830078125 c 0
 29.580078125 -51.830078125 9 -43.9453125 9 -21.4150390625 c 0
 9 -4.0546875 27.76171875 4.2197265625 44.8798828125 8 c 2
 56.8798828125 11 l 5
 67.8798828125 -6 l 5
 46.8798828125 -10 l 0
 36.8798828125 -12 32.423828125 -16.6611328125 32.423828125 -21.6875 c 0
 32.423828125 -28.3388671875 42.5107421875 -28.96875 47.162109375 -28.96875 c 0
 57.1962890625 -28.96875 63.603515625 -22.6064453125 71.6875 -12.4228515625 c 1
 87.990234375 -28.8798828125 l 1
EndSplineSet
EndChar

StartChar: asciicircum
Encoding: 94 94 177
Width: 138
Flags: W
HStem: 164 20G<47.2353 93.7647>
LayerCount: 2
Fore
SplineSet
9 99 m 5
 59 184 l 1
 82 184 l 1
 32 99 l 5
 9 99 l 5
132 99 m 5
 109 99 l 5
 59 184 l 1
 82 184 l 1
 132 99 l 5
EndSplineSet
EndChar

StartChar: underscore
Encoding: 95 95 178
Width: 147
Flags: W
HStem: -23 23<17 131>
LayerCount: 2
Fore
SplineSet
17 0 m 5
 131 0 l 5
 131 -23 l 5
 17 -23 l 5
 17 0 l 5
EndSplineSet
EndChar

StartChar: germandbls
Encoding: 223 223 179
Width: 155
Flags: W
HStem: -4.41504 22.8613<74.3073 109.189> 0 21G<17 40.1104> 79.5996 20<90.1104 102.797> 161 23<57.2499 103.97>
VStem: 17 23.1104<0.584961 142.936> 119.11 23<29.5482 67.4348 113.228 147.342>
LayerCount: 2
Fore
SplineSet
142.110351562 53 m 1x7c
 142.110351562 15.4697265625 120.530273438 -4.4150390625 93 -4.4150390625 c 0
 72.583984375 -4.4150390625 64.4306640625 0.4287109375 52 14.4150390625 c 1
 68.4228515625 30.837890625 l 17
 76.5068359375 20.80859375 78.9140625 18.4462890625 92.9482421875 18.4462890625 c 0xbc
 108.599609375 18.4462890625 118.686523438 28.076171875 119 52.5849609375 c 1
 119.110351562 61.599609375 111.110351562 79.599609375 90.1103515625 79.599609375 c 1
 90.1103515625 99.599609375 l 1
 111.110351562 99.599609375 119.110351562 120.599609375 119.110351562 129.599609375 c 0
 119.110351562 157.599609375 92.703125 160.71875 81.1103515625 161 c 0
 65.5146484375 161.377929688 40.423828125 155.508789062 40.1103515625 122 c 1
 40.1103515625 0 l 1
 17 0.5849609375 l 1
 17 121.584960938 l 1
 17 168.115234375 53.580078125 184 81.1103515625 184 c 0
 112.704101562 184 142.110351562 162.599609375 142.110351562 129.599609375 c 0
 142.110351562 111.908203125 130.110351562 90 109.110351562 90 c 1
 103.110351562 90 l 1
 109.110351562 90 l 5
 127.151367188 89.4560546875 141.642578125 80.208984375 142.110351562 53 c 1x7c
EndSplineSet
Substitution2: "'sups' Superscript in Latin lookup 0 subtable" germandbls.superior
EndChar

StartChar: bar
Encoding: 124 124 180
Width: 63
Flags: W
HStem: 164 20G<20 43>
VStem: 20 23<-40 184>
LayerCount: 2
Fore
SplineSet
20 -40 m 5
 20 184 l 1
 43 184 l 1
 43 -40 l 5
 20 -40 l 5
EndSplineSet
EndChar

StartChar: asciitilde
Encoding: 126 126 181
Width: 156
Flags: W
HStem: 67 22.8613<90.626 121.56> 94.1387 22.8613<38.8291 64.9221>
LayerCount: 2
Fore
SplineSet
27.302734375 72.5927734375 m 1025
11 89.0498046875 m 1025
86.759765625 99.0498046875 m 1025
70.45703125 82.5927734375 m 1025
130.45703125 111.407226562 m 1025
146.759765625 94.9501953125 m 1025
106.879882812 67 m 0
 87.4638671875 67 75 77 70.45703125 82.5927734375 c 0
 66.0390625 88.0322265625 60.9658203125 94.138671875 51.931640625 94.138671875 c 0
 45.7939453125 94.138671875 34 89 27.302734375 72.5927734375 c 1
 11 89.0498046875 l 1
 22 110.807617188 39.4638671875 117 51.8798828125 117 c 4
 67.2958984375 117 80 107 86.759765625 99.0498046875 c 0
 91.9443359375 92.9521484375 99.7939453125 89.861328125 106.828125 89.861328125 c 0
 120.965820312 89.861328125 125 98 130.45703125 111.407226562 c 1
 146.759765625 94.9501953125 l 1
 140 78 127.295898438 67 106.879882812 67 c 0
EndSplineSet
EndChar

StartChar: lozenge
Encoding: 9674 9674 182
Width: 133
Flags: W
HStem: 0 21G<45.1669 89.8331> 164.619 20G<45.1669 89.8331>
LayerCount: 2
Fore
SplineSet
56 0 m 1
 6 92.3095703125 l 1
 56 184.619140625 l 1
 79 184.619140625 l 1
 129 92.3095703125 l 1
 79 0 l 1
 56 0 l 1
67.5 21.2314453125 m 1
 106 92.3095703125 l 1
 67.5 163.387695312 l 1
 29 92.3095703125 l 1
 67.5 21.2314453125 l 1
EndSplineSet
EndChar

StartChar: divide
Encoding: 247 247 183
Width: 132
Flags: W
HStem: 39 23<54 77> 87 23<10 124> 141 23<54 77>
VStem: 54 23<39 62 141 164>
LayerCount: 2
Fore
SplineSet
54 39 m 5
 54 62 l 5
 77 62 l 5
 77 39 l 5
 54 39 l 5
54 141 m 1
 54 164 l 1
 77 164 l 1
 77 141 l 1
 54 141 l 1
10 110 m 1
 124 110 l 1
 124 87 l 1
 10 87 l 1
 10 110 l 1
EndSplineSet
Substitution2: "'numr' Numerators lookup 0 subtable" divide.numerator
Substitution2: "'dnom' Denominators lookup 0 subtable" divide.denominator
Substitution2: "'sups' Superscript in Latin lookup 0 subtable" divide.superior
EndChar

StartChar: guillemotleft
Encoding: 171 171 184
Width: 108
Flags: W
LayerCount: 2
Fore
SplineSet
95 25 m 5
 50 75 l 5
 50 98 l 5
 95 48 l 5
 95 25 l 5
95 148 m 5
 95 125 l 5
 50 75 l 5
 50 98 l 5
 95 148 l 5
55 25 m 1
 10 75 l 1
 10 98 l 1
 55 48 l 1
 55 25 l 1
55 148 m 1
 55 125 l 1
 10 75 l 1
 10 98 l 1
 55 148 l 1
EndSplineSet
EndChar

StartChar: guillemotright
Encoding: 187 187 185
Width: 106
Flags: W
LayerCount: 2
Fore
SplineSet
13 148 m 5
 58 98 l 5
 58 75 l 5
 13 125 l 5
 13 148 l 5
13 25 m 5
 13 48 l 5
 58 98 l 5
 58 75 l 5
 13 25 l 5
53 148 m 1
 98 98 l 1
 98 75 l 1
 53 125 l 1
 53 148 l 1
53 25 m 1
 53 48 l 1
 98 98 l 1
 98 75 l 1
 53 25 l 1
EndSplineSet
EndChar

StartChar: Delta
Encoding: 8710 8710 186
Width: 152
Flags: W
HStem: 0 21G<3 146> 164 20G<56.4783 92.5217>
LayerCount: 2
Fore
SplineSet
19 23 m 1
 133 23 l 1
 146 0 l 1
 3 0 l 1
 19 23 l 1
3 0 m 1
 63 184 l 1
 86 184 l 1
 33 18 l 1
 3 0 l 1
146 0 m 1
 118 15 l 1
 63 184 l 1
 86 184 l 1
 146 0 l 1
EndSplineSet
EndChar

StartChar: braceleft
Encoding: 123 123 187
Width: 92
Flags: W
HStem: 57 20<6 22.6495> 163.808 20G<60.5 88>
VStem: 35 23<-8.11169 45.2661 90.4442 143.144>
LayerCount: 2
Fore
SplineSet
6 77 m 21
 27 77 35 98 35 107 c 4
 35 154 52 164.807617188 69 183.807617188 c 1
 88 174 l 1
 69 153 58.611328125 151.252929688 58 107 c 4
 57.8759765625 98.0009765625 50 69 29 69 c 4
 50 69 57.8759765625 38.9990234375 58 30 c 4
 58.611328125 -14.2529296875 69 -19 88 -40 c 1
 69 -49.8076171875 l 1
 52 -30.8076171875 35 -17 35 30 c 4
 35 39 27 57 6 57 c 5
 6 77 l 21
282 247 m 1049
EndSplineSet
Substitution2: "'numr' Numerators lookup 0 subtable" braceleft.numerator
Substitution2: "'dnom' Denominators lookup 0 subtable" braceleft.denominator
EndChar

StartChar: braceright
Encoding: 125 125 188
Width: 93
Flags: W
HStem: 57 20<71.3505 88> 163.808 20G<6 33.5>
VStem: 36 23<-9.14358 43.5558 88.7339 142.112>
LayerCount: 2
Fore
SplineSet
88 57 m 21
 67 57 59 36 59 27 c 4
 59 -20 42 -30.8076171875 25 -49.8076171875 c 1
 6 -40 l 1
 25 -19 35.388671875 -17.2529296875 36 27 c 4
 36.1240234375 35.9990234375 44 65 65 65 c 4
 44 65 36.1240234375 95.0009765625 36 104 c 4
 35.388671875 148.252929688 25 153 6 174 c 1
 25 183.807617188 l 1
 42 164.807617188 59 151 59 104 c 4
 59 95 67 77 88 77 c 5
 88 57 l 21
-188 -113 m 1049
EndSplineSet
Substitution2: "'numr' Numerators lookup 0 subtable" braceright.numerator
Substitution2: "'dnom' Denominators lookup 0 subtable" braceright.denominator
EndChar

StartChar: percent
Encoding: 37 37 189
Width: 184
Flags: W
HStem: -3 23.7109<125.255 148.415> 0 21G<32 66.3162> 51.2891 23.7109<125.255 148.415> 109 23.7109<34.832 57.9919> 163.289 23.7109<34.832 57.9919> 163.808 20G<124.684 159>
VStem: 8 23<136.188 159.812> 61.5771 24.4229<136.188 159.812> 98.4229 23<24.1877 47.8123> 152 24.4229<24.1877 47.8123>
LayerCount: 2
Fore
SplineSet
121.422851562 36 m 0xb3c0
 121.422851562 27.3759765625 128.0859375 20.7109375 136.711914062 20.7109375 c 0
 145.334960938 20.7109375 152 27.3759765625 152 36 c 0
 152 44.6240234375 145.334960938 51.2890625 136.711914062 51.2890625 c 0
 128.0859375 51.2890625 121.422851562 44.6240234375 121.422851562 36 c 0xb3c0
98.4228515625 36 m 0
 98.4228515625 58 115.422851562 75 137.422851562 75 c 0
 159.422851562 75 176.422851562 58 176.422851562 36 c 0
 176.422851562 14 159.422851562 -3 137.422851562 -3 c 0
 115.422851562 -3 98.4228515625 14 98.4228515625 36 c 0
31 148 m 0
 31 139.375976562 37.6630859375 132.7109375 46.2890625 132.7109375 c 0
 54.912109375 132.7109375 61.5771484375 139.375976562 61.5771484375 148 c 0
 61.5771484375 156.624023438 54.912109375 163.2890625 46.2890625 163.2890625 c 0x3bc0
 37.6630859375 163.2890625 31 156.624023438 31 148 c 0
8 148 m 0
 8 170 25 187 47 187 c 0
 69 187 86 170 86 148 c 0
 86 126 69 109 47 109 c 0
 25 109 8 126 8 148 c 0
32 0 m 1x77c0
 136 183.807617188 l 1
 159 183.807617188 l 1
 55 0 l 1
 32 0 l 1x77c0
EndSplineSet
EndChar

StartChar: equal
Encoding: 61 61 190
Width: 144
Flags: W
HStem: 57 23<16 130> 107 23<16 130>
LayerCount: 2
Fore
SplineSet
16 80 m 5
 130 80 l 5
 130 57 l 5
 16 57 l 5
 16 80 l 5
16 130 m 5
 130 130 l 5
 130 107 l 5
 16 107 l 5
 16 130 l 5
EndSplineSet
Substitution2: "'numr' Numerators lookup 0 subtable" equal.numerator
Substitution2: "'dnom' Denominators lookup 0 subtable" equal.denominator
EndChar

StartChar: ampersand
Encoding: 38 38 191
Width: 160
Flags: W
HStem: -6 22.8613<52.4764 99.5673> 0 21G<109 132> 80 23<56.1094 109 132 155> 166.969 22.8613<51.4773 98.5683>
VStem: 12.999 23.4238<31.6991 67.289 115.045 153.557> 61 33.1094<80 103> 109 23<33.2529 80>
LayerCount: 2
Fore
SplineSet
356 166 m 1049x3e
61 103 m 1
 155 103 l 1
 155 80 l 1
 132 80 l 1
 132 0 l 1
 109 0 l 1x7e
 109 80 l 1
 61 80 l 1
 61 103 l 1
115.686523438 33.2529296875 m 1025
131.989257812 16.9501953125 m 1025
114.6875 150.577148438 m 1025
130.990234375 166.879882812 m 1025
65.083984375 82.8544921875 m 1
 65.109375 82.833984375 l 1
 65.09765625 82.833984375 65.083984375 82.8408203125 65.083984375 82.8544921875 c 1
75.109375 80 m 6
 56.109375 79.830078125 36.4228515625 74.1689453125 36.4228515625 49.517578125 c 4
 36.4228515625 24.4912109375 59.509765625 16.861328125 74.1611328125 16.861328125 c 4
 88.1953125 16.861328125 107.602539062 23.2236328125 115.686523438 33.2529296875 c 5
 132.109375 16.830078125 l 5
 119.678710938 2.84375 94.525390625 -6 74.109375 -6 c 4xbe
 46.5791015625 -6 13.1767578125 11.884765625 12.9990234375 49.2451171875 c 4
 12.89453125 71.18359375 33.822265625 88.4404296875 48.802734375 91.18359375 c 5
 33.2646484375 94.15625 11.8916015625 111.854492188 12 134.584960938 c 4
 12.177734375 171.9453125 45.580078125 189.830078125 73.1103515625 189.830078125 c 4
 93.5263671875 189.830078125 118.6796875 180.986328125 131.110351562 167 c 5
 114.6875 150.577148438 l 5
 106.603515625 160.606445312 87.1962890625 166.96875 73.162109375 166.96875 c 4
 58.5107421875 166.96875 35.423828125 159.338867188 35.423828125 134.3125 c 4
 35.423828125 111.71484375 52.0908203125 104.178710938 68.69140625 103 c 6
 94.109375 103 l 5
 94.109375 80 l 5
 75.109375 80 l 6
EndSplineSet
EndChar

StartChar: approxequal
Encoding: 8776 8776 192
Width: 156
Flags: W
HStem: 47 22.8613<90.626 121.56> 74.1387 22.8613<38.8291 64.9221> 97 22.8613<90.626 121.56> 124.139 22.8613<38.8291 64.9221>
LayerCount: 2
Fore
SplineSet
27.302734375 52.5927734375 m 1029x90
11 69.0498046875 m 1029
86.759765625 79.0498046875 m 1029
70.45703125 62.5927734375 m 1029
130.45703125 91.4072265625 m 1029
146.759765625 74.9501953125 m 1029
106.879882812 47 m 4
 127.295898438 47 140 58 146.759765625 74.9501953125 c 5
 130.45703125 91.4072265625 l 5
 125 78 120.965820312 69.861328125 106.828125 69.861328125 c 4
 99.7939453125 69.861328125 91.9443359375 72.9521484375 86.759765625 79.0498046875 c 4
 80 87 67.2958984375 97 51.8798828125 97 c 4
 39.4638671875 97 22 90.8076171875 11 69.0498046875 c 5
 27.302734375 52.5927734375 l 5
 34 69 45.7939453125 74.138671875 51.931640625 74.138671875 c 4xd0
 60.9658203125 74.138671875 66.0390625 68.0322265625 70.45703125 62.5927734375 c 4
 75 57 87.4638671875 47 106.879882812 47 c 4
27.302734375 102.592773438 m 1025
11 119.049804688 m 1025
86.759765625 129.049804688 m 1025
70.45703125 112.592773438 m 1025
130.45703125 141.407226562 m 1025
146.759765625 124.950195312 m 1025
106.879882812 97 m 0xb0
 127.295898438 97 140 108 146.759765625 124.950195312 c 1
 130.45703125 141.407226562 l 1
 125 128 120.965820312 119.861328125 106.828125 119.861328125 c 0
 99.7939453125 119.861328125 91.9443359375 122.952148438 86.759765625 129.049804688 c 0
 80 137 67.2958984375 147 51.8798828125 147 c 0
 39.4638671875 147 22 140.807617188 11 119.049804688 c 1
 27.302734375 102.592773438 l 1
 34 119 45.7939453125 124.138671875 51.931640625 124.138671875 c 0
 60.9658203125 124.138671875 66.0390625 118.032226562 70.45703125 112.592773438 c 0
 75 107 87.4638671875 97 106.879882812 97 c 0xb0
EndSplineSet
EndChar

StartChar: bullet
Encoding: 8226 8226 194
Width: 51
Flags: W
HStem: 87 23<15 38>
VStem: 15 23<87 110>
LayerCount: 2
Fore
SplineSet
15 87 m 5
 15 110 l 5
 38 110 l 5
 38 87 l 5
 15 87 l 5
EndSplineSet
EndChar

StartChar: copyright
Encoding: 169 169 195
Width: 208
Flags: W
HStem: -3 18<74.4709 141.53> 25 18<92.4712 140.131> 139 19<92.4712 139.426> 169 19<75.325 140.76>
VStem: 11 16<59.1217 123.069> 49 16<69.2757 112.778> 183 16<56.6682 125.557>
LayerCount: 2
Fore
SplineSet
109 15 m 4
 81 15 27 24 27 91 c 0
 27 158 81 169 109 169 c 4
 137 169 183 158 183 91 c 0
 183 24 137 15 109 15 c 4
110 188 m 4
 73 188 11 168 11 91 c 0
 11 14 73 -3 110 -3 c 4
 147 -3 199 14 199 91 c 0
 199 168 147 188 110 188 c 4
115 25 m 0
 78 25 49 54 49 91 c 0
 49 128 78 158 115 158 c 0
 142 158 155 144 163 133 c 1
 153 122 l 1
 148 128 138 139 116 139 c 0
 88 139 65 118 65 91 c 0
 65 64 88 43 116 43 c 0
 138 43 148 53 153 60 c 1
 163 49 l 1
 155 39 142 25 115 25 c 0
EndSplineSet
EndChar

StartChar: registered
Encoding: 174 174 196
Width: 208
Flags: W
HStem: -3 18<74.4709 141.53> 92 17<85 90 105 124.912> 92 6<90 106> 138 16<85 124.05> 169 19<75.325 140.76>
VStem: 11 16<59.1217 123.069> 68 17<31 92 109 138> 128 17<112.615 133.651> 183 16<56.6682 125.557>
LayerCount: 2
Fore
SplineSet
136 31 m 5xbf80
 90 98 l 5
 106 98 l 5
 152 31 l 5
 136 31 l 5xbf80
105 138 m 6
 85 138 l 5
 85 109 l 5
 105 109 l 6xdf80
 120 109 128 112 128 125 c 4
 128 132 120 138 105 138 c 6
68 31 m 5
 68 154 l 5
 105 154 l 6
 129 154 145 140 145 124 c 4
 145 102 129 92 105 92 c 6
 85 92 l 5
 85 31 l 5
 68 31 l 5
109 15 m 0
 81 15 27 24 27 91 c 0
 27 158 81 169 109 169 c 0
 137 169 183 158 183 91 c 0
 183 24 137 15 109 15 c 0
110 188 m 0
 73 188 11 168 11 91 c 0
 11 14 73 -3 110 -3 c 0
 147 -3 199 14 199 91 c 0
 199 168 147 188 110 188 c 0
EndSplineSet
EndChar

StartChar: notequal
Encoding: 8800 8800 197
Width: 139
Flags: W
HStem: 57 23<13 127> 107 23<13 127>
LayerCount: 2
Fore
SplineSet
13 27 m 1
 104 160 l 5
 127 160 l 5
 36 27 l 1
 13 27 l 1
13 80 m 1
 127 80 l 1
 127 57 l 1
 13 57 l 1
 13 80 l 1
13 130 m 1
 127 130 l 1
 127 107 l 1
 13 107 l 1
 13 130 l 1
EndSplineSet
EndChar

StartChar: dollar
Encoding: 36 36 198
Width: 139
Flags: W
HStem: -6.83008 22.8613<44.1971 93.9727> 166.969 22.8613<53.2426 96.5693>
VStem: 10.001 23.4238<117.422 152.131> 59 23<-39 214> 106.798 23.4238<29.017 65.9237>
LayerCount: 2
Fore
SplineSet
59 -39 m 5
 59 214 l 5
 82 214 l 5
 82 -39 l 5
 59 -39 l 5
27.5341796875 32.4228515625 m 1025
11.2314453125 16.1201171875 m 1025
112.688476562 150.577148438 m 1025
128.991210938 166.879882812 m 1025
72.0595703125 79.96875 m 0
 42.423828125 86.7177734375 9.8203125 96.7666015625 10.0009765625 134.584960938 c 0
 10.1787109375 171.9453125 43.5810546875 189.830078125 71.111328125 189.830078125 c 0
 91.52734375 189.830078125 116.680664062 180.986328125 129.111328125 167 c 1
 112.688476562 150.577148438 l 1
 104.604492188 160.606445312 85.197265625 166.96875 71.1630859375 166.96875 c 0
 56.51171875 166.96875 33.4248046875 159.338867188 33.4248046875 134.3125 c 0
 33.4248046875 109.661132812 53.111328125 107 72.111328125 102.830078125 c 0
 108.768554688 94.78515625 130.221679688 78.9453125 130.221679688 51.4150390625 c 0
 130.221679688 14.0546875 108.641601562 -6.830078125 71.111328125 -6.830078125 c 0
 50.6953125 -6.830078125 23.5419921875 2.013671875 11.111328125 16 c 1
 27.5341796875 32.4228515625 l 1
 35.6181640625 22.3935546875 57.025390625 16.03125 71.0595703125 16.03125 c 0
 95.7109375 16.03125 106.797851562 26.6611328125 106.797851562 51.6875 c 0
 106.797851562 65.3388671875 96.095703125 74.4951171875 72.0595703125 79.96875 c 0
EndSplineSet
Substitution2: "Tabular Forms-1" dollar.tnum
Substitution2: "'salt' Stylistic Alternatives in Latin lookup 9-1" dollar.salt
EndChar

StartChar: dollar.salt
Encoding: 65546 -1 199
Width: 139
Flags: W
HStem: -6.83008 12.8301<59 82> 176 13.8301<59 82>
VStem: 10.001 23.4238<117.422 152.131> 59 23<-39 6 176 214> 106.798 23.4238<29.017 65.9237>
LayerCount: 2
Fore
SplineSet
59 6 m 5
 82 6 l 5
 82 -39 l 5
 59 -39 l 5
 59 6 l 5
59 176 m 1
 59 214 l 1
 82 214 l 1
 82 176 l 1
 59 176 l 1
27.5341796875 32.4228515625 m 1025
11.2314453125 16.1201171875 m 1025
112.688476562 150.577148438 m 1025
128.991210938 166.879882812 m 1025
72.0595703125 79.96875 m 0
 42.423828125 86.7177734375 9.8203125 96.7666015625 10.0009765625 134.584960938 c 0
 10.1787109375 171.9453125 43.5810546875 189.830078125 71.111328125 189.830078125 c 0
 91.52734375 189.830078125 116.680664062 180.986328125 129.111328125 167 c 1
 112.688476562 150.577148438 l 1
 104.604492188 160.606445312 85.197265625 166.96875 71.1630859375 166.96875 c 0
 56.51171875 166.96875 33.4248046875 159.338867188 33.4248046875 134.3125 c 0
 33.4248046875 109.661132812 53.111328125 107 72.111328125 102.830078125 c 0
 108.768554688 94.78515625 130.221679688 78.9453125 130.221679688 51.4150390625 c 0
 130.221679688 14.0546875 108.641601562 -6.830078125 71.111328125 -6.830078125 c 0
 50.6953125 -6.830078125 23.5419921875 2.013671875 11.111328125 16 c 1
 27.5341796875 32.4228515625 l 1
 35.6181640625 22.3935546875 57.025390625 16.03125 71.0595703125 16.03125 c 0
 95.7109375 16.03125 106.797851562 26.6611328125 106.797851562 51.6875 c 0
 106.797851562 65.3388671875 96.095703125 74.4951171875 72.0595703125 79.96875 c 0
EndSplineSet
EndChar

StartChar: dollar.tnum
Encoding: 65547 -1 200
Width: 149
Flags: W
HStem: -6.83008 22.8613<48.5857 98.3614> 166.969 22.8613<57.6313 100.958>
VStem: 14.3896 23.4238<117.422 152.131> 63.3887 23<-39 214> 111.187 23.4238<29.017 65.9237>
LayerCount: 2
Fore
SplineSet
63.388671875 -39 m 5
 63.388671875 214 l 5
 86.388671875 214 l 5
 86.388671875 -39 l 5
 63.388671875 -39 l 5
31.9228515625 32.4228515625 m 1025
15.6201171875 16.1201171875 m 1025
117.077148438 150.577148438 m 1025
133.379882812 166.879882812 m 1025
76.4482421875 79.96875 m 0
 46.8125 86.7177734375 14.208984375 96.7666015625 14.3896484375 134.584960938 c 0
 14.5673828125 171.9453125 47.9697265625 189.830078125 75.5 189.830078125 c 0
 95.916015625 189.830078125 121.069335938 180.986328125 133.5 167 c 1
 117.077148438 150.577148438 l 1
 108.993164062 160.606445312 89.5859375 166.96875 75.5517578125 166.96875 c 0
 60.900390625 166.96875 37.8134765625 159.338867188 37.8134765625 134.3125 c 0
 37.8134765625 109.661132812 57.5 107 76.5 102.830078125 c 0
 113.157226562 94.78515625 134.610351562 78.9453125 134.610351562 51.4150390625 c 0
 134.610351562 14.0546875 113.030273438 -6.830078125 75.5 -6.830078125 c 0
 55.083984375 -6.830078125 27.9306640625 2.013671875 15.5 16 c 1
 31.9228515625 32.4228515625 l 1
 40.0068359375 22.3935546875 61.4140625 16.03125 75.4482421875 16.03125 c 0
 100.099609375 16.03125 111.186523438 26.6611328125 111.186523438 51.6875 c 0
 111.186523438 65.3388671875 100.484375 74.4951171875 76.4482421875 79.96875 c 0
316.388671875 247 m 1049
38.8115234375 33.5771484375 m 1025
22.5087890625 17.1201171875 m 1025
EndSplineSet
EndChar

StartChar: cent.open
Encoding: 65548 -1 201
Width: 139
Flags: W
HStem: 0 21G<65 88> 25.1699 7.83008<65 88> 147.047 12.7832<69.7688 88> 164 20G<65 88>
VStem: 10 23.4238<70.9832 113.212> 65 23<0 33 147.047 183.973>
LayerCount: 2
Fore
SplineSet
88 33 m 1
 88 0 l 1
 65 0 l 1
 65 33 l 1
 88 33 l 1
65 144.786132812 m 1
 65 184 l 1
 88 184 l 5
 88 184 88 147.046749799 88 147.046875 c 1
 65 144.786132812 l 1
128.990234375 48.1201171875 m 1
 116.6796875 34.013671875 98.5263671875 25.169921875 78.1103515625 25.169921875 c 0
 40.580078125 25.169921875 10 55.0546875 10 92.5849609375 c 0
 10 129.9453125 40.580078125 159.830078125 78.1103515625 159.830078125 c 0
 98.5263671875 159.830078125 116.6796875 150.986328125 129.110351562 137 c 1
 112.6875 120.577148438 l 17
 104.603515625 130.606445312 92.1962890625 136.96875 78.162109375 136.96875 c 0
 53.5107421875 136.96875 33.423828125 117.338867188 33.423828125 92.3125 c 0
 33.423828125 67.6611328125 53.5107421875 48.03125 78.162109375 48.03125 c 0
 92.1962890625 48.03125 104.603515625 54.3935546875 112.6875 64.5771484375 c 1
 128.990234375 48.1201171875 l 1
112.6875 64.5771484375 m 1025
128.990234375 48.1201171875 m 1025
112.6875 120.577148438 m 1025
128.990234375 136.879882812 m 1025
EndSplineSet
EndChar

StartChar: trademark
Encoding: 8482 8482 202
Width: 255
Flags: W
HStem: 176 17<8 40 58 86> 176 10<40 58>
VStem: 40 18<70 186> 99 18<70 193> 221 18<70 193>
LayerCount: 2
Fore
SplineSet
239 70 m 5xb8
 221 70 l 5
 221 193 l 1
 239 193 l 1
 239 70 l 5xb8
161 70 m 1
 223 193 l 1
 239 193 l 1
 177 70 l 1
 161 70 l 1
177 70 m 1
 161 70 l 1
 99 193 l 1
 115 193 l 1
 177 70 l 1
99 70 m 1
 99 193 l 1
 117 193 l 1
 117 70 l 1
 99 70 l 1
306 317 m 1049
8 193 m 1
 86 193 l 1
 86 176 l 1
 8 176 l 1
 8 193 l 1
40 70 m 1
 40 186 l 1
 58 186 l 1x78
 58 70 l 1
 40 70 l 1
EndSplineSet
EndChar

StartChar: plusminus
Encoding: 177 177 203
Width: 137
Flags: W
HStem: 17 23<11 125> 107 23<11 125>
VStem: 57 23<59 173>
LayerCount: 2
Fore
SplineSet
11 40 m 5
 125 40 l 5
 125 17 l 5
 11 17 l 5
 11 40 l 5
80 173 m 5
 80 59 l 5
 57 59 l 5
 57 173 l 5
 80 173 l 5
11 130 m 5
 125 130 l 5
 125 107 l 5
 11 107 l 5
 11 130 l 5
EndSplineSet
EndChar

StartChar: infinity
Encoding: 8734 8734 204
Width: 218
Flags: W
HStem: 44.7793 23.4238<46.5711 85.1819 135.816 176.665> 123.576 23.4238<46.5711 84.198 138.163 173.954>
VStem: 13 22.8613<78.3294 113.441> 185.969 22.8613<77.3304 112.442>
LayerCount: 2
Fore
SplineSet
101.833984375 86.8896484375 m 1025
122.830078125 93.890625 m 2
 121.686523438 92.439453125 130.71484375 67.2041015625 153.3125 67.2041015625 c 0
 178.338867188 67.2041015625 185.96875 80.291015625 185.96875 94.8388671875 c 0
 185.96875 109.490234375 178.338867188 122.577148438 153.3125 122.577148438 c 0
 128.661132812 122.577148438 122.830078125 93.890625 122.830078125 93.890625 c 2
208.830078125 94.890625 m 0
 208.830078125 67.3603515625 190.9453125 43.9580078125 153.584960938 43.7802734375 c 0
 130.854492188 43.6708984375 113.15625 55.044921875 110.18359375 70.5830078125 c 1
 107.440429688 55.6025390625 90.18359375 44.6748046875 68.2451171875 44.779296875 c 0
 30.884765625 44.95703125 13 68.359375 13 95.8896484375 c 0
 13 123.419921875 30.884765625 146.822265625 68.2451171875 147 c 0
 90.9755859375 147.108398438 108.673828125 125.735351562 111.646484375 110.197265625 c 1
 114.389648438 125.177734375 131.646484375 146.10546875 153.584960938 146.000976562 c 0
 190.9453125 145.823242188 208.830078125 122.420898438 208.830078125 94.890625 c 0
119.99609375 103.890625 m 1025
98.830078125 95.30859375 m 2
 98.830078125 95.30859375 91.115234375 123.576171875 68.517578125 123.576171875 c 0
 43.4912109375 123.576171875 35.861328125 110.489257812 35.861328125 95.837890625 c 0
 35.861328125 81.2900390625 43.4912109375 68.203125 68.517578125 68.203125 c 0
 93.1689453125 68.203125 99.267578125 94.78515625 98.830078125 95.30859375 c 2
EndSplineSet
EndChar

StartChar: yen
Encoding: 165 165 205
Width: 151
Flags: W
HStem: 0 21G<66 89> 40 23<20 134> 80 23<20 66 89 134> 164 20G<6 41 114 149>
VStem: 66 23<0 84>
LayerCount: 2
Fore
SplineSet
20 63 m 5
 134 63 l 5
 134 40 l 5
 20 40 l 5
 20 63 l 5
20 103 m 1
 134 103 l 1
 134 80 l 1
 20 80 l 1
 20 103 l 1
66 0 m 1
 66 84 l 1
 89 84 l 1
 89 0 l 1
 66 0 l 1
149 184 m 1
 89 84 l 1
 66 84 l 1
 126 184 l 1
 149 184 l 1
6 184 m 1
 29 184 l 1
 89 84 l 1
 66 84 l 1
 6 184 l 1
EndSplineSet
EndChar

StartChar: mu
Encoding: 181 181 206
Width: 170
Flags: W
HStem: -5 22.8613<63.6655 106.534> -0.169922 21G<130 153> 105 19.8301G<18 41.1104 130 153>
VStem: 18.1104 23<-59 125> 130 23<61.8301 124.83>
LayerCount: 2
Fore
SplineSet
18.1103515625 -59 m 5x38
 18.1103515625 125 l 5
 41.1103515625 125 l 5
 41.1103515625 -59 l 5
 18.1103515625 -59 l 5x38
41 61.830078125 m 17
 41.6669921875 37.4912109375 60.296875 17.861328125 84.9482421875 17.861328125 c 0
 109.599609375 17.861328125 129.686523438 37.4912109375 130 61.830078125 c 9
 153 62.830078125 l 1
 153.110351562 24.884765625 122.530273438 -5 85 -5 c 0xb8
 47.4697265625 -5 18.5849609375 24.884765625 18 62.830078125 c 9
 18 124.830078125 l 25
 41 124.830078125 l 25
 41 61.830078125 l 17
153 124.830078125 m 1
 153 -0.169921875 l 1
 130 -0.169921875 l 1x78
 130 124.830078125 l 1
 153 124.830078125 l 1
EndSplineSet
EndChar

StartChar: partialdiff
Encoding: 8706 8706 207
Width: 147
Flags: W
HStem: -6 22.8613<52.4758 95.5086> 90.1738 20.7949<53.6651 94.0449> 166.969 22.8613<42.8523 94.6527>
VStem: 12.8887 23.4238<33.6482 72.8963> 111.686 23.4238<33.6482 76.2451 134.585 150.677>
LayerCount: 2
Fore
SplineSet
120.999023438 81 m 17
 117.999023438 96.0263671875 98.599609375 110.96875 73.9482421875 110.96875 c 0
 31.953125 110.96875 12.7841796875 78.18359375 12.888671875 56.2451171875 c 0
 13.06640625 18.884765625 36.46875 -6 73.9990234375 -6 c 0
 111.529296875 -6 134.931640625 18.884765625 135.109375 56.2451171875 c 1
 134.110351562 134.584960938 l 1
 133.932617188 171.9453125 100.530273438 189.830078125 73 189.830078125 c 0
 33.583984375 189.830078125 21.4306640625 175.986328125 9 162 c 1
 25.4228515625 145.577148438 l 1
 33.5068359375 155.606445312 39.9140625 166.96875 72.9482421875 166.96875 c 0
 87.599609375 166.96875 110.686523438 159.338867188 111.110351562 134.584960938 c 1
 112.109375 76.2451171875 l 1
 111.931640625 38.884765625 120.999023438 81 120.999023438 81 c 17
36.3125 56.517578125 m 1
 36.9990234375 70 47.9130859375 90.173828125 73.947265625 90.173828125 c 0
 88.5986328125 90.173828125 111.685546875 79.5439453125 111.685546875 56.517578125 c 0
 111.685546875 31.4912109375 98.5986328125 16.861328125 73.947265625 16.861328125 c 0
 49.3994140625 16.861328125 36.3125 31.4912109375 36.3125 56.517578125 c 1
-20.578125 140.747070312 m 1025
-36.880859375 157.049804688 m 1025
EndSplineSet
EndChar

StartChar: summation
Encoding: 8721 8721 208
Width: 156
Flags: W
LayerCount: 2
Fore
SplineSet
149 -52 m 1
 149 -29 l 1
 26 -29 l 1
 6 -52 l 1
 149 -52 l 1
106 61 m 5
 83 61 l 5
 6 -52 l 1
 40 -35 l 1
 106 61 l 5
149 184 m 1
 6 184 l 1
 26 161 l 1
 149 161 l 1
 149 184 l 1
6 184 m 1
 83 61 l 5
 106 61 l 5
 35 174 l 1
 6 184 l 1
EndSplineSet
EndChar

StartChar: product
Encoding: 8719 8719 209
Width: 175
Flags: W
HStem: 161 23<43 132>
VStem: 20 23<-50 161> 132 23<-50 161>
LayerCount: 2
Fore
SplineSet
267 247 m 1049
20 -50 m 5
 20 184 l 1
 155 184 l 1
 155 -50 l 5
 132 -50 l 5
 132 161 l 1
 43 161 l 1
 43 -50 l 5
 20 -50 l 5
EndSplineSet
EndChar

StartChar: integral
Encoding: 8747 8747 210
Width: 86
Flags: W
HStem: -59.415 22.8613<6.05176 21.9605> 161.139 22.8613<65.4105 81.0518>
VStem: 32.0518 23.1104<-25.4518 -2 127 149.894>
LayerCount: 2
Fore
SplineSet
81.0517578125 184 m 1
 54.0146484375 184 32.716796875 164.821289062 31.9619140625 128.584960938 c 1
 31.9921875 128.584960938 32.021484375 128.58203125 32.0517578125 128.58203125 c 1
 32.0517578125 128.58203125 32.251953125 -2.15234375 32.0517578125 -2.4150390625 c 6
 32.0517578125 -26.923828125 21.6513671875 -36.5537109375 6 -36.5537109375 c 5
 6.0517578125 -59.4150390625 l 5
 33.58203125 -59.4150390625 55.162109375 -39.5302734375 55.162109375 -2 c 6
 55.162109375 127 l 1
 55.125 127 55.0888671875 127.002929688 55.0517578125 127 c 1
 55.365234375 151.508789062 65.4521484375 161.138671875 81.103515625 161.138671875 c 1
 81.0517578125 184 l 1
31.9619140625 128.584960938 m 1
 31.9619140625 128.584960938 31.9482421875 128.584960938 31.94140625 128.584960938 c 1
 31.94140625 126.584960938 l 1
 31.94140625 127.256835938 31.9482421875 127.923828125 31.9619140625 128.584960938 c 1
EndSplineSet
EndChar

StartChar: florin
Encoding: 402 402 211
Width: 138
Flags: W
HStem: -59.415 22.8613<8.05176 23.9496> 92 23<8.05176 33.9414 34.0518 57.0518 57.1621 102.052> 100.585 4<34.0518 57.0518> 161.139 22.8613<66.8624 104.822>
VStem: 34.0518 23.1104<-25.6454 -2 100 150.037>
LayerCount: 2
Fore
SplineSet
57.162109375 -2 m 2xb8
 57.0517578125 -40 35.58203125 -59.4150390625 8.0517578125 -59.4150390625 c 1
 8 -36.5537109375 l 1
 23.6513671875 -36.5537109375 34.0517578125 -27 34.0517578125 -2.4150390625 c 2
 34.0517578125 -2 34.0517578125 104.584960938 34.0517578125 104.584960938 c 1
 57.162109375 104 l 1
 57.162109375 100 l 1
 57.162109375 100 57.0517578125 -2 57.162109375 -2 c 2xb8
83.103515625 161.138671875 m 0
 67.4521484375 161.138671875 57.365234375 151.508789062 57.0517578125 127 c 1
 57.0517578125 100 l 1
 33.94140625 100.584960938 l 1
 33.94140625 126.584960938 l 1
 33.94140625 164.115234375 55.521484375 184 83.0517578125 184 c 0
 103.467773438 184 121.62109375 175.15625 134.051757812 161.169921875 c 1
 117.62890625 144.747070312 l 17
 109.544921875 154.776367188 97.1376953125 161.138671875 83.103515625 161.138671875 c 0
8.0517578125 115 m 1xd8
 102.051757812 115 l 1
 102.051757812 92 l 1
 8.0517578125 92 l 1
 8.0517578125 115 l 1xd8
EndSplineSet
Substitution2: "'sups' Superscript in Latin lookup 0 subtable" florin.superior
EndChar

StartChar: ordfeminine
Encoding: 170 170 212
Width: 115
Flags: W
HStem: 66 17<35.6786 75.9914> 110 17<35.7771 84> 140 17<36.7992 76.8363>
VStem: 15 18<86.6054 106.11> 80 17<95 110 124 135.916> 80 4<110 127>
LayerCount: 2
Fore
SplineSet
97 95 m 5xf8
 89 74 71 66 57 66 c 0
 31 66 15 70 15 97 c 0
 15 120 33 127 57 127 c 0
 71 127 84 127 84 127 c 1
 84 110 l 1xf4
 84 110 67 110 58 110 c 0
 43 110 33 107 33 97 c 0
 33 86 41 83 58 83 c 0
 67 83 81 86 85 103 c 1
 97 95 l 5xf8
25 177 m 1025
41 161 m 1025
97 126 m 2xf8
 97 70 l 1xf8
 80 70 l 1xf4
 80 124 l 2
 80 134 75 140 59 140 c 0
 43 140 39 137 34 132 c 1
 21 140 l 1
 30 150 35 157 59 157 c 0
 85 157 97 145 97 126 c 2xf8
EndSplineSet
EndChar

StartChar: ordmasculine
Encoding: 186 186 213
Width: 124
Flags: W
HStem: 65 18<45.8518 79.516> 140 18<45.5588 80.3283>
VStem: 15 18<95.8079 127.973> 92 17<95.521 128.248>
LayerCount: 2
Fore
SplineSet
33 112 m 0
 33 96 47 83 63 83 c 4
 79 83 92 96 92 112 c 4
 92 128 79 140 63 140 c 0
 47 140 33 128 33 112 c 0
15 112 m 0
 15 138 36 158 62 158 c 0
 88 158 109 138 109 112 c 4
 109 86 88 65 62 65 c 4
 36 65 15 86 15 112 c 0
EndSplineSet
EndChar

StartChar: at
Encoding: 64 64 214
Width: 252
Flags: W
HStem: -18.8896 24.8896<74.3444 135.007> 19 24<102.109 146.069 195.565 210.284> 130.969 22.8613<102.581 145.602> 164.89 23<88.7418 161.628>
VStem: 11.0068 24<42.1829 111.703> 56 23.4238<65.8753 108.017> 168.117 23.4082<48.8848 108.484> 214.896 23<47.185 67 67.0245 121.097>
LayerCount: 2
Fore
SplineSet
168.408203125 86.4150390625 m 5
 191.525390625 86.4150390625 l 5
 191.408203125 86.4150390625 191.1171875 67 191.1171875 67 c 2
 190.755424793 49.7937694111 199.006835938 43 203.006835938 43 c 0
 207.006835938 43 214.896484375 49.734375 214.896484375 67 c 2
 214.896484375 67 215.006835938 100.833007812 215.006835938 103 c 0
 215.006835938 117.142578125 194.272460938 164.889648438 125.006835938 164.889648438 c 0
 56.7412109375 164.889648438 35.0068359375 122.142578125 35.0068359375 78 c 0
 35.0068359375 43.857421875 42.7412109375 6 111.006835938 6 c 2
 135.006835938 6 l 1
 135.006835938 -19 l 1
 115.006835938 -18.8896484375 l 2
 37.0068359375 -18.8896484375 10.5 27.9853515625 11.0068359375 79 c 0
 11.61328125 140.0078125 47.0068359375 187.889648438 125.006835938 187.889648438 c 0
 204.006835938 187.889648438 238.009765625 133.002929688 239.006835938 102 c 2
 237.896484375 67 l 2
 237.896484375 40 221.83984375 19 202.006835938 19 c 0
 182.173828125 19 167.713864627 40.0924092638 168.1171875 67 c 2
 168.408203125 86.4150390625 l 5
56 86.4150390625 m 0
 56 123.9453125 86.580078125 153.830078125 124.110351562 153.830078125 c 0
 161.640625 153.830078125 191.525390625 123.9453125 191.525390625 86.4150390625 c 0
 191.525390625 48.884765625 161.640625 19 124.110351562 19 c 0
 86.580078125 19 56 48.884765625 56 86.4150390625 c 0
79.423828125 86.6875 m 0
 79.423828125 62.03515625 99.5107421875 42.40625 124.162109375 42.40625 c 0
 148.813476562 42.40625 168.443359375 62.03515625 168.443359375 86.6875 c 0
 168.443359375 111.338867188 148.813476562 130.96875 124.162109375 130.96875 c 0
 99.5107421875 130.96875 79.423828125 111.338867188 79.423828125 86.6875 c 0
EndSplineSet
EndChar

StartChar: asterisk
Encoding: 42 42 215
Width: 115
Flags: W
HStem: 164 20G<49.6191 72.6191>
VStem: 49.6191 23<116 184>
LayerCount: 2
Fore
SplineSet
49.619140625 116 m 1
 49.619140625 184 l 5
 72.619140625 184 l 5
 72.619140625 116 l 1
 49.619140625 116 l 1
106.874023438 150.112304688 m 1
 26.263671875 69.5029296875 l 1
 10 85.765625 l 1
 90.6103515625 166.375976562 l 1
 106.874023438 150.112304688 l 1
27.677734375 168.497070312 m 1
 108.288085938 87.8876953125 l 1
 92.0244140625 71.6240234375 l 1
 11.4150390625 152.234375 l 1
 27.677734375 168.497070312 l 1
EndSplineSet
EndChar

StartChar: numbersign
Encoding: 35 35 216
Width: 184
Flags: W
HStem: 0 21G<30 56.8123 100 126.812> 57 23<11 175> 107 23<11 175> 163.615 20G<61.1877 88 131.188 158>
LayerCount: 2
Fore
SplineSet
11 80 m 1
 175 80 l 1
 175 57 l 1
 11 57 l 1
 11 80 l 1
11 130 m 1
 175 130 l 1
 175 107 l 1
 11 107 l 1
 11 130 l 1
100 0 m 1
 135 183.615234375 l 1
 158 183.615234375 l 1
 123 0 l 1
 100 0 l 1
30 0 m 1
 65 183.615234375 l 1
 88 183.615234375 l 1
 53 0 l 1
 30 0 l 1
EndSplineSet
EndChar

StartChar: dagger
Encoding: 8224 8224 217
Width: 123
Flags: W
HStem: 0 21G<52.6694 72.3306> 121 23<5 51 74 119> 164 20G<51 74>
VStem: 51 23<12.584 121 144 184>
LayerCount: 2
Fore
SplineSet
300 247 m 1049
74 144 m 1
 119 144 l 1
 119 121 l 1
 74 121 l 1
 72 0 l 1
 53 0 l 5
 51 121 l 1
 5 121 l 1
 5 144 l 1
 51 144 l 1
 51 184 l 1
 74 184 l 1
 74 144 l 1
EndSplineSet
EndChar

StartChar: section
Encoding: 167 167 218
Width: 123
Flags: W
HStem: 0.169922 22.8613<43.2133 86.8558> 164.969 22.8613<39.0079 82.7223>
VStem: 9.00098 23.4238<85.2016 107.249> 12.001 23.4238<141.664 160.477> 89.7979 23.4238<26.3064 47.1292 79.9165 101.869>
LayerCount: 2
Fore
SplineSet
30.5341796875 39.4228515625 m 1029xc8
14.2314453125 23.1201171875 m 1029
107 91 m 1029
29.5341796875 92.4228515625 m 1029
23.2314453125 86.1201171875 m 1029
94.6884765625 148.577148438 m 1029
110.991210938 164.879882812 m 1029
63.111328125 54.169921875 m 4
 37.3056640625 59.8193359375 8.763671875 69.7666015625 9.0009765625 96.5849609375 c 4xe8
 9.126953125 110.838867188 16.0654296875 119.709960938 26.4306640625 125.009765625 c 5
 17.9736328125 130.41796875 11.8994140625 138.109375 12.0009765625 149.584960938 c 4
 12.251953125 177.9453125 35.5810546875 187.830078125 63.111328125 187.830078125 c 4
 83.52734375 187.830078125 98.6806640625 178.986328125 111.111328125 165 c 5
 94.6884765625 148.577148438 l 5
 86.6044921875 158.606445312 77.197265625 164.96875 63.1630859375 164.96875 c 4
 48.51171875 164.96875 35.4248046875 164.338867188 35.4248046875 149.3125 c 4xd8
 35.4248046875 141.661132812 45.04296875 138.673828125 64.111328125 134.830078125 c 4
 83.111328125 131 112.221679688 121.9453125 112.221679688 89.4150390625 c 4
 112.221679688 76.9345703125 107.383789062 69.267578125 99.3681640625 64.654296875 c 5
 107.455078125 59.0830078125 113.221679688 50.4443359375 113.221679688 36.4150390625 c 4
 113.221679688 10.0546875 91.6416015625 0.169921875 64.111328125 0.169921875 c 4
 43.6953125 0.169921875 26.5419921875 9.013671875 14.111328125 23 c 5
 30.5341796875 39.4228515625 l 5
 38.6181640625 29.3935546875 50.025390625 23.03125 64.0595703125 23.03125 c 4
 78.7109375 23.03125 89.7978515625 24.6611328125 89.7978515625 36.6875 c 4
 89.7978515625 48.3388671875 79.263671875 50.6337890625 63.111328125 54.169921875 c 4
63.1630859375 76.03125 m 4
 77.7626953125 76.0390625 88.7978515625 77.689453125 88.7978515625 89.6875 c 4
 88.7978515625 101.338867188 80.111328125 108 64.0595703125 111.96875 c 4
 49.431640625 111.96875 32.4248046875 111.303710938 32.4248046875 96.3125 c 4
 32.4248046875 88.6611328125 37.0947265625 80.875 63.1630859375 76.03125 c 4
EndSplineSet
EndChar

StartChar: f_j.liga
Encoding: 65549 -1 219
Width: 150
Flags: W
HStem: -59.415 22.8613<62.2294 97.8034> 0 21G<32.8896 56> 92 23<7 110> 161.139 22.8613<65.8107 103.771>
VStem: 32.8896 23.1104<0.584961 150.037> 110 23.1104<-22.6671 92>
LayerCount: 2
Fore
SplineSet
83.9482421875 -36.5537109375 m 0
 99.599609375 -36.5537109375 110 -20.0197170023 110 -2.4150390625 c 2
 110 95.5849609375 l 1
 133.110351562 115 l 1
 133.110351562 0 l 1
 133.110351562 -2 l 2
 133.110351562 -39.5302734375 111.530273438 -59.4150390625 84 -59.4150390625 c 0
 63.583984375 -59.4150390625 45.4306640625 -50.5712890625 33 -36.5849609375 c 1
 49.4228515625 -20.162109375 l 1
 57.5068359375 -30.19140625 69.9140625 -36.5537109375 83.9482421875 -36.5537109375 c 0
7 115 m 1
 133 115 l 1
 123 92 l 1
 7 92 l 1
 7 115 l 1
82.0517578125 161.138671875 m 0
 66.400390625 161.138671875 56.3134765625 151.508789062 56 127 c 1
 56 0 l 1
 32.8896484375 0.5849609375 l 1
 32.8896484375 126.584960938 l 1
 32.8896484375 164.115234375 54.4697265625 184 82 184 c 0
 102.416015625 184 120.569335938 175.15625 133 161.169921875 c 1
 116.577148438 144.747070312 l 17
 108.493164062 154.776367188 96.0859375 161.138671875 82.0517578125 161.138671875 c 0
EndSplineSet
LCarets2: 1 0
Ligature2: " these ligatures have no aura-1" f j
EndChar

StartChar: f_b.liga
Encoding: 65550 -1 220
Width: 256
Flags: W
HStem: -5 23.4062<156.581 199.602> 0 21G<32.8896 56 110.11 133.11> 92 23<7 101> 106.969 22.8613<156.581 199.602> 161.139 22.8613<65.8107 103.771>
VStem: 32.8896 23.1104<0.584961 150.037> 110 23.4238<62.415 62.6875 144.747 161> 222.443 23.082<41.8753 84.0168>
LayerCount: 2
Fore
SplineSet
110.110351562 0 m 1x4f
 110.110351562 161 l 5
 133.110351562 161 l 5
 133.110351562 0 l 1
 110.110351562 0 l 1x4f
133.423828125 62.6875 m 0
 133.423828125 38.03515625 153.510742188 18.40625 178.162109375 18.40625 c 0
 202.813476562 18.40625 222.443359375 38.03515625 222.443359375 62.6875 c 0
 222.443359375 87.3388671875 202.813476562 106.96875 178.162109375 106.96875 c 0x9f
 153.510742188 106.96875 133.423828125 87.3388671875 133.423828125 62.6875 c 0
110 62.4150390625 m 0
 110 99.9453125 140.580078125 129.830078125 178.110351562 129.830078125 c 0
 215.640625 129.830078125 245.525390625 99.9453125 245.525390625 62.4150390625 c 0
 245.525390625 24.884765625 215.640625 -5 178.110351562 -5 c 0
 140.580078125 -5 110 24.884765625 110 62.4150390625 c 0
82.0517578125 161.138671875 m 0
 66.400390625 161.138671875 56.3134765625 151.508789062 56 127 c 1
 56 0 l 1x4f
 32.8896484375 0.5849609375 l 1
 32.8896484375 126.584960938 l 1
 32.8896484375 164.115234375 54.4697265625 184 82 184 c 0
 102.416015625 184 120.569335938 175.15625 133 161.169921875 c 1
 116.577148438 144.747070312 l 17
 108.493164062 154.776367188 96.0859375 161.138671875 82.0517578125 161.138671875 c 0
7 115 m 1x2f
 101 115 l 1
 101 92 l 1
 7 92 l 1
 7 115 l 1x2f
EndSplineSet
Ligature2: " these ligatures have no aura-1" f b
EndChar

StartChar: f_h.liga
Encoding: 65551 -1 221
Width: 257
Flags: W
HStem: 0.169922 21G<32.8896 56 110 133 222 245> 92 23<7 101> 107.139 22.8613<156.466 199.335> 161.139 22.8613<65.8107 103.771>
VStem: 32.8896 23.1104<0.584961 150.037> 110 23<0.169922 63.1699 144.747 161.17> 222 23<0.169922 84.1122>
LayerCount: 2
Fore
SplineSet
222 63.169921875 m 17xbe
 221.333007812 87.5087890625 202.703125 107.138671875 178.051757812 107.138671875 c 0
 153.400390625 107.138671875 133.313476562 87.5087890625 133 63.169921875 c 9
 110 62.169921875 l 1
 109.889648438 100.115234375 140.469726562 130 178 130 c 0
 215.530273438 130 244.415039062 100.115234375 245 62.169921875 c 9
 245 0.169921875 l 25
 222 0.169921875 l 25
 222 63.169921875 l 17xbe
110 0.169921875 m 1
 110 161.169921875 l 1
 133 161.169921875 l 1
 133 0.169921875 l 1
 110 0.169921875 l 1
82.0517578125 161.138671875 m 0
 66.400390625 161.138671875 56.3134765625 151.508789062 56 127 c 1
 56 0 l 1
 32.8896484375 0.5849609375 l 1
 32.8896484375 126.584960938 l 1
 32.8896484375 164.115234375 54.4697265625 184 82 184 c 0
 102.416015625 184 120.569335938 175.15625 133 161.169921875 c 1
 116.577148438 144.747070312 l 17
 108.493164062 154.776367188 96.0859375 161.138671875 82.0517578125 161.138671875 c 0
7 115 m 1xde
 101 115 l 1
 101 92 l 1
 7 92 l 1
 7 115 l 1xde
EndSplineSet
Ligature2: " these ligatures have no aura-1" f h
EndChar

StartChar: f_k.liga
Encoding: 65552 -1 222
Width: 225
Flags: W
HStem: 0 21G<32.8896 56 110 133 170.72 214> 92 23<7 101> 104.6 20G<162.18 214> 161.139 22.8613<65.8107 103.771>
VStem: 32.8896 23.1104<0.584961 150.037> 110 23<0 41.7363 58 161.17>
LayerCount: 2
Fore
SplineSet
187 0 m 1x9c
 134.927734375 63.970703125 l 1
 155.713867188 73.81640625 l 1
 214 0 l 1
 187 0 l 1x9c
116 58 m 1
 182 124.599609375 l 1xbc
 214 124.407226562 l 1
 132.263671875 41.736328125 l 1
 116 58 l 1
110 0 m 1
 110 161.169921875 l 1
 133 161.169921875 l 1
 133 0 l 1
 110 0 l 1
82.0517578125 161.138671875 m 0
 66.400390625 161.138671875 56.3134765625 151.508789062 56 127 c 1
 56 0 l 1
 32.8896484375 0.5849609375 l 1
 32.8896484375 126.584960938 l 1
 32.8896484375 164.115234375 54.4697265625 184 82 184 c 0
 102.416015625 184 120.569335938 175.15625 133 161.169921875 c 1
 116.577148438 144.747070312 l 17
 108.493164062 154.776367188 96.0859375 161.138671875 82.0517578125 161.138671875 c 0
7 115 m 1xdc
 101 115 l 1
 101 92 l 1
 7 92 l 1
 7 115 l 1xdc
EndSplineSet
LCarets2: 1 0
Ligature2: " these ligatures have no aura-1" f k
EndChar

StartChar: f_t.liga
Encoding: 65553 -1 223
Width: 214
Flags: W
HStem: 0 22.8613<142.811 180.771> 92 23<7 178> 161.139 22.8613<65.8107 103.771>
VStem: 32.8896 23.1104<0.584961 150.037> 109.89 23.1104<33.9633 144.747 161.17 161.415>
LayerCount: 2
Fore
SplineSet
159.051757812 22.861328125 m 0
 173.0859375 22.861328125 185.493164062 29.2236328125 193.577148438 39.2529296875 c 9
 210 22.830078125 l 1
 197.569335938 8.84375 179.416015625 0 159 0 c 0
 131.469726562 0 109.889648438 19.884765625 109.889648438 57.4150390625 c 1
 109.889648438 161.415039062 l 1
 133 162 l 1
 133 57 l 1
 133.313476562 32.4912109375 143.400390625 22.861328125 159.051757812 22.861328125 c 0
7 92 m 1
 7 115 l 1
 178 115 l 1
 178 92 l 1
 7 92 l 1
82.0517578125 161.138671875 m 0
 66.400390625 161.138671875 56.3134765625 151.508789062 56 127 c 1
 56 0 l 1
 32.8896484375 0.5849609375 l 1
 32.8896484375 126.584960938 l 1
 32.8896484375 164.115234375 54.4697265625 184 82 184 c 0
 102.416015625 184 120.569335938 175.15625 133 161.169921875 c 1
 116.577148438 144.747070312 l 17
 108.493164062 154.776367188 96.0859375 161.138671875 82.0517578125 161.138671875 c 0
EndSplineSet
LCarets2: 1 0
Ligature2: " these ligatures have no aura-1" f t
EndChar

StartChar: NameMe.486
Encoding: 65554 -1 224
Width: 75
Flags: W
HStem: 151 33
VStem: 13 53
LayerCount: 2
Fore
SplineSet
53 151 m 1
 13 184 l 1
 36 184 l 1
 66 151 l 1
 53 151 l 1
EndSplineSet
EndChar

StartChar: NameMe.487
Encoding: 65555 -1 225
Width: 73
Flags: W
HStem: 151 33
VStem: 11 53
LayerCount: 2
Fore
SplineSet
11 151 m 5
 41 184 l 1
 64 184 l 1
 24 151 l 5
 11 151 l 5
EndSplineSet
EndChar

StartChar: NameMe.489
Encoding: 65556 -1 226
Width: 103
Flags: W
HStem: 151 33
VStem: 11 83
LayerCount: 2
Fore
SplineSet
81 151 m 5
 41 184 l 1
 64 184 l 1
 94 151 l 5
 81 151 l 5
11 151 m 5
 41 184 l 1
 64 184 l 1
 24 151 l 5
 11 151 l 5
EndSplineSet
EndChar

StartChar: NameMe.490
Encoding: 65557 -1 227
Width: 161
Flags: W
HStem: 150 22.8613<89.2315 129.972> 167.139 22.8613<36.0384 73.5044>
LayerCount: 2
Fore
SplineSet
30.302734375 155.592773438 m 1025x00
14 172.049804688 m 1025
89.759765625 178.049804688 m 1025
73.45703125 161.592773438 m 1025
133.45703125 184.407226562 m 1025
149.759765625 167.950195312 m 1025
109.879882812 150 m 0x80
 130.295898438 150 144 158 149.759765625 167.950195312 c 1
 133.45703125 184.407226562 l 1
 131 176 123.965820312 172.861328125 109.828125 172.861328125 c 0x80
 102.793945312 172.861328125 96.1970139123 173.293438895 89.759765625 178.049804688 c 0
 79 186 70.2958984375 190 54.8798828125 190 c 0
 42.4638671875 190 25 187 14 172.049804688 c 1
 30.302734375 155.592773438 l 1
 37 166 48.7939453125 167.138671875 54.931640625 167.138671875 c 0x40
 63.9658203125 167.138671875 67.5941014599 165.431022055 73.45703125 161.592773438 c 0
 82 156 90.4638671875 150 109.879882812 150 c 0x80
EndSplineSet
EndChar

StartChar: NameMe.492
Encoding: 65558 -1 228
Width: 146
Flags: W
HStem: 150 22.8613<42.6759 105.045>
LayerCount: 2
Fore
SplineSet
30.302734375 184.407226562 m 1025
14 167.950195312 m 1025
74.8798828125 150 m 4
 104.295898438 150 120 156 135.759765625 167.950195312 c 5
 119.45703125 184.407226562 l 5
 108 180 97.9658203125 172.861328125 74.828125 172.861328125 c 4
 51.7939453125 172.861328125 45 177 30.302734375 184.407226562 c 5
 14 167.950195312 l 5
 37 158 45.4638671875 150 74.8798828125 150 c 4
119.45703125 184.407226562 m 1025
135.759765625 167.950195312 m 1025
EndSplineSet
EndChar

StartChar: NameMe.494
Encoding: 65559 -1 229
Width: 88
Flags: W
HStem: 136 12<29.3447 62.6553> 178 12<29.3447 62.6553>
VStem: 14 12<151.714 174.286> 66 12<151.714 174.286>
LayerCount: 2
Fore
SplineSet
26 163 m 0
 26 152 35 148 46 148 c 0
 57 148 66 152 66 163 c 0
 66 174 57 178 46 178 c 0
 35 178 26 174 26 163 c 0
14 163 m 0
 14 181 28 190 46 190 c 0
 64 190 78 181 78 163 c 0
 78 145 64 136 46 136 c 0
 28 136 14 145 14 163 c 0
EndSplineSet
EndChar

StartChar: NameMe.496
Encoding: 65560 -1 230
Width: 114
Flags: W
HStem: 151.6 33
LayerCount: 2
Fore
SplineSet
52 151.599609375 m 5
 82 184.599609375 l 1
 105 184.599609375 l 1
 65 151.599609375 l 5
 52 151.599609375 l 5
11 151 m 5
 41 184 l 1
 64 184 l 1
 24 151 l 5
 11 151 l 5
EndSplineSet
EndChar

StartChar: NameMe.498
Encoding: 65561 -1 231
Width: 105
Flags: W
HStem: 151 33
VStem: 13 83
LayerCount: 2
Fore
SplineSet
26 184 m 1
 66 151 l 5
 43 151 l 5
 13 184 l 1
 26 184 l 1
96 184 m 1
 66 151 l 5
 43 151 l 5
 83 184 l 1
 96 184 l 1
EndSplineSet
EndChar

StartChar: degree
Encoding: 176 176 232
Width: 88
Flags: W
HStem: 126 12<32.4546 59.5454> 178 12<32.4546 59.5454>
VStem: 14 12<144.455 171.545> 66 12<144.455 171.545>
LayerCount: 2
Fore
SplineSet
26 158 m 0
 26 147 35 138 46 138 c 0
 57 138 66 147 66 158 c 0
 66 169 57 178 46 178 c 0
 35 178 26 169 26 158 c 0
14 158 m 0
 14 176 28 190 46 190 c 0
 64 190 78 176 78 158 c 0
 78 140 64 126 46 126 c 0
 28 126 14 140 14 158 c 0
EndSplineSet
EndChar

StartChar: cent
Encoding: 162 162 233
Width: 139
Flags: W
HStem: 0 21G<65 88> 25.1699 22.8613<56.5805 99.4495> 136.969 22.8613<56.5805 99.881> 164 20G<65 88>
VStem: 10 23.4238<70.9832 113.212> 65 23<0 184>
LayerCount: 2
Fore
SplineSet
65 0 m 5
 65 184 l 1
 88 184 l 1
 88 0 l 5
 65 0 l 5
128.990234375 48.1201171875 m 1
 116.6796875 34.013671875 98.5263671875 25.169921875 78.1103515625 25.169921875 c 0
 40.580078125 25.169921875 10 55.0546875 10 92.5849609375 c 0
 10 129.9453125 40.580078125 159.830078125 78.1103515625 159.830078125 c 0
 98.5263671875 159.830078125 116.6796875 150.986328125 129.110351562 137 c 1
 112.6875 120.577148438 l 17
 104.603515625 130.606445312 92.1962890625 136.96875 78.162109375 136.96875 c 0
 53.5107421875 136.96875 33.423828125 117.338867188 33.423828125 92.3125 c 0
 33.423828125 67.6611328125 53.5107421875 48.03125 78.162109375 48.03125 c 0
 92.1962890625 48.03125 104.603515625 54.3935546875 112.6875 64.5771484375 c 1
 128.990234375 48.1201171875 l 1
112.6875 64.5771484375 m 1025
128.990234375 48.1201171875 m 1025
112.6875 120.577148438 m 1025
128.990234375 136.879882812 m 1025
EndSplineSet
Substitution2: "'salt' Stylistic Alternatives in Latin lookup 9-1" cent.open
Substitution2: "Tabular Forms-1" cent.tnum
EndChar

StartChar: cent.tnum
Encoding: 65562 -1 234
Width: 149
Flags: W
HStem: 0 21G<69.9453 92.9453> 25.1699 22.8613<61.5254 104.394> 136.969 22.8613<61.5254 104.826> 164 20G<69.9453 92.9453>
VStem: 14.9453 23.4238<70.9832 113.212> 69.9453 23<0 184>
LayerCount: 2
Fore
SplineSet
69.9453125 0 m 5
 69.9453125 184 l 1
 92.9453125 184 l 1
 92.9453125 0 l 5
 69.9453125 0 l 5
133.935546875 48.1201171875 m 1
 121.625 34.013671875 103.470703125 25.169921875 83.0546875 25.169921875 c 0
 45.525390625 25.169921875 14.9453125 55.0546875 14.9453125 92.5849609375 c 0
 14.9453125 129.9453125 45.525390625 159.830078125 83.0546875 159.830078125 c 0
 103.470703125 159.830078125 121.625 150.986328125 134.0546875 137 c 1
 117.6328125 120.577148438 l 17
 109.548828125 130.606445312 97.140625 136.96875 83.107421875 136.96875 c 0
 58.455078125 136.96875 38.369140625 117.338867188 38.369140625 92.3125 c 0
 38.369140625 67.6611328125 58.455078125 48.03125 83.107421875 48.03125 c 0
 97.140625 48.03125 109.548828125 54.3935546875 117.6328125 64.5771484375 c 1
 133.935546875 48.1201171875 l 1
117.6328125 64.5771484375 m 1025
133.935546875 48.1201171875 m 1025
117.6328125 120.577148438 m 1025
133.935546875 136.879882812 m 1025
EndSplineSet
EndChar

StartChar: NameMe.473
Encoding: 65563 -1 235
Width: 232
Flags: W
HStem: -18.8896 24.8896<74.3444 135.007> 19.1387 22.8613<84.5968 137.54 170.814 189.494> 80.9375 22.8613<85.6453 154.117> 130.938 22.8613<89.8652 139.899> 164.89 23<79.6692 150.7>
VStem: 11.0068 24<42.1829 119.286> 54.0068 23.4238<48.7461 73.5355> 148.117 23<49.7344 107.031> 195.007 24<47.185 67 67.0245 124.902>
LayerCount: 2
Fore
SplineSet
111.006835938 6 m 9
 135.006835938 6 l 1
 135.006835938 -19 l 25
 115.006835938 -18.8896484375 l 1
 37.0068359375 -18.8896484375 10.5 27.9853515625 11.0068359375 79 c 0
 11.61328125 140.0078125 37.0068359375 187.889648438 115.006835938 187.889648438 c 1
 194.006835938 187.889648438 218.009765625 133.002929688 219.006835938 102 c 0
 217.896484375 67 l 1
 217.896484375 40 201.83984375 19 182.006835938 19 c 0
 162.173828125 19 148.1171875 40 148.1171875 67 c 0
 148.1171875 107 l 2
 148.1171875 122 141.665039062 130.9375 117.013671875 130.9375 c 0
 92.9794921875 130.9375 86.6240234375 124.606445312 78.5400390625 114.577148438 c 1
 62.1171875 131 l 1
 74.5478515625 144.986328125 83.1171875 154 117.065429688 153.798828125 c 0
 154.264648438 153.578125 171.006835938 135 171.1171875 107 c 2
 171.006835938 107 171.1171875 150 171.1171875 67 c 0
 171.1171875 49.734375 179.006835938 43 183.006835938 43 c 0
 187.006835938 43 194.896484375 49.734375 194.896484375 67 c 9
 194.896484375 67 195.006835938 100.833007812 195.006835938 103 c 0
 195.006835938 117.142578125 184.272460938 164.889648438 115.006835938 164.889648438 c 1
 46.7412109375 164.889648438 35.0068359375 122.142578125 35.0068359375 78 c 0
 35.0068359375 43.857421875 42.7412109375 6 111.006835938 6 c 9
170.997070312 52.1201171875 m 1
 160.1171875 28 134.481445312 19.138671875 114.065429688 19.138671875 c 0
 76.53515625 19.138671875 54.0068359375 26.0546875 54.0068359375 62.5849609375 c 0
 54.0068359375 93.9453125 87.0068359375 104 114.065429688 103.798828125 c 0
 154.1171875 104 l 1
 154.1171875 81 l 1
 114.1171875 80.9375 l 0
 97.0068359375 81 77.4306640625 77.3388671875 77.4306640625 62.3125 c 0
 77.4306640625 46.6611328125 89.4658203125 42 114.1171875 42 c 0
 128.151367188 42 148.1171875 47 154.694335938 68.5771484375 c 1
 170.997070312 52.1201171875 l 1
62.2373046875 130.879882812 m 1025
78.5400390625 114.577148438 m 1025
EndSplineSet
EndChar

StartChar: NameMe.474
Encoding: 65564 -1 236
Width: 165
Flags: W
HStem: -64.4004 22.8613<48.2427 102.779> -5 22.8613<58.6655 101.534> 104.6 20.2305G<13 36 125 148> 161 23<13 36 125 148>
VStem: 13 23<40.8878 124.83 161 184> 125 23<-19.7061 0.599609 61.8301 124.6 161 184>
LayerCount: 2
Fore
SplineSet
125 161 m 5
 125 184 l 5
 148 184 l 5
 148 161 l 5
 125 161 l 5
13 161 m 1
 13 184 l 1
 36 184 l 1
 36 161 l 1
 13 161 l 1
148 0.599609375 m 2
 148 -42.400390625 116.3125 -64.400390625 76.896484375 -64.400390625 c 0
 37.583984375 -64.400390625 18.4306640625 -45.556640625 6 -31.5703125 c 1
 22.4228515625 -15.1474609375 l 1
 30.5068359375 -25.1767578125 43.9140625 -41.5390625 76.9482421875 -41.5390625 c 0
 109.982421875 -41.5390625 124 -22.400390625 125 0.599609375 c 2
 125 124.599609375 l 1
 148 124.599609375 l 1
 148 0.599609375 l 2
36 61.830078125 m 17
 36.6669921875 37.4912109375 55.296875 17.861328125 79.9482421875 17.861328125 c 0
 104.599609375 17.861328125 124.686523438 37.4912109375 125 61.830078125 c 9
 148 62.830078125 l 1
 148.110351562 24.884765625 117.530273438 -5 80 -5 c 0
 42.4697265625 -5 13.5849609375 24.884765625 13 62.830078125 c 9
 13 124.830078125 l 25
 36 124.830078125 l 25
 36 61.830078125 l 17
EndSplineSet
EndChar

StartChar: NameMe.475
Encoding: 65565 -1 237
Width: 165
Flags: W
HStem: -64.4004 22.8613<48.2427 102.779> -5 22.8613<58.6655 101.534> 104.6 20.2305G<13 36 125 148> 144.83 43 144.83 43
VStem: 13 23<40.8878 124.83> 14 53 124 53 125 23<-19.7061 0.599609 61.8301 124.6>
LayerCount: 2
Fore
SplineSet
148 0.599609375 m 2xe080
 148 -42.400390625 116.3125 -64.400390625 76.896484375 -64.400390625 c 0
 37.583984375 -64.400390625 18.4306640625 -45.556640625 6 -31.5703125 c 1
 22.4228515625 -15.1474609375 l 1
 30.5068359375 -25.1767578125 43.9140625 -41.5390625 76.9482421875 -41.5390625 c 0
 109.982421875 -41.5390625 124 -22.400390625 125 0.599609375 c 2
 125 124.599609375 l 1
 148 124.599609375 l 1
 148 0.599609375 l 2xe080
36 61.830078125 m 17xe480
 36.6669921875 37.4912109375 55.296875 17.861328125 79.9482421875 17.861328125 c 0
 104.599609375 17.861328125 124.686523438 37.4912109375 125 61.830078125 c 9
 148 62.830078125 l 1
 148.110351562 24.884765625 117.530273438 -5 80 -5 c 0
 42.4697265625 -5 13.5849609375 24.884765625 13 62.830078125 c 9
 13 124.830078125 l 25
 36 124.830078125 l 25
 36 61.830078125 l 17xe480
EndSplineSet
Refer: 48 180 N 1 0 0 1 113 3.83008 2
Refer: 48 180 N 1 0 0 1 3 3.83008 2
EndChar

StartChar: radical
Encoding: 8730 8730 238
Width: 166
Flags: W
HStem: 0 21G<71.5794 107.522> 101.6 23<7 61> 164 20G<131.478 161>
LayerCount: 2
Fore
SplineSet
7 125.161132812 m 1
 61 124.599609375 l 5
 61 101.599609375 l 5
 7 102.161132812 l 1
 7 125.161132812 l 1
161 184 m 1
 101 0 l 1
 78 0 l 1
 138 184 l 1
 161 184 l 1
38 124.599609375 m 5
 61 124.599609375 l 5
 101 0 l 1
 78 0 l 1
 38 124.599609375 l 5
EndSplineSet
EndChar

StartChar: sterling
Encoding: 163 163 239
Width: 170
Flags: W
HStem: 0 23<10 164> 78 23<17 131> 166.139 22.8613<85.098 132.667>
VStem: 39 23<31.9048 123.947 124 142.613>
LayerCount: 2
Fore
SplineSet
39 50 m 0
 39 51 40 124 40 124 c 2
 40.3525390625 166.997070312 71.6875 189 110.896484375 189 c 0
 131.3125 189 149.465820312 180.15625 161.896484375 166.169921875 c 1
 145.473632812 149.747070312 l 1
 137.389648438 159.776367188 124.982421875 166.138671875 110.948242188 166.138671875 c 0
 78.017578125 166.138671875 63.1884765625 146.998046875 63 124 c 2
 62 50 l 2
 62 28.16015625 56 0 10 0 c 1
 10 23 l 1
 31 23 39 33.720703125 39 50 c 0
145.473632812 149.747070312 m 1025
161.776367188 166.049804688 m 1025
10 23 m 1
 164 23 l 1
 164 0 l 1
 10 0 l 1
 10 23 l 1
17 101 m 1
 131 101 l 1
 131 78 l 1
 17 78 l 1
 17 101 l 1
EndSplineSet
EndChar

StartChar: paragraph
Encoding: 182 182 240
Width: 194
Flags: W
HStem: 161 23<97 145 168 181>
VStem: 19 109<102.804 150.066> 97 31<161 184> 105 23<-50 70> 145 23<-50 161>
LayerCount: 2
Fore
SplineSet
392 247 m 1049x88
97 184 m 1xa8
 181 184 l 1
 181 161 l 1
 168 161 l 1
 168 -50 l 1
 145 -50 l 1
 145 161 l 1
 97 161 l 1
 97 184 l 1xa8
128 -50 m 1x98
 105 -50 l 1
 105 70 l 1x98
 76 70 l 2
 42 70 19 95 19 129 c 0xc8
 19 153 42.0869140625 184 76 184 c 2
 128 184 l 1xa8
 128 -50 l 1x98
EndSplineSet
EndChar

StartChar: lessequal
Encoding: 8804 8804 241
Width: 147
VWidth: 286
Flags: W
HStem: 7 23<17 131> 108 20G<9 59>
LayerCount: 2
Fore
SplineSet
17 30 m 5
 131 30 l 5
 131 7 l 5
 17 7 l 5
 17 30 l 5
134 55 m 1
 9 105 l 1
 9 128 l 1
 134 78 l 1
 134 55 l 1
134 178 m 1
 134 155 l 1
 9 105 l 1
 9 128 l 1
 134 178 l 1
EndSplineSet
EndChar

StartChar: greaterequal
Encoding: 8805 8805 242
Width: 145
VWidth: 286
Flags: W
HStem: 7 23<17 131> 108 20G<88 138>
LayerCount: 2
Fore
SplineSet
17 30 m 5
 131 30 l 5
 131 7 l 5
 17 7 l 5
 17 30 l 5
13 178 m 1
 138 128 l 1
 138 105 l 1
 13 155 l 1
 13 178 l 1
13 55 m 1
 13 78 l 1
 138 128 l 1
 138 105 l 1
 13 55 l 1
EndSplineSet
EndChar

StartChar: pi
Encoding: 960 960 243
Width: 184
Flags: W
HStem: 0 22.8613<145.825 164> 101 23<9 46 69 114.89 138 173> 101 13<46 69 114.89 138>
VStem: 46 23<0 114> 114.89 23.1104<30.9554 113.415>
LayerCount: 2
Fore
SplineSet
46 0 m 1xb8
 46 114 l 1
 69 114 l 1
 69 0 l 1
 46 0 l 1xb8
164.051757812 22.861328125 m 1
 164 0 l 1
 136.469726562 0 114.889648438 14.884765625 114.889648438 52.4150390625 c 1
 114.889648438 113.415039062 l 1
 138 114 l 5
 138 52 l 1
 138.313476562 27.4912109375 148.400390625 22.861328125 164.051757812 22.861328125 c 1
9 101 m 1xd8
 9 124 l 1
 173 124 l 1
 173 101 l 1
 9 101 l 1xd8
EndSplineSet
Substitution2: "'dnom' Denominators lookup 0 subtable" pi.denominator
Substitution2: "'sups' Superscript in Latin lookup 0 subtable" pi.superior
EndChar

StartChar: daggerdbl
Encoding: 8225 8225 244
Width: 123
Flags: W
HStem: 0 21G<52.6694 72.3306> 71 23<5 51 74 119> 121 23<5 51 74 119> 164 20G<51 74>
VStem: 51 23<12.584 134 144 184>
LayerCount: 2
Fore
SplineSet
300 197 m 1049
71 71 m 5
 5 71 l 5
 5 94 l 5
 51 94 l 5
 51 134 l 5
 74 134 l 5
 74 94 l 5
 119 94 l 5
 119 71 l 5
 71 71 l 5
300 247 m 1049
74 144 m 1
 119 144 l 1
 119 121 l 1
 74 121 l 1
 72 0 l 1
 53 0 l 1
 51 121 l 1
 5 121 l 1
 5 144 l 1
 51 144 l 1
 51 184 l 1
 74 184 l 1
 74 144 l 1
EndSplineSet
EndChar

StartChar: periodcentered
Encoding: 183 183 245
Width: 51
Flags: W
HStem: 87 23<15 38>
VStem: 15 23<87 110>
LayerCount: 2
Fore
SplineSet
15 87 m 5
 15 110 l 5
 38 110 l 5
 38 87 l 5
 15 87 l 5
EndSplineSet
EndChar

StartChar: questiondown
Encoding: 191 191 246
Width: 126
Flags: W
HStem: -66 22.8613<43.4502 90.4495> 25.8301 22.9688<44.8899 69.1621> 101.83 23<57 80>
VStem: 6 23.4238<-29.5584 12.2129> 57 23<48.7988 84.8301 101.83 124.83>
LayerCount: 2
Fore
SplineSet
69.162109375 25.798828125 m 5
 44.5107421875 25.798828125 29.423828125 16.1689453125 29.423828125 -8.857421875 c 4
 29.423828125 -33.5087890625 44.5107421875 -43.138671875 69.162109375 -43.138671875 c 4
 83.1962890625 -43.138671875 95.603515625 -36.7763671875 103.6875 -26.5927734375 c 5
 119.990234375 -43.0498046875 l 5
 107.6796875 -57.15625 89.5263671875 -66 69.1103515625 -66 c 4
 31.580078125 -66 6 -46.115234375 6 -8.5849609375 c 4
 6 28.775390625 31.580078125 48.66015625 69.162109375 48.798828125 c 5
 69.162109375 25.798828125 l 5
103.6875 -26.5927734375 m 1029
119.990234375 -43.0498046875 m 1029
57 101.830078125 m 5
 57 124.830078125 l 5
 80 124.830078125 l 5
 80 101.830078125 l 5
 57 101.830078125 l 5
57 25.830078125 m 5
 57 84.830078125 l 5
 80 84.830078125 l 5
 80 25.830078125 l 5
 57 25.830078125 l 5
EndSplineSet
Substitution2: "'sups' Superscript in Latin lookup 0 subtable" questiondown.superior
EndChar

StartChar: exclamdown
Encoding: 161 161 247
Width: 62
Flags: W
HStem: 102 23<20 43>
VStem: 20 23<-59 85 102 125>
LayerCount: 2
Fore
SplineSet
20 102 m 5
 20 125 l 5
 43 125 l 5
 43 102 l 5
 20 102 l 5
20 -59 m 5
 20 85 l 5
 43 85 l 5
 43 -59 l 5
 20 -59 l 5
EndSplineSet
EndChar

StartChar: logicalnot
Encoding: 172 172 248
Width: 123
Flags: W
HStem: 96 23<5 96>
VStem: 96 23<65 96>
LayerCount: 2
Fore
SplineSet
300 182 m 1053
5 119 m 5
 119 119 l 5
 119 96 l 5
 119 65 l 5
 96 65 l 5
 96 96 l 5
 5 96 l 5
 5 119 l 5
EndSplineSet
EndChar

StartChar: perthousand
Encoding: 8240 8240 249
Width: 239
Flags: W
HStem: -3 23.7109<125.255 148.415 180.255 203.415> 51.2891 23.7109<125.255 148.415 180.255 203.415> 109 23.7109<34.832 57.9919> 163.289 23.7109<34.832 57.9919> 163.808 20G<124.684 159>
VStem: 8 23<136.188 159.812> 61.5771 24.4229<136.188 159.812> 98.4229 23<24.1877 47.8123> 153.423 23<14 58> 207 24.4229<24.1877 47.8123>
LayerCount: 2
Fore
SplineSet
176.422851562 36 m 4xe7c0
 176.422851562 27.3759765625 183.0859375 20.7109375 191.711914062 20.7109375 c 4
 200.334960938 20.7109375 207 27.3759765625 207 36 c 4
 207 44.6240234375 200.334960938 51.2890625 191.711914062 51.2890625 c 4
 183.0859375 51.2890625 176.422851562 44.6240234375 176.422851562 36 c 4xe7c0
153.422851562 36 m 4
 153.422851562 58 170.422851562 75 192.422851562 75 c 4
 214.422851562 75 231.422851562 58 231.422851562 36 c 4
 231.422851562 14 214.422851562 -3 192.422851562 -3 c 4
 170.422851562 -3 153.422851562 14 153.422851562 36 c 4
121.422851562 36 m 0
 121.422851562 27.3759765625 128.0859375 20.7109375 136.711914062 20.7109375 c 0
 145.334960938 20.7109375 152 27.3759765625 152 36 c 0
 152 44.6240234375 145.334960938 51.2890625 136.711914062 51.2890625 c 0
 128.0859375 51.2890625 121.422851562 44.6240234375 121.422851562 36 c 0
98.4228515625 36 m 0
 98.4228515625 58 115.422851562 75 137.422851562 75 c 0
 159.422851562 75 176.422851562 58 176.422851562 36 c 0
 176.422851562 14 159.422851562 -3 137.422851562 -3 c 0
 115.422851562 -3 98.4228515625 14 98.4228515625 36 c 0
31 148 m 0
 31 139.375976562 37.6630859375 132.7109375 46.2890625 132.7109375 c 0
 54.912109375 132.7109375 61.5771484375 139.375976562 61.5771484375 148 c 0
 61.5771484375 156.624023438 54.912109375 163.2890625 46.2890625 163.2890625 c 0xf7c0
 37.6630859375 163.2890625 31 156.624023438 31 148 c 0
8 148 m 0
 8 170 25 187 47 187 c 0
 69 187 86 170 86 148 c 0
 86 126 69 109 47 109 c 0
 25 109 8 126 8 148 c 0
32 0 m 1
 136 183.807617188 l 1
 159 183.807617188 l 1xefc0
 55 0 l 1
 32 0 l 1
EndSplineSet
EndChar

StartChar: Omega
Encoding: 8486 8486 250
Width: 194
Flags: W
HStem: 0.429688 23<12 12 130 184> 167.108 21.8916<71.8688 123.961>
VStem: 10 22.4238<64.6827 124.069> 161.866 22.1338<63.6764 124.855>
LayerCount: 2
Fore
SplineSet
130 23.029296875 m 5
 184 23.029296875 l 1
 184 0.029296875 l 1
 120 0.029296875 l 1
 130 23.029296875 l 5
12 23.4296875 m 1
 66 23.4296875 l 1
 76 0.4296875 l 1
 12 0.4296875 l 1
 12 23.4296875 l 1
120 24.029296875 m 17
 144.901367188 36.626953125 161.866210938 62.0791015625 161.866210938 91.8720703125 c 0
 161.866210938 133.532226562 139.692382812 167.108398438 98.03125 167.108398438 c 0
 56.3701171875 167.108398438 32.423828125 133.932617188 32.423828125 92.2724609375 c 0
 32.423828125 62.0504458914 50.2869199407 36.2951030948 76 24.4296875 c 9
 76 0 l 1
 37.6438682917 13.3064217717 10 49.1977273494 10 92 c 0
 10 146 44 189 98 189 c 0
 152 189 184 145.599609375 184 91.599609375 c 0
 184 49.21484375 157.508789062 13.6064453125 120 -0.400390625 c 1
 120 24.029296875 l 17
EndSplineSet
EndChar

StartChar: currency
Encoding: 164 164 251
Width: 136
Flags: W
HStem: 29 23.4062<48.3931 87.6941> 120.969 22.8613<48.4871 87.8476>
VStem: 10 23.4238<67.8312 105.462> 102.443 23.082<67.2829 106.001>
LayerCount: 2
Fore
SplineSet
33.423828125 86.6875 m 4
 33.423828125 72.03515625 43.5107421875 52.40625 68.162109375 52.40625 c 0
 92.8134765625 52.40625 102.443359375 72.03515625 102.443359375 86.6875 c 4
 102.443359375 101.338867188 92.8134765625 120.96875 68.162109375 120.96875 c 0
 43.5107421875 120.96875 33.423828125 101.338867188 33.423828125 86.6875 c 4
23.1845703125 116.3828125 m 1
 -1.2626953125 140.736328125 l 1
 15 157 l 1
 39.8466796875 132.248046875 l 1
 47.7626953125 139.5703125 53.94140625 143.830078125 68.1103515625 143.830078125 c 0
 82.2607421875 143.830078125 88.3251953125 139.581054688 96.109375 132.276367188 c 1
 120 156 l 1
 136.263671875 139.736328125 l 1
 112.653320312 116.291015625 l 1
 120.762695312 111.16015625 125.525390625 101.396484375 125.525390625 86.4150390625 c 0
 125.525390625 72.28125 121.287109375 69.232421875 113.999023438 58.455078125 c 1
 133.263671875 39.263671875 l 1
 117 23 l 1
 98.0263671875 41.9013671875 l 1
 86.888671875 33.7734375 83.1103515625 29 68.1103515625 29 c 0
 53.0205078125 29 49.0537109375 33.8310546875 37.7470703125 42.048828125 c 1
 13.263671875 17.736328125 l 1
 -3 34 l 1
 21.69921875 58.5263671875 l 1
 14.3173828125 69.2900390625 10 72.3128000713 10 86.4150390625 c 0
 10 101.438067361 14.900390625 111.236328125 23.1845703125 116.3828125 c 1
EndSplineSet
EndChar

StartChar: Euro
Encoding: 8364 8364 252
Width: 172
Flags: W
HStem: -4.83008 22.8613<90.987 131.079> 57 23<9 123> 107 23<9 123> 167.139 22.8613<90.8546 131.771>
VStem: 43 22.4238<66.3549 118.942>
LayerCount: 2
Fore
SplineSet
9 80 m 1
 123 80 l 1
 123 57 l 1
 9 57 l 1
 9 80 l 1
9 130 m 1
 123 130 l 1
 123 107 l 1
 9 107 l 1
 9 130 l 1
110.051757812 167.138671875 m 0
 78.3701171875 167.138671875 65.423828125 133.932617188 65.423828125 92.2724609375 c 0
 65.423828125 50.6103515625 78.3681640625 17.861328125 110.162109375 18.03125 c 0
 124.196289062 18.1064453125 136.603515625 24.3935546875 144.6875 34.5771484375 c 1
 160.990234375 18.1201171875 l 1
 148.6796875 4.013671875 130.526367188 -4.7509765625 110.110351562 -4.830078125 c 0
 66 -5 43 38 43 92 c 0
 43 146 66 190 110 190 c 0
 130.416015625 190 148.569335938 181.15625 161 167.169921875 c 1
 144.577148438 150.747070312 l 17
 136.493164062 160.776367188 124.0859375 167.138671875 110.051757812 167.138671875 c 0
144.6875 34.5771484375 m 1025
160.990234375 18.1201171875 m 1025
144.577148438 150.747070312 m 1025
160.879882812 167.049804688 m 1025
EndSplineSet
EndChar

StartChar: uni00B2
Encoding: 178 178 257
Width: 109
Flags: W
HStem: 62 17<32 98> 172 17<35.4011 73.5532>
VStem: 15 17<79 103.264> 81 18<137.19 164.687>
LayerCount: 2
Fore
SplineSet
15 85 m 1
 15 116 30 124 56 129 c 4
 69 132 81 136 81 151 c 0
 81 167 66 172 56 172 c 0
 47 172 33 167 28 161 c 1
 16 172 l 1
 25 182 42 189 56 189 c 0
 75 189 99 177 99 152 c 0
 99 126 77 117 56 112 c 4
 40 108 32 105 32 83 c 1
 32 79 l 1
 98 79 l 1
 98 62 l 1
 15 62 l 1
 15 85 l 1
37 213 m 1025
20 229 m 1025
EndSplineSet
EndChar

StartChar: uni00B3
Encoding: 179 179 258
Width: 104
Flags: W
HStem: 56 18<28.8235 68.2856> 113 19<37 66.6687> 171 19<28.9199 68.5005>
VStem: 76 18<81.1449 107.301 137.767 164.048>
LayerCount: 2
Fore
SplineSet
30 95 m 1025
14 79 m 1025
31 213 m 1025
15 229 m 1025
56 115 m 1
 56 115 l 1
50 113 m 2
 37 113 l 1
 37 132 l 1
 54 132 l 2
 65 133 76 137 76 151 c 0
 76 166 61 171 51 171 c 0
 42 171 28 167 23 161 c 1
 12 171 l 1
 21 183 38 190 52 190 c 0
 71 190 94 178 94 152 c 0
 94 136 78 124 67 122 c 1
 78 120 94 109 94 94 c 0
 94 69 71 56 52 56 c 0
 38 56 21 63 12 74 c 1
 23 84 l 1
 28 78 41 74 50 74 c 0
 60 74 76 79 76 94 c 0
 76 109 63 113 50 113 c 2
EndSplineSet
EndChar

StartChar: uni00B9
Encoding: 185 185 259
Width: 97
Flags: W
HStem: 165 20G<23.4634 58>
VStem: 41 17<62 185>
LayerCount: 2
Fore
SplineSet
4 144 m 1
 42 185 l 1
 53 169 l 1
 15 135 l 1
 4 144 l 1
62 246 m 1
 85 246 l 1025
41 62 m 1
 41 185 l 1
 58 185 l 1
 58 62 l 1
 41 62 l 1
EndSplineSet
EndChar

StartChar: onequarter
Encoding: 188 188 262
Width: 256
Flags: W
HStem: 0 21G<8 54.6116 205 222> 46 18<178 243> 165 20G<23.4634 58 201.388 248>
VStem: 41 17<62 185> 205 17<0 123>
LayerCount: 2
Fore
SplineSet
4 144 m 5
 42 185 l 5
 53 169 l 5
 15 135 l 5
 4 144 l 5
62 246 m 5
 85 246 l 1029
41 62 m 5
 41 185 l 5
 58 185 l 5
 58 62 l 5
 41 62 l 5
178 64 m 1
 243 64 l 1
 243 46 l 1
 158 46 l 1
 178 64 l 1
158 50 m 1
 206 123 l 1
 221 123 l 1
 176 49 l 1
 158 50 l 1
205 0 m 1
 205 123 l 1
 222 123 l 1
 222 0 l 1
 205 0 l 1
8 0 m 1
 225 183.807617188 l 1
 248 183.807617188 l 1
 31 0 l 1
 8 0 l 1
EndSplineSet
EndChar

StartChar: onehalf
Encoding: 189 189 263
Width: 256
Flags: W
HStem: 0 17<179 245> 110 17<182.401 220.553> 165 20G<23.4634 58 201.388 248>
VStem: 41 17<62 185> 162 17<17 41.2641> 228 18<75.19 102.687>
LayerCount: 2
Fore
SplineSet
4 144 m 5
 42 185 l 5
 53 169 l 5
 15 135 l 5
 4 144 l 5
62 246 m 5
 85 246 l 1029
41 62 m 5
 41 185 l 5
 58 185 l 5
 58 62 l 5
 41 62 l 5
162 23 m 1
 162 54 177 62 203 67 c 0
 216 70 228 74 228 89 c 0
 228 105 213 110 203 110 c 0
 194 110 180 105 175 99 c 1
 163 110 l 1
 172 120 189 127 203 127 c 0
 222 127 246 115 246 90 c 0
 246 64 224 55 203 50 c 0
 187 46 179 43 179 21 c 1
 179 17 l 1
 245 17 l 1
 245 0 l 1
 162 0 l 1
 162 23 l 1
184 151 m 1025
167 167 m 1025
8 0 m 1
 225 183.807617188 l 1
 248 183.807617188 l 1
 31 0 l 1
 8 0 l 1
EndSplineSet
EndChar

StartChar: threequarters
Encoding: 190 190 264
Width: 256
Flags: W
HStem: 0 21G<8 54.6116 205 222> 46 18<178 243> 56 18<24.8235 64.2856> 113 19<33 62.6687> 163.808 20G<201.388 248> 171 19<24.9199 64.5005>
VStem: 72 18<81.1449 107.301 137.767 164.048> 205 17<0 123>
LayerCount: 2
Fore
SplineSet
178 64 m 5xd3
 243 64 l 5
 243 46 l 5
 158 46 l 5
 178 64 l 5xd3
158 50 m 5
 206 123 l 5
 221 123 l 5
 176 49 l 5
 158 50 l 5
205 0 m 5
 205 123 l 5
 222 123 l 5
 222 0 l 5
 205 0 l 5
26 95 m 1025
10 79 m 1025
27 213 m 1025
11 229 m 1025
52 115 m 1
 52 115 l 1
46 113 m 2
 33 113 l 1
 33 132 l 1
 50 132 l 2
 61 133 72 137 72 151 c 0
 72 166 57 171 47 171 c 0
 38 171 24 167 19 161 c 1
 8 171 l 1
 17 183 34 190 48 190 c 0
 67 190 90 178 90 152 c 0
 90 136 74 124 63 122 c 1
 74 120 90 109 90 94 c 0
 90 69 67 56 48 56 c 0
 34 56 17 63 8 74 c 1
 19 84 l 1
 24 78 37 74 46 74 c 0xb7
 56 74 72 79 72 94 c 0
 72 109 59 113 46 113 c 2
8 0 m 1
 225 183.807617188 l 1
 248 183.807617188 l 1x9b
 31 0 l 1
 8 0 l 1
EndSplineSet
EndChar

StartChar: multiply
Encoding: 215 215 265
Width: 130
Flags: W
LayerCount: 2
Fore
SplineSet
113.668945312 129.112304688 m 5
 33.05859375 48.5029296875 l 5
 16.7958984375 64.765625 l 5
 97.4052734375 145.375976562 l 5
 113.668945312 129.112304688 l 5
34.47265625 147.497070312 m 1
 115.083007812 66.8876953125 l 1
 98.8193359375 50.6240234375 l 1
 18.2099609375 131.234375 l 1
 34.47265625 147.497070312 l 1
EndSplineSet
Substitution2: "'numr' Numerators lookup 0 subtable" multiply.numerator
Substitution2: "'dnom' Denominators lookup 0 subtable" multiply.denominator
Substitution2: "'sups' Superscript in Latin lookup 0 subtable" multiply.superior
EndChar

StartChar: brokenbar
Encoding: 166 166 267
Width: 58
Flags: W
HStem: 164 20G<17 40>
VStem: 17 23<-41 53 90 184>
LayerCount: 2
Fore
SplineSet
17 90 m 1
 17 184 l 1
 40 184 l 1
 40 90 l 1
 17 90 l 1
17 -41 m 1
 17 53 l 5
 40 53 l 5
 40 -41 l 1
 17 -41 l 1
EndSplineSet
EndChar

StartChar: Thorn
Encoding: 222 222 268
Width: 168
Flags: W
HStem: 0 21G<19 42> 43 23<33 110.204> 132 23<33 110.204> 164 20G<19 42>
VStem: 19 23<0 43 66 132 155 184> 33 9<43 66 132 155> 129.139 22.8613<80.6529 116.462>
LayerCount: 2
Fore
SplineSet
152 99.103515625 m 4xf6
 152 59.6875 120 43 77 43 c 2
 33 43 l 1
 33 66 l 1
 77 66 l 2
 100 67 129.138671875 69.017578125 129.138671875 99.0517578125 c 4
 129.138671875 127.982421875 100 131 77 132 c 2
 33 132 l 1
 33 155 l 1
 77 155 l 2
 120 155 152 138.3125 152 99.103515625 c 4xf6
19 0 m 1xfa
 19 184 l 1
 42 184 l 1
 42 0 l 1
 19 0 l 1xfa
EndSplineSet
Substitution2: "'sups' Superscript in Latin lookup 0 subtable" Thorn.superior
EndChar

StartChar: thorn
Encoding: 254 254 269
Width: 164
Flags: W
HStem: -5 23.4062<64.5805 107.602> 106.969 22.8613<64.5805 107.602> 164 20G<18.1104 41.1104>
VStem: 18 23.4238<-59 184> 130.443 23.082<41.8753 84.0168>
LayerCount: 2
Fore
SplineSet
18.1103515625 -59 m 5
 18.1103515625 184 l 5
 41.1103515625 184 l 5
 41.1103515625 -59 l 5
 18.1103515625 -59 l 5
41.423828125 62.6875 m 0
 41.423828125 38.03515625 61.5107421875 18.40625 86.162109375 18.40625 c 0
 110.813476562 18.40625 130.443359375 38.03515625 130.443359375 62.6875 c 0
 130.443359375 87.3388671875 110.813476562 106.96875 86.162109375 106.96875 c 0
 61.5107421875 106.96875 41.423828125 87.3388671875 41.423828125 62.6875 c 0
18 62.4150390625 m 0
 18 99.9453125 48.580078125 129.830078125 86.1103515625 129.830078125 c 0
 123.640625 129.830078125 153.525390625 99.9453125 153.525390625 62.4150390625 c 0
 153.525390625 24.884765625 123.640625 -5 86.1103515625 -5 c 0
 48.580078125 -5 18 24.884765625 18 62.4150390625 c 0
EndSplineSet
Substitution2: "'sups' Superscript in Latin lookup 0 subtable" thorn.superior
EndChar

StartChar: eth
Encoding: 240 240 270
Width: 147
Flags: W
HStem: -6 22.8613<52.4758 95.5086> 90.1738 20.7949<53.6651 94.0449> 124.737 21G<63 107.636> 164 20G<95.6279 140.264> 166.969 22.8613<42.8523 97.2522>
VStem: 12.8887 23.4238<33.6482 72.8963> 111.686 23.4238<33.6482 76.2451 81 150.677> 112.109 8.88965<81 96.0264>
LayerCount: 2
Fore
SplineSet
140.263671875 167.736328125 m 1xf4
 79.2626953125 124.737304688 l 5
 63 141 l 5
 124 184 l 1
 140.263671875 167.736328125 l 1xf4
120.999023438 81 m 9xed
 120.999023438 81 111.931640625 38.884765625 112.109375 76.2451171875 c 1xed
 111.110351562 134.584960938 l 1
 110.686523438 159.338867188 87.599609375 166.96875 72.9482421875 166.96875 c 0
 39.9140625 166.96875 33.5068359375 155.606445312 25.4228515625 145.577148438 c 1
 9 162 l 1
 21.4306640625 175.986328125 33.583984375 189.830078125 73 189.830078125 c 0
 100.530273438 189.830078125 133.932617188 171.9453125 134.110351562 134.584960938 c 1
 135.109375 56.2451171875 l 1xee
 134.931640625 18.884765625 111.529296875 -6 73.9990234375 -6 c 0
 36.46875 -6 13.06640625 18.884765625 12.888671875 56.2451171875 c 0
 12.7841796875 78.18359375 31.953125 110.96875 73.9482421875 110.96875 c 0
 98.599609375 110.96875 117.999023438 96.0263671875 120.999023438 81 c 9xed
36.3125 56.517578125 m 1
 36.3125 31.4912109375 49.3994140625 16.861328125 73.947265625 16.861328125 c 0
 98.5986328125 16.861328125 111.685546875 31.4912109375 111.685546875 56.517578125 c 0xe6
 111.685546875 79.5439453125 88.5986328125 90.173828125 73.947265625 90.173828125 c 0
 47.9130859375 90.173828125 36.9990234375 70 36.3125 56.517578125 c 1
-20.578125 140.747070312 m 1025
-36.880859375 157.049804688 m 1025
EndSplineSet
Substitution2: "'sups' Superscript in Latin lookup 0 subtable" eth.superior
EndChar

StartChar: Eth
Encoding: 208 208 271
Width: 189
Flags: W
HStem: 0 22<62 118.724> 87 23<7 121> 162.108 21.8916<62.0312 118.738>
VStem: 41 21<22 162.108> 155.866 22.1338<60.9482 123.319>
LayerCount: 2
Fore
SplineSet
7 110 m 5
 121 110 l 5
 121 87 l 5
 7 87 l 5
 7 110 l 5
91.03125 162.108398438 m 1
 62.03125 162.108398438 l 1
 62 22 l 1
 91 22 l 1
 132.692382812 22.4365234375 155.866210938 50.6103515625 155.866210938 92.2724609375 c 0
 155.866210938 133.932617188 132.692382812 162.108398438 91.03125 162.108398438 c 1
91 184 m 1
 145 184 178 146 178 92 c 0
 178 38 145 0 91 0 c 1
 41 0 l 1
 41 184 l 1
 91 184 l 1
EndSplineSet
Substitution2: "'sups' Superscript in Latin lookup 0 subtable" Eth.superior
EndChar

StartChar: dcroat
Encoding: 273 273 317
Width: 185
Flags: W
HStem: -5 23.4062<56.5805 99.6017> 0 21G<123.11 146.11> 106.969 22.8613<56.5805 99.6017> 144 23<63 177> 164 20G<123.11 146.11>
VStem: 10 23.4238<41.8753 84.0168> 123.11 23<62.415 184>
LayerCount: 2
Fore
SplineSet
63 167 m 5x36
 177 167 l 5
 177 144 l 5
 63 144 l 5
 63 167 l 5x36
33.423828125 62.6875 m 0
 33.423828125 38.03515625 53.5107421875 18.40625 78.162109375 18.40625 c 0xa6
 102.813476562 18.40625 122.443359375 38.03515625 122.443359375 62.6875 c 0
 122.443359375 87.3388671875 102.813476562 106.96875 78.162109375 106.96875 c 0
 53.5107421875 106.96875 33.423828125 87.3388671875 33.423828125 62.6875 c 0
10 62.4150390625 m 0
 10 99.9453125 40.580078125 129.830078125 78.1103515625 129.830078125 c 0
 115.640625 129.830078125 145.525390625 99.9453125 145.525390625 62.4150390625 c 0
 145.525390625 24.884765625 115.640625 -5 78.1103515625 -5 c 0
 40.580078125 -5 10 24.884765625 10 62.4150390625 c 0
123.110351562 0 m 1x6e
 123.110351562 184 l 1
 146.110351562 184 l 1
 146.110351562 0 l 1
 123.110351562 0 l 1x6e
EndSplineSet
Substitution2: "'sups' Superscript in Latin lookup 0 subtable" dcroat.superior
EndChar

StartChar: peseta
Encoding: 8359 8359 318
Width: 256
Flags: W
HStem: 0 22.8613<173.811 211.771> 90 22<42 95.5405> 162.108 21.8916<42.0312 94.1955>
VStem: 19 23<0 90 112 162.108> 105.866 22.1338<121.546 151.32> 140.89 23.1104<33.9633 57.415>
LayerCount: 2
Fore
SplineSet
190.051757812 22.861328125 m 4
 174.400390625 22.861328125 164.313476562 32.4912109375 164 57 c 5
 164 184 l 5
 140.889648438 183.415039062 l 5
 140.889648438 57.4150390625 l 5
 140.889648438 19.884765625 162.469726562 0 190 0 c 4
 210.416015625 0 228.569335938 8.84375 241 22.830078125 c 5
 224.577148438 39.2529296875 l 21
 216.493164062 29.2236328125 204.0859375 22.861328125 190.051757812 22.861328125 c 4
145 101 m 5
 209 101 l 5
 209 124 l 5
 145 124 l 5
 145 101 l 5
71.03125 162.108398438 m 2
 42.03125 162.108398438 l 1
 42 112 l 1
 71 112 l 2
 92.6923828125 112.436523438 105.866210938 117.610351562 105.866210938 139.272460938 c 0
 105.866210938 150.932617188 92.6923828125 162.108398438 71.03125 162.108398438 c 2
19 0 m 1
 19 184 l 1
 71 184 l 2
 104.913085938 184 128 163 128 139 c 0
 128 105 105 90 71 90 c 2
 42 90 l 1
 42 0 l 1
 19 0 l 1
EndSplineSet
EndChar

StartChar: revlogicalnot
Encoding: 8976 8976 319
Width: 123
Flags: W
HStem: 65 54
LayerCount: 2
Fore
SplineSet
-176 182 m 1053
119 119 m 5
 5 119 l 5
 5 96 l 5
 5 65 l 5
 28 65 l 5
 28 96 l 5
 119 96 l 5
 119 119 l 5
EndSplineSet
EndChar

StartChar: tau
Encoding: 964 964 320
Width: 115
Flags: W
HStem: 0 22.8613<76.8246 95>
VStem: 45.8896 23.1104<30.9554 52.415>
LayerCount: 2
Fore
SplineSet
95.0517578125 22.861328125 m 5
 79.400390625 22.861328125 69.3134765625 27.4912109375 69 52 c 5
 69 114 l 5
 45.8896484375 113.415039062 l 5
 45.8896484375 52.4150390625 l 5
 45.8896484375 14.884765625 67.4697265625 0 95 0 c 5
 95.0517578125 22.861328125 l 5
10 101 m 1
 104 101 l 1
 104 124 l 1
 10 124 l 1
 10 101 l 1
EndSplineSet
Substitution2: "'dnom' Denominators lookup 0 subtable" tau.denominator
Substitution2: "'sups' Superscript in Latin lookup 0 subtable" tau.superior
EndChar

StartChar: Gamma
Encoding: 915 915 321
Width: 142
Flags: W
HStem: 0 21G<14 37> 161 23<37 128>
VStem: 14 23<0 161>
LayerCount: 2
Fore
SplineSet
14 184 m 1
 128 184 l 1
 128 161 l 1
 37 161 l 1
 37 0 l 1
 14 0 l 1
 14 184 l 1
EndSplineSet
Substitution2: "'dnom' Denominators lookup 0 subtable" Gamma.denominator
Substitution2: "'sups' Superscript in Latin lookup 0 subtable" Gamma.superior
EndChar

StartChar: alpha
Encoding: 945 945 322
Width: 220
Flags: W
HStem: -4.72754 22.8613<57.3754 98.812 158.918 190.246> 104.872 20G<122.443 145.479> 106.969 22.8613<56.5805 99.6017>
VStem: 10 23.4238<41.8753 84.0168> 122.443 23.1104<25.1572 124.688>
LayerCount: 2
Fore
SplineSet
171.60546875 18.1337890625 m 4xd8
 185.639648438 18.1337890625 188.046875 20.49609375 196.130859375 30.525390625 c 13
 212.553710938 14.1025390625 l 5
 200.123046875 0.1162109375 191.969726562 -4.7275390625 171.553710938 -4.7275390625 c 4
 144.0234375 -4.7275390625 122.443359375 25.1572265625 122.443359375 62.6875 c 5
 122.443359375 124.6875 l 5
 145.443359375 124.872070312 l 5
 145.553710938 62.2724609375 l 5
 145.8671875 37.763671875 155.954101562 18.1337890625 171.60546875 18.1337890625 c 4xd8
33.423828125 62.6875 m 0
 33.423828125 38.03515625 53.5107421875 18.40625 78.162109375 18.40625 c 0
 102.813476562 18.40625 122.443359375 38.03515625 122.443359375 62.6875 c 0
 122.443359375 87.3388671875 102.813476562 106.96875 78.162109375 106.96875 c 0xb8
 53.5107421875 106.96875 33.423828125 87.3388671875 33.423828125 62.6875 c 0
10 62.4150390625 m 0
 10 99.9453125 40.580078125 129.830078125 78.1103515625 129.830078125 c 0
 115.640625 129.830078125 145.525390625 99.9453125 145.525390625 62.4150390625 c 0
 145.525390625 24.884765625 115.640625 -5 78.1103515625 -5 c 0
 40.580078125 -5 10 24.884765625 10 62.4150390625 c 0
EndSplineSet
Substitution2: "'dnom' Denominators lookup 0 subtable" alpha.denominator
Substitution2: "'sups' Superscript in Latin lookup 0 subtable" alpha.superior
EndChar

StartChar: Phi
Encoding: 934 934 323
Width: 188
Flags: W
HStem: 0 21G<79 102> 43 23<51.3057 131.694> 132 23<52.7963 130.204> 164 20G<79 102>
VStem: 11 22.8613<80.5752 117.289> 79 23<0 184> 149.139 22.8613<80.5752 117.289>
LayerCount: 2
Fore
SplineSet
86 132 m 2
 63 132 33.861328125 127.982421875 33.861328125 99.0517578125 c 0
 33.861328125 69.017578125 63 66 86 66 c 2
 97 66 l 2
 120 66 149.138671875 69.017578125 149.138671875 99.0517578125 c 0
 149.138671875 127.982421875 120 132 97 132 c 2
 86 132 l 2
86 43 m 2
 43 43 11 59.6875 11 99.103515625 c 0
 11 138.3125 43 155 86 155 c 2
 97 155 l 2
 140 155 172 138.3125 172 99.103515625 c 0
 172 59.6875 140 43 97 43 c 2
 86 43 l 2
79 0 m 1
 79 184 l 1
 102 184 l 1
 102 0 l 1
 79 0 l 1
EndSplineSet
Substitution2: "'dnom' Denominators lookup 0 subtable" Phi.denominator
Substitution2: "'sups' Superscript in Latin lookup 0 subtable" Phi.superior
EndChar

StartChar: Theta
Encoding: 920 920 324
Width: 215
Flags: W
HStem: -5 22.4365<80.7812 135.157> 80 23<51 165> 167.108 21.8916<80.7812 135.157>
VStem: 10 22.4238<64.9945 119.278> 182.866 22.1338<64.9945 120.426>
LayerCount: 2
Fore
SplineSet
51 103 m 5
 165 103 l 5
 165 80 l 5
 51 80 l 5
 51 103 l 5
32.423828125 92.2724609375 m 0
 32.423828125 50.6103515625 66.3701171875 17.4365234375 108.03125 17.4365234375 c 0
 149.692382812 17.4365234375 182.866210938 50.6103515625 182.866210938 92.2724609375 c 0
 182.866210938 133.932617188 149.692382812 167.108398438 108.03125 167.108398438 c 0
 66.3701171875 167.108398438 32.423828125 133.932617188 32.423828125 92.2724609375 c 0
10 92 m 0
 10 146 54 189 108 189 c 0
 162 189 205 146 205 92 c 0
 205 38 162 -5 108 -5 c 0
 54 -5 10 38 10 92 c 0
EndSplineSet
Substitution2: "'dnom' Denominators lookup 0 subtable" Theta.denominator
Substitution2: "'sups' Superscript in Latin lookup 0 subtable" Theta.superior
EndChar

StartChar: Sigma
Encoding: 931 931 325
Width: 156
Flags: W
LayerCount: 2
Fore
SplineSet
149 0 m 1
 149 23 l 1
 36 23 l 1
 6 0 l 1
 149 0 l 1
106 96 m 1
 83 96 l 1
 6 0 l 1
 40 17 l 1
 106 96 l 1
149 184 m 1
 6 184 l 1
 36 161 l 1
 149 161 l 1
 149 184 l 1
6 184 m 1
 83 96 l 1
 106 96 l 1
 35 174 l 1
 6 184 l 1
EndSplineSet
Substitution2: "'dnom' Denominators lookup 0 subtable" Sigma.denominator
Substitution2: "'sups' Superscript in Latin lookup 0 subtable" Sigma.superior
EndChar

StartChar: uni207F
Encoding: 8319 8319 326
Width: 129
Flags: W
HStem: 140 17<47.984 82.016>
VStem: 18 18<70 153> 94 18<70 127.531>
LayerCount: 2
Fore
SplineSet
94 112 m 21
 94 127 81 140 65 140 c 0
 49 140 36 127 36 112 c 9
 18 112 l 1
 18 137 39 157 65 157 c 0
 91 157 112 137 112 112 c 13
 112 70 l 25
 94 70 l 25
 94 112 l 21
18 70 m 1
 18 153 l 1
 36 153 l 1
 36 70 l 1
 18 70 l 1
EndSplineSet
EndChar

StartChar: uni03A9
Encoding: 937 937 327
Width: 194
Flags: W
HStem: 0.429688 23<12 12 130 184> 167.108 21.8916<71.8688 123.961>
VStem: 10 22.4238<64.6827 124.069> 161.866 22.1338<63.6764 124.855>
LayerCount: 2
Fore
SplineSet
130 23.029296875 m 1
 184 23.029296875 l 1
 184 0.029296875 l 1
 120 0.029296875 l 1
 130 23.029296875 l 1
12 23.4296875 m 1
 66 23.4296875 l 1
 76 0.4296875 l 1
 12 0.4296875 l 1
 12 23.4296875 l 1
120 24.029296875 m 17
 144.901367188 36.626953125 161.866210938 62.0791015625 161.866210938 91.8720703125 c 0
 161.866210938 133.532226562 139.692382812 167.108398438 98.03125 167.108398438 c 0
 56.3701171875 167.108398438 32.423828125 133.932617188 32.423828125 92.2724609375 c 0
 32.423828125 62.0504458914 50.2869199407 36.2951030948 76 24.4296875 c 9
 76 0 l 1
 37.6438682917 13.3064217717 10 49.1977273494 10 92 c 0
 10 146 44 189 98 189 c 0
 152 189 184 145.599609375 184 91.599609375 c 0
 184 49.21484375 157.508789062 13.6064453125 120 -0.400390625 c 1
 120 24.029296875 l 17
EndSplineSet
Substitution2: "'dnom' Denominators lookup 0 subtable" uni03A9.denominator
Substitution2: "'sups' Superscript in Latin lookup 0 subtable" uni03A9.superior
EndChar

StartChar: phi
Encoding: 966 966 328
Width: 156
Flags: W
HStem: -5 23.4238<55.0718 98.1867>
VStem: 9.16992 22.8613<41.5375 84.1248> 121.139 22.8613<41.5375 81.9964>
LayerCount: 2
Fore
SplineSet
76.5849609375 124.525390625 m 1
 77 101.110351562 l 1
 101.508789062 101.443359375 121.138671875 86.8134765625 121.138671875 62.162109375 c 0
 121.138671875 37.5107421875 101.508789062 18.423828125 76.857421875 18.423828125 c 0
 51.6611328125 18.423828125 32.03125 37.5107421875 32.03125 62.162109375 c 0
 32.03125 86.1962890625 48.3935546875 99.603515625 58.5771484375 107.6875 c 1
 42.1201171875 123.990234375 l 1
 28.013671875 111.6796875 9.169921875 92.5263671875 9.169921875 62.1103515625 c 0
 9.169921875 24.580078125 39.0546875 -5 76.5849609375 -5 c 0
 114.115234375 -5 144 24.580078125 144 62.1103515625 c 0
 144 99.640625 114.115234375 124.525390625 76.5849609375 124.525390625 c 1
87.5849609375 -50.474609375 m 1
 87.5849609375 113.110351562 l 1
 76.5849609375 124.525390625 l 1
 64.5849609375 124.525390625 l 1
 64.5849609375 -50.474609375 l 1
 87.5849609375 -50.474609375 l 1
58.5771484375 107.6875 m 1025
42.1201171875 123.990234375 m 1025
EndSplineSet
Substitution2: "'dnom' Denominators lookup 0 subtable" phi.denominator
Substitution2: "'sups' Superscript in Latin lookup 0 subtable" phi.superior
EndChar

StartChar: Lslash
Encoding: 321 321 339
Width: 142
Flags: W
HStem: 0 23<42 133> 164 20G<19 42>
VStem: 19 23<23 184>
LayerCount: 2
Fore
SplineSet
-17.1162109375 85.3291015625 m 1
 86.3583984375 133.172851562 l 1
 96.009765625 112.294921875 l 1
 -7.46484375 64.4521484375 l 1
 -17.1162109375 85.3291015625 l 1
19 0 m 1
 19 184 l 1
 42 184 l 1
 42 23 l 1
 133 23 l 1
 133 0 l 1
 19 0 l 1
EndSplineSet
Substitution2: "'sups' Superscript in Latin lookup 0 subtable" Lslash.superior
EndChar

StartChar: lslash
Encoding: 322 322 340
Width: 60
Flags: W
HStem: 0 21G<19 42> 164 20G<19 42>
VStem: 19 23<0 184>
LayerCount: 2
Fore
SplineSet
19 0 m 1
 19 184 l 1
 42 184 l 1
 42 0 l 1
 19 0 l 1
-27.1162109375 85.3291015625 m 5
 76.3583984375 133.172851562 l 5
 86.009765625 112.294921875 l 5
 -17.46484375 64.4521484375 l 5
 -27.1162109375 85.3291015625 l 5
EndSplineSet
Substitution2: "'sups' Superscript in Latin lookup 0 subtable" lslash.superior
EndChar

StartChar: uni2219
Encoding: 8729 8729 341
Width: 51
Flags: W
HStem: 87 23<15 38>
VStem: 15 23<87 110>
LayerCount: 2
Fore
SplineSet
15 87 m 5
 15 110 l 5
 38 110 l 5
 38 87 l 5
 15 87 l 5
EndSplineSet
EndChar

